# Blender 4.1.1
# www.blender.org
mtllib gate@new_gate.mtl
o gate
v -0.075800 0.331075 -0.690069
v -0.075800 0.331075 0.000000
v -0.075800 0.286720 -0.800204
v -0.075800 0.283267 -0.680804
v -0.075800 0.247906 -0.768605
v -0.075800 0.283267 -0.047808
v -0.075800 0.165538 -0.880828
v -0.075800 0.147345 -0.835509
v -0.075800 -0.283267 -0.047808
v -0.075800 0.000000 -0.910339
v -0.075800 0.000000 -0.861776
v -0.075800 -0.147345 -0.835509
v -0.075800 -0.165538 -0.880828
v -0.075800 -0.247906 -0.768605
v -0.075800 -0.331075 0.000000
v -0.075800 -0.331075 -0.690069
v -0.075800 -0.286720 -0.800204
v -0.075800 -0.283267 -0.680804
v -0.005800 -0.147345 -0.835509
v -0.005800 -0.247906 -0.768605
v -0.005800 -0.283267 -0.047808
v -0.005800 -0.283267 -0.680804
v -0.005800 0.247906 -0.768605
v -0.005800 0.147345 -0.835509
v -0.005800 0.000000 -0.861776
v -0.005800 0.283267 -0.047808
v -0.005800 0.283267 -0.680804
v 0.075800 0.247906 -0.768605
v 0.075800 0.147345 -0.835509
v 0.005800 0.247906 -0.768605
v 0.005800 0.147345 -0.835509
v 0.075800 -0.283267 -0.680804
v 0.005800 -0.283267 -0.680804
v 0.075800 -0.247906 -0.768605
v 0.005800 -0.247906 -0.768605
v 0.075800 -0.000000 -0.861776
v 0.005800 0.000000 -0.861776
v 0.075800 -0.147345 -0.835509
v 0.005800 -0.147345 -0.835509
v 0.075800 -0.283267 -0.047808
v 0.005800 -0.283267 -0.047808
v 0.075800 0.283267 -0.680804
v 0.005800 0.283267 -0.680804
v 0.075800 0.283267 -0.047808
v 0.005800 0.283267 -0.047808
v 0.075800 0.165538 -0.880828
v 0.075800 0.000000 -0.910339
v 0.075800 0.331075 -0.000000
v 0.075800 0.331075 -0.690069
v 0.075800 -0.331075 -0.000000
v 0.075800 -0.331075 -0.690069
v 0.075800 -0.286720 -0.800204
v 0.075800 -0.165538 -0.880828
v 0.075800 0.286720 -0.800204
v -0.040800 0.283267 -0.282031
v -0.040800 0.283267 -0.197651
v -0.040800 -0.283267 -0.282031
v -0.040800 -0.283267 -0.197651
v -0.005800 -0.283267 -0.197651
v -0.005800 0.283267 -0.197651
v -0.005800 -0.283267 -0.282031
v -0.005800 0.283267 -0.282031
v -0.040800 0.283267 -0.471874
v -0.040800 0.283267 -0.387494
v -0.040800 -0.283267 -0.471874
v -0.040800 -0.283267 -0.387494
v -0.005800 -0.283267 -0.387494
v -0.005800 0.283267 -0.387494
v -0.005800 -0.283267 -0.471874
v -0.005800 0.283267 -0.471874
v 0.040800 -0.283267 -0.471874
v 0.040800 -0.283267 -0.387494
v 0.040800 0.283267 -0.471874
v 0.040800 0.283267 -0.387494
v 0.005800 0.283267 -0.387494
v 0.005800 -0.283267 -0.387494
v 0.005800 0.283267 -0.471874
v 0.005800 -0.283267 -0.471874
v 0.040800 -0.283267 -0.282031
v 0.040800 -0.283267 -0.197651
v 0.040800 0.283267 -0.282031
v 0.040800 0.283267 -0.197651
v 0.005800 0.283267 -0.197651
v 0.005800 -0.283267 -0.197651
v 0.005800 0.283267 -0.282031
v 0.005800 -0.283267 -0.282031
vn -1.0000 -0.0000 -0.0000
vn -0.0000 0.3726 0.9280
vn -0.0000 0.7755 0.6314
vn -0.0000 0.9817 0.1902
vn -0.0000 1.0000 -0.0000
vn -0.0000 -0.7755 0.6314
vn -0.0000 -0.3726 0.9280
vn -0.0000 -0.3725 0.9280
vn -0.0000 -0.0001 1.0000
vn -0.0000 0.0001 1.0000
vn -0.0000 0.3725 0.9280
vn -0.0000 0.7755 0.6313
vn -0.0000 0.9817 0.1903
vn -0.0000 -1.0000 -0.0000
vn -0.0000 -0.9817 0.1902
vn -0.0000 -0.9817 0.1903
vn -0.0000 -0.7755 0.6313
vn -0.0000 -0.0000 -1.0000
vn -0.0000 0.0001 -1.0000
vn -0.0000 0.3725 -0.9280
vn -0.0000 0.9817 -0.1902
vn -0.0000 -0.0000 1.0000
vn -0.0000 -0.7755 -0.6313
vn -0.0000 -0.9817 -0.1903
vn -0.0000 -0.3725 -0.9280
vn -0.0000 -0.0001 -1.0000
vn -0.0000 0.3726 -0.9280
vn -0.0000 0.7755 -0.6314
vn -0.0000 0.7755 -0.6313
vn -0.0000 0.9817 -0.1903
vn 1.0000 -0.0000 -0.0000
vn -0.0000 -0.9817 -0.1902
vn -0.0000 -0.7755 -0.6314
vn -0.0000 -0.3726 -0.9280
vn -0.0000 -0.9276 0.3736
vn -0.0000 -0.5539 0.8326
vn -0.0000 0.1755 0.9845
vn -0.0000 0.5539 0.8326
vn -0.0000 0.9276 0.3736
vn -0.0000 -0.1755 0.9845
vt 0.343750 0.200804
vt 0.343750 0.025000
vt 0.343750 0.176607
vt 0.343750 0.174571
vt 0.343750 0.193861
vt 0.343750 0.035503
vt 0.343750 0.218517
vt 0.343750 0.208560
vt 0.343750 0.225000
vt 0.343750 0.214331
vt 0.468750 0.035503
vt 0.468750 0.174571
vt 0.468750 0.193861
vt 0.468750 0.208560
vt 0.468750 0.214331
vt 0.593750 0.035503
vt 0.593750 0.174571
vt 0.593750 0.193861
vt 0.593750 0.208560
vt 0.593750 0.214331
s 0
usemtl colormap.030
f 3/1/1 2/2/1 1/3/1
f 4/4/1 2/2/1 3/1/1
f 3/1/1 5/5/1 4/4/1
f 6/6/1 2/2/1 4/4/1
f 7/7/1 5/5/1 3/1/1
f 7/7/1 8/8/1 5/5/1
f 9/6/1 2/2/1 6/6/1
f 10/9/1 8/8/1 7/7/1
f 10/9/1 11/10/1 8/8/1
f 10/9/1 12/8/1 11/10/1
f 13/7/1 12/8/1 10/9/1
f 13/7/1 14/5/1 12/8/1
f 9/6/1 15/2/1 2/2/1
f 15/2/1 9/6/1 16/3/1
f 17/1/1 14/5/1 13/7/1
f 16/3/1 9/6/1 17/1/1
f 14/5/1 17/1/1 18/4/1
f 18/4/1 17/1/1 9/6/1
f 12/8/2 20/5/3 19/8/2
f 20/5/3 12/8/2 14/5/3
f 22/4/4 9/6/5 21/6/5
f 9/6/5 22/4/4 18/4/4
f 5/5/6 24/8/7 23/5/6
f 24/8/7 5/5/6 8/8/7
f 8/8/8 25/10/9 24/8/8
f 25/10/9 8/8/8 11/10/9
f 11/10/10 19/8/11 25/10/10
f 19/8/11 11/10/10 12/8/11
f 20/5/12 18/4/13 22/4/13
f 18/4/13 20/5/12 14/5/12
f 6/6/14 27/4/15 26/6/14
f 27/4/15 6/6/14 4/4/15
f 4/4/16 23/5/17 27/4/16
f 23/5/17 4/4/16 5/5/17
f 30/5/6 29/8/7 28/5/6
f 29/8/7 30/5/6 31/8/7
f 34/5/12 33/4/13 32/4/13
f 33/4/13 34/5/12 35/5/12
f 31/8/8 36/10/9 29/8/8
f 36/10/9 31/8/8 37/10/9
f 37/10/10 38/8/11 36/10/10
f 38/8/11 37/10/10 39/8/11
f 32/4/4 41/6/5 40/6/5
f 41/6/5 32/4/4 33/4/4
f 39/8/2 34/5/3 38/8/2
f 34/5/3 39/8/2 35/5/3
f 43/4/16 28/5/17 42/4/16
f 28/5/17 43/4/16 30/5/17
f 40/6/18 45/6/18 44/6/18
f 45/6/18 40/6/18 41/6/18
f 45/6/14 42/4/15 44/6/14
f 42/4/15 45/6/14 43/4/15
f 47/9/19 7/7/20 46/7/20
f 7/7/20 47/9/19 10/9/19
f 48/2/5 1/3/21 2/2/5
f 1/3/21 48/2/5 49/3/21
f 2/2/22 50/2/22 48/2/22
f 50/2/22 2/2/22 15/2/22
f 17/1/23 51/3/24 16/3/24
f 51/3/24 17/1/23 52/1/23
f 53/7/25 10/9/26 47/9/26
f 10/9/26 53/7/25 13/7/25
f 46/7/27 3/1/28 54/1/28
f 3/1/28 46/7/27 7/7/27
f 54/1/29 1/3/30 49/3/30
f 1/3/30 54/1/29 3/1/29
f 52/1/31 50/2/31 51/3/31
f 50/2/31 52/1/31 40/6/31
f 50/2/31 40/6/31 48/2/31
f 40/6/31 52/1/31 32/4/31
f 52/1/31 34/5/31 32/4/31
f 34/5/31 52/1/31 53/7/31
f 34/5/31 53/7/31 38/8/31
f 38/8/31 53/7/31 47/9/31
f 38/8/31 47/9/31 36/10/31
f 36/10/31 47/9/31 29/8/31
f 29/8/31 47/9/31 46/7/31
f 29/8/31 46/7/31 28/5/31
f 28/5/31 46/7/31 54/1/31
f 28/5/31 54/1/31 42/4/31
f 48/2/31 40/6/31 44/6/31
f 42/4/31 54/1/31 44/6/31
f 48/2/31 44/6/31 54/1/31
f 48/2/31 54/1/31 49/3/31
f 16/3/32 50/2/14 15/2/14
f 50/2/14 16/3/32 51/3/32
f 52/1/33 13/7/34 53/7/34
f 13/7/34 52/1/33 17/1/33
f 57/9/1 56/2/1 55/9/1
f 56/2/1 57/9/1 58/2/1
f 59/2/22 56/2/22 58/2/22
f 56/2/22 59/2/22 60/2/22
f 55/9/18 61/9/18 57/9/18
f 61/9/18 55/9/18 62/9/18
f 65/9/1 64/2/1 63/9/1
f 64/2/1 65/9/1 66/2/1
f 67/2/22 64/2/22 66/2/22
f 64/2/22 67/2/22 68/2/22
f 63/9/18 69/9/18 65/9/18
f 69/9/18 63/9/18 70/9/18
f 73/9/31 72/2/31 71/9/31
f 72/2/31 73/9/31 74/2/31
f 75/2/22 72/2/22 74/2/22
f 72/2/22 75/2/22 76/2/22
f 71/9/18 77/9/18 73/9/18
f 77/9/18 71/9/18 78/9/18
f 81/9/31 80/2/31 79/9/31
f 80/2/31 81/9/31 82/2/31
f 83/2/22 80/2/22 82/2/22
f 80/2/22 83/2/22 84/2/22
f 79/9/18 85/9/18 81/9/18
f 85/9/18 79/9/18 86/9/18
f 6/11/18 21/11/18 9/11/18
f 21/11/18 6/11/18 26/11/18
f 26/11/18 41/11/18 21/11/18
f 41/11/18 26/11/18 45/11/18
f 41/11/5 22/12/5 21/11/5
f 22/12/5 41/11/5 33/12/5
f 23/13/35 43/12/35 27/12/35
f 43/12/35 23/13/35 30/13/35
f 23/13/36 31/14/36 30/13/36
f 31/14/36 23/13/36 24/14/36
f 25/15/37 39/14/37 37/15/37
f 39/14/37 25/15/37 19/14/37
f 19/14/38 35/13/38 39/14/38
f 35/13/38 19/14/38 20/13/38
f 33/12/39 20/13/39 22/12/39
f 20/13/39 33/12/39 35/13/39
f 27/12/14 45/11/14 26/11/14
f 45/11/14 27/12/14 43/12/14
f 24/14/40 37/15/40 31/14/40
f 37/15/40 24/14/40 25/15/40
f 26/16/1 22/17/1 21/16/1
f 22/17/1 26/16/1 20/18/1
f 20/18/1 26/16/1 19/19/1
f 19/19/1 26/16/1 25/20/1
f 25/20/1 26/16/1 24/19/1
f 24/19/1 26/16/1 23/18/1
f 23/18/1 26/16/1 27/17/1
f 35/18/31 41/16/31 33/17/31
f 41/16/31 35/18/31 45/16/31
f 45/16/31 35/18/31 39/19/31
f 45/16/31 39/19/31 37/20/31
f 45/16/31 37/20/31 31/19/31
f 45/16/31 31/19/31 30/18/31
f 45/16/31 30/18/31 43/17/31
f 3/1/1 2/2/1 1/3/1
f 4/4/1 2/2/1 3/1/1
f 3/1/1 5/5/1 4/4/1
f 6/6/1 2/2/1 4/4/1
f 7/7/1 5/5/1 3/1/1
f 7/7/1 8/8/1 5/5/1
f 9/6/1 2/2/1 6/6/1
f 10/9/1 8/8/1 7/7/1
f 10/9/1 11/10/1 8/8/1
f 10/9/1 12/8/1 11/10/1
f 13/7/1 12/8/1 10/9/1
f 13/7/1 14/5/1 12/8/1
f 9/6/1 15/2/1 2/2/1
f 15/2/1 9/6/1 16/3/1
f 17/1/1 14/5/1 13/7/1
f 16/3/1 9/6/1 17/1/1
f 14/5/1 17/1/1 18/4/1
f 18/4/1 17/1/1 9/6/1
f 12/8/2 20/5/3 19/8/2
f 20/5/3 12/8/2 14/5/3
f 22/4/4 9/6/5 21/6/5
f 9/6/5 22/4/4 18/4/4
f 5/5/6 24/8/7 23/5/6
f 24/8/7 5/5/6 8/8/7
f 8/8/8 25/10/9 24/8/8
f 25/10/9 8/8/8 11/10/9
f 11/10/10 19/8/11 25/10/10
f 19/8/11 11/10/10 12/8/11
f 20/5/12 18/4/13 22/4/13
f 18/4/13 20/5/12 14/5/12
f 6/6/14 27/4/15 26/6/14
f 27/4/15 6/6/14 4/4/15
f 4/4/16 23/5/17 27/4/16
f 23/5/17 4/4/16 5/5/17
f 30/5/6 29/8/7 28/5/6
f 29/8/7 30/5/6 31/8/7
f 34/5/12 33/4/13 32/4/13
f 33/4/13 34/5/12 35/5/12
f 31/8/8 36/10/9 29/8/8
f 36/10/9 31/8/8 37/10/9
f 37/10/10 38/8/11 36/10/10
f 38/8/11 37/10/10 39/8/11
f 32/4/4 41/6/5 40/6/5
f 41/6/5 32/4/4 33/4/4
f 39/8/2 34/5/3 38/8/2
f 34/5/3 39/8/2 35/5/3
f 43/4/16 28/5/17 42/4/16
f 28/5/17 43/4/16 30/5/17
f 40/6/18 45/6/18 44/6/18
f 45/6/18 40/6/18 41/6/18
f 45/6/14 42/4/15 44/6/14
f 42/4/15 45/6/14 43/4/15
f 47/9/19 7/7/20 46/7/20
f 7/7/20 47/9/19 10/9/19
f 48/2/5 1/3/21 2/2/5
f 1/3/21 48/2/5 49/3/21
f 2/2/22 50/2/22 48/2/22
f 50/2/22 2/2/22 15/2/22
f 17/1/23 51/3/24 16/3/24
f 51/3/24 17/1/23 52/1/23
f 53/7/25 10/9/26 47/9/26
f 10/9/26 53/7/25 13/7/25
f 46/7/27 3/1/28 54/1/28
f 3/1/28 46/7/27 7/7/27
f 54/1/29 1/3/30 49/3/30
f 1/3/30 54/1/29 3/1/29
f 52/1/31 50/2/31 51/3/31
f 50/2/31 52/1/31 40/6/31
f 50/2/31 40/6/31 48/2/31
f 40/6/31 52/1/31 32/4/31
f 52/1/31 34/5/31 32/4/31
f 34/5/31 52/1/31 53/7/31
f 34/5/31 53/7/31 38/8/31
f 38/8/31 53/7/31 47/9/31
f 38/8/31 47/9/31 36/10/31
f 36/10/31 47/9/31 29/8/31
f 29/8/31 47/9/31 46/7/31
f 29/8/31 46/7/31 28/5/31
f 28/5/31 46/7/31 54/1/31
f 28/5/31 54/1/31 42/4/31
f 48/2/31 40/6/31 44/6/31
f 42/4/31 54/1/31 44/6/31
f 48/2/31 44/6/31 54/1/31
f 48/2/31 54/1/31 49/3/31
f 16/3/32 50/2/14 15/2/14
f 50/2/14 16/3/32 51/3/32
f 52/1/33 13/7/34 53/7/34
f 13/7/34 52/1/33 17/1/33
f 57/9/1 56/2/1 55/9/1
f 56/2/1 57/9/1 58/2/1
f 59/2/22 56/2/22 58/2/22
f 56/2/22 59/2/22 60/2/22
f 55/9/18 61/9/18 57/9/18
f 61/9/18 55/9/18 62/9/18
f 65/9/1 64/2/1 63/9/1
f 64/2/1 65/9/1 66/2/1
f 67/2/22 64/2/22 66/2/22
f 64/2/22 67/2/22 68/2/22
f 63/9/18 69/9/18 65/9/18
f 69/9/18 63/9/18 70/9/18
f 73/9/31 72/2/31 71/9/31
f 72/2/31 73/9/31 74/2/31
f 75/2/22 72/2/22 74/2/22
f 72/2/22 75/2/22 76/2/22
f 71/9/18 77/9/18 73/9/18
f 77/9/18 71/9/18 78/9/18
f 81/9/31 80/2/31 79/9/31
f 80/2/31 81/9/31 82/2/31
f 83/2/22 80/2/22 82/2/22
f 80/2/22 83/2/22 84/2/22
f 79/9/18 85/9/18 81/9/18
f 85/9/18 79/9/18 86/9/18
f 6/11/18 21/11/18 9/11/18
f 21/11/18 6/11/18 26/11/18
f 26/11/18 41/11/18 21/11/18
f 41/11/18 26/11/18 45/11/18
f 41/11/5 22/12/5 21/11/5
f 22/12/5 41/11/5 33/12/5
f 23/13/35 43/12/35 27/12/35
f 43/12/35 23/13/35 30/13/35
f 23/13/36 31/14/36 30/13/36
f 31/14/36 23/13/36 24/14/36
f 25/15/37 39/14/37 37/15/37
f 39/14/37 25/15/37 19/14/37
f 19/14/38 35/13/38 39/14/38
f 35/13/38 19/14/38 20/13/38
f 33/12/39 20/13/39 22/12/39
f 20/13/39 33/12/39 35/13/39
f 27/12/14 45/11/14 26/11/14
f 45/11/14 27/12/14 43/12/14
f 24/14/40 37/15/40 31/14/40
f 37/15/40 24/14/40 25/15/40
f 26/16/1 22/17/1 21/16/1
f 22/17/1 26/16/1 20/18/1
f 20/18/1 26/16/1 19/19/1
f 19/19/1 26/16/1 25/20/1
f 25/20/1 26/16/1 24/19/1
f 24/19/1 26/16/1 23/18/1
f 23/18/1 26/16/1 27/17/1
f 35/18/31 41/16/31 33/17/31
f 41/16/31 35/18/31 45/16/31
f 45/16/31 35/18/31 39/19/31
f 45/16/31 39/19/31 37/20/31
f 45/16/31 37/20/31 31/19/31
f 45/16/31 31/19/31 30/18/31
f 45/16/31 30/18/31 43/17/31
