# Blender 4.1.1
# www.blender.org
mtllib Scene.mtl
o wall_corner.001
v -49.999996 -24.999996 -15.000001
v -39.999996 -24.999996 -15.000001
v -50.000000 -24.999996 -75.000000
v -40.000000 -24.999996 -42.500000
v -37.526085 -24.999996 -54.937214
v -30.480968 -24.999996 -65.480972
v -25.000000 -24.999996 -69.143234
v -25.000000 -24.999996 -75.000000
v -50.000000 25.000000 -75.000000
v -49.999996 25.000000 -15.000001
v -40.000000 25.000000 -42.500000
v -39.999996 25.000000 -15.000001
v -37.526085 25.000000 -54.937214
v -30.480968 25.000000 -65.480972
v -19.937212 25.000000 -72.526085
v -7.500000 25.000000 -75.000000
v -25.000000 -50.000000 -15.000001
v 25.000000 -50.000000 -15.000001
v -25.000000 -50.000000 -75.000000
v 25.000000 -50.000000 -75.000000
v 25.000000 -7.499998 -75.000000
v 25.000000 -19.937210 -72.526085
v 25.000000 -30.480968 -65.480972
v 25.000000 -37.526085 -54.937214
v 25.000000 -39.999996 -42.500000
v 25.000000 -39.999996 -15.000001
v -25.000000 -39.999996 -15.000001
v -25.000000 -39.999996 -42.500000
v -25.000000 -37.526085 -54.937214
v -25.000000 -30.480968 -65.480972
v -7.500000 -7.499998 -75.000000
v -19.937212 -19.937210 -72.526085
v -25.000004 -38.535534 -11.464466
v -26.464468 -40.000000 -11.464466
v -25.000004 -40.000000 -15.000001
v 26.464468 -39.999996 -11.464466
v 25.000004 -38.535530 -11.464466
v 25.000004 -39.999996 -15.000001
v 30.000004 -49.999992 0.000000
v 30.000004 -49.999992 -8.086583
v -30.000004 -50.000000 0.000000
v 28.232235 -49.999992 -10.732232
v 26.464468 -49.999992 -11.464466
v 25.000004 -49.999992 -15.000001
v -25.000004 -50.000000 -15.000001
v -26.464468 -50.000000 -11.464466
v -28.232235 -50.000000 -10.732232
v -30.000004 -50.000000 -8.086583
v 25.000004 -34.999992 -0.000000
v 30.000004 -39.999996 -0.000000
v -25.000004 -35.000004 0.000000
v -30.000004 -40.000004 0.000000
v -30.000004 -40.000004 -8.086583
v -28.232235 -40.000000 -10.732232
v -25.000004 -35.000004 -8.086583
v -25.000004 -36.767769 -10.732232
v 25.000004 -36.767761 -10.732232
v 25.000004 -34.999992 -8.086583
v 28.232235 -39.999996 -10.732232
v 30.000004 -39.999996 -8.086583
v -38.535534 25.000000 -11.464466
v -39.999996 26.464466 -11.464466
v -39.999996 -26.464466 -11.464466
v -38.535534 -24.999998 -11.464466
v -39.999996 -24.999998 -15.000001
v -49.999996 -30.000002 -0.000000
v -49.999996 -30.000002 -8.086583
v -50.000000 30.000002 -0.000000
v -49.999996 -28.232231 -10.732232
v -49.999996 -26.464466 -11.464466
v -49.999996 -24.999998 -15.000001
v -50.000000 25.000000 -15.000001
v -50.000000 26.464466 -11.464466
v -50.000000 28.232231 -10.732232
v -50.000000 30.000002 -8.086583
v -34.999996 -24.999998 -0.000000
v -39.999996 -30.000002 -0.000000
v -35.000000 25.000000 -0.000000
v -39.999996 30.000002 -0.000000
v -39.999996 30.000002 -8.086583
v -39.999996 28.232231 -10.732232
v -35.000000 25.000000 -8.086583
v -36.767765 25.000000 -10.732232
v -36.767765 -24.999998 -10.732232
v -34.999996 -24.999998 -8.086583
v -39.999996 -28.232231 -10.732232
v -39.999996 -30.000002 -8.086583
v 27.361158 8.599693 -100.000000
v 27.361158 8.599693 -80.000000
v 19.846367 19.846367 -100.000000
v 19.846367 19.846367 -80.000000
v -4.666667 30.000002 -80.000000
v -50.000000 30.000002 -80.000000
v -4.666667 30.000002 -100.000000
v -50.000000 30.000002 -100.000000
v 30.000002 -50.000000 -100.000000
v 30.000002 -4.666665 -100.000000
v -30.000002 -50.000000 -100.000000
v 8.599691 27.361158 -100.000000
v -30.000002 -29.999998 -100.000000
v -50.000000 -29.999998 -100.000000
v 8.599691 27.361158 -80.000000
v -30.000002 -50.000000 -80.000000
v -30.000002 -29.999998 -80.000000
v -50.000000 -29.999998 -80.000000
v 30.000002 -4.666665 -80.000000
v 23.942244 6.009928 -78.535530
v 16.759565 16.759565 -78.535530
v 30.000002 -50.000000 -80.000000
v -6.670137 26.464466 -78.535530
v 6.009927 23.942244 -78.535530
v 26.464466 -6.670135 -78.535530
v 25.000000 -7.499999 -75.000000
v 22.526085 4.937213 -75.000000
v 4.937212 22.526085 -75.000000
v 15.480971 15.480971 -75.000000
v -50.000000 -26.464466 -78.535530
v -50.000000 -25.000000 -75.000000
v -50.000000 26.464466 -78.535530
v -26.464466 -26.464466 -78.535530
v -26.464466 -50.000000 -78.535530
v 26.464468 -50.000000 -78.535530
v -25.000000 -25.000000 -75.000000
vn -0.0000 -1.0000 -0.0000
vn -1.0000 -0.0000 -0.0000
vn 0.9952 -0.0000 0.0980
vn 1.0000 -0.0000 -0.0000
vn -0.0000 1.0000 -0.0000
vn -0.0000 0.9952 0.0980
vn 0.1951 -0.0000 0.9808
vn 0.3827 -0.0000 0.9239
vn 0.4688 -0.0000 0.8833
vn -0.0000 0.9239 0.3827
vn 0.7071 -0.0000 0.7071
vn 0.5556 -0.0000 0.8315
vn -0.0000 0.1951 0.9808
vn -0.0000 0.3826 0.9239
vn -0.0000 0.4688 0.8833
vn -0.0000 0.3827 0.9239
vn 0.9239 -0.0000 0.3827
vn -0.0000 0.7071 0.7071
vn -0.0000 0.5556 0.8315
vn -0.2820 0.6233 -0.7294
vn -0.6258 0.6258 -0.4656
vn -0.6233 0.2820 -0.7294
vn 0.6233 0.2820 -0.7294
vn 0.6258 0.6258 -0.4656
vn 0.2820 0.6233 -0.7294
vn -0.7071 -0.0000 -0.7071
vn -0.9239 -0.0000 -0.3827
vn -0.0000 -0.0000 1.0000
vn -0.9239 0.3827 -0.0000
vn -0.9569 -0.0000 -0.2903
vn -0.8988 0.3526 -0.2604
vn -0.6344 -0.0000 -0.7730
vn -0.6366 0.2874 -0.7157
vn -0.3827 0.9239 -0.0000
vn -0.3526 0.8988 -0.2604
vn -0.2874 0.6366 -0.7157
vn 0.2874 0.6366 -0.7157
vn 0.3526 0.8988 -0.2604
vn 0.3827 0.9239 -0.0000
vn 0.6366 0.2874 -0.7157
vn 0.6344 -0.0000 -0.7730
vn 0.7071 -0.0000 -0.7071
vn 0.9569 -0.0000 -0.2903
vn 0.8988 0.3526 -0.2604
vn 0.9239 0.3827 -0.0000
vn 0.9239 -0.0000 -0.3827
vn 0.2820 -0.6233 -0.7294
vn 0.6258 -0.6258 -0.4656
vn 0.6233 -0.2820 -0.7294
vn -0.0000 0.7071 -0.7071
vn -0.0000 0.9239 -0.3827
vn -0.0000 0.9569 -0.2903
vn -0.0000 0.6344 -0.7730
vn 0.6366 -0.2874 -0.7157
vn 0.8988 -0.3526 -0.2604
vn 0.9239 -0.3827 -0.0000
vn 0.2874 -0.6366 -0.7157
vn -0.0000 -0.6344 -0.7730
vn -0.0000 -0.7071 -0.7071
vn -0.0000 -0.9569 -0.2903
vn 0.3526 -0.8988 -0.2604
vn 0.3827 -0.9239 -0.0000
vn -0.0000 -0.9239 -0.3827
vn 0.7071 0.7071 -0.0000
vn 0.0980 0.9952 -0.0000
vn -0.0000 -0.0000 -1.0000
vn 0.9952 0.0980 -0.0000
vn 0.3024 0.1344 0.9437
vn 0.2249 0.2249 0.9481
vn 0.5906 0.2432 0.7694
vn 0.4411 0.4411 0.7816
vn 0.0438 0.3610 0.9315
vn 0.0664 0.6796 0.7306
vn 0.1344 0.3024 0.9437
vn 0.2432 0.5906 0.7694
vn 0.6796 0.0664 0.7306
vn 0.3610 0.0438 0.9315
vn 0.9142 0.0796 0.3974
vn 0.8367 0.3316 0.4358
vn 0.3316 0.8367 0.4358
vn 0.0796 0.9142 0.3974
vn 0.6295 0.6295 0.4553
vn -0.4975 -0.4975 0.7106
vn -0.0000 -0.7071 0.7071
vn -0.1988 -0.1988 0.9597
vn -0.0000 -0.3827 0.9239
vn -0.7071 -0.0000 0.7071
vn -0.3827 -0.0000 0.9239
vn -0.0000 -0.9239 0.3827
vn -0.6101 -0.6101 0.5054
vn -0.9239 -0.0000 0.3827
vt 0.343750 0.065000
vt 0.343750 0.225000
vt 0.343750 0.138333
vt 0.343750 0.171499
vt 0.343750 0.199616
vt 0.343750 0.209382
vt 0.343750 0.218403
vt 0.343750 0.201430
vt 0.343750 0.125000
vt 0.343750 0.178911
vt 0.343750 0.196548
vt 0.468750 0.175000
vt 0.468750 0.095000
vt 0.468750 0.089142
vt 0.468750 0.075000
s 1
usemtl colormap.046
f 1/1/1 3/2/1 2/1/1
f 4/3/1 2/1/1 3/2/1
f 5/4/1 4/3/1 3/2/1
f 6/5/1 5/4/1 3/2/1
f 7/6/1 6/5/1 3/2/1
f 8/2/1 7/6/1 3/2/1
f 3/2/2 1/1/2 9/2/2
f 10/1/2 9/2/2 1/1/2
f 4/3/3 11/3/3 2/1/4
f 12/1/4 2/1/4 11/3/3
f 10/1/5 12/1/5 9/2/5
f 11/3/5 9/2/5 12/1/5
f 13/4/5 9/2/5 11/3/5
f 14/5/5 9/2/5 13/4/5
f 15/7/5 9/2/5 14/5/5
f 16/2/5 9/2/5 15/7/5
f 17/1/1 19/2/1 18/1/1
f 20/2/1 18/1/1 19/2/1
f 21/2/4 22/7/4 20/2/4
f 22/7/4 23/5/4 20/2/4
f 23/5/4 24/4/4 20/2/4
f 18/1/4 20/2/4 24/4/4
f 25/3/4 18/1/4 24/4/4
f 25/3/4 26/1/4 18/1/4
f 26/1/5 25/3/6 27/1/5
f 28/3/6 27/1/5 25/3/6
f 17/1/2 27/1/2 19/2/2
f 28/3/2 19/2/2 27/1/2
f 29/4/2 19/2/2 28/3/2
f 8/2/2 19/2/2 29/4/2
f 30/5/2 8/2/2 29/4/2
f 7/6/2 8/2/2 30/5/2
f 16/2/7 15/7/8 31/2/7
f 32/7/9 31/2/7 15/7/8
f 25/3/6 24/4/10 28/3/6
f 29/4/10 28/3/6 24/4/10
f 15/7/8 14/5/11 32/7/9
f 7/6/12 32/7/9 14/5/11
f 6/5/11 7/6/12 14/5/11
f 21/2/13 31/2/13 22/7/14
f 32/7/15 22/7/16 31/2/13
f 6/5/11 14/5/11 5/4/17
f 13/4/17 5/4/17 14/5/11
f 24/4/10 23/5/18 29/4/10
f 30/5/18 29/4/10 23/5/18
f 5/4/17 13/4/17 4/3/3
f 11/3/3 4/3/3 13/4/17
f 22/7/16 32/7/15 23/5/18
f 30/5/18 23/5/18 32/7/15
f 7/6/19 30/5/18 32/7/15
f 33/8/20 35/2/21 34/8/22
f 36/8/23 38/2/24 37/8/25
f 39/9/1 41/9/1 40/10/1
f 42/11/1 40/10/1 41/9/1
f 43/8/1 42/11/1 41/9/1
f 44/2/1 43/8/1 41/9/1
f 45/2/1 44/2/1 41/9/1
f 46/8/1 45/2/1 41/9/1
f 47/11/1 46/8/1 41/9/1
f 48/10/1 47/11/1 41/9/1
f 46/8/26 34/8/22 45/2/27
f 35/2/21 45/2/27 34/8/22
f 49/9/28 51/9/28 50/9/28
f 52/9/28 50/9/28 51/9/28
f 39/9/28 50/9/28 52/9/28
f 41/9/28 39/9/28 52/9/28
f 41/9/2 52/9/29 48/10/30
f 53/10/31 48/10/30 52/9/29
f 48/10/30 53/10/31 47/11/32
f 54/11/33 47/11/32 53/10/31
f 34/8/22 46/8/26 54/11/33
f 47/11/32 54/11/33 46/8/26
f 51/9/34 55/10/35 52/9/29
f 53/10/31 52/9/29 55/10/35
f 55/10/35 56/11/36 53/10/31
f 54/11/33 53/10/31 56/11/36
f 56/11/36 33/8/20 54/11/33
f 34/8/22 54/11/33 33/8/20
f 38/2/24 35/2/21 37/8/25
f 33/8/20 37/8/25 35/2/21
f 57/11/37 37/8/25 56/11/36
f 33/8/20 56/11/36 37/8/25
f 57/11/37 56/11/36 58/10/38
f 55/10/35 58/10/38 56/11/36
f 58/10/38 55/10/35 49/9/39
f 51/9/34 49/9/39 55/10/35
f 59/11/40 42/11/41 36/8/23
f 43/8/42 36/8/23 42/11/41
f 40/10/43 42/11/41 60/10/44
f 59/11/40 60/10/44 42/11/41
f 50/9/45 60/10/44 49/9/39
f 58/10/38 49/9/39 60/10/44
f 58/10/38 60/10/44 57/11/37
f 59/11/40 57/11/37 60/10/44
f 57/11/37 59/11/40 37/8/25
f 36/8/23 37/8/25 59/11/40
f 43/8/42 44/2/46 36/8/23
f 38/2/24 36/8/23 44/2/46
f 39/9/4 40/10/43 50/9/45
f 60/10/44 50/9/45 40/10/43
f 61/8/23 12/2/24 62/8/25
f 63/8/47 65/2/48 64/8/49
f 66/9/2 68/9/2 67/10/2
f 69/11/2 67/10/2 68/9/2
f 70/8/2 69/11/2 68/9/2
f 71/2/2 70/8/2 68/9/2
f 72/2/2 71/2/2 68/9/2
f 73/8/2 72/2/2 68/9/2
f 74/11/2 73/8/2 68/9/2
f 75/10/2 74/11/2 68/9/2
f 73/8/50 62/8/25 72/2/51
f 12/2/24 72/2/51 62/8/25
f 76/9/28 78/9/28 77/9/28
f 79/9/28 77/9/28 78/9/28
f 66/9/28 77/9/28 79/9/28
f 68/9/28 66/9/28 79/9/28
f 68/9/5 79/9/39 75/10/52
f 80/10/38 75/10/52 79/9/39
f 75/10/52 80/10/38 74/11/53
f 81/11/37 74/11/53 80/10/38
f 62/8/25 73/8/50 81/11/37
f 74/11/53 81/11/37 73/8/50
f 78/9/45 82/10/44 79/9/39
f 80/10/38 79/9/39 82/10/44
f 82/10/44 83/11/40 80/10/38
f 81/11/37 80/10/38 83/11/40
f 83/11/40 61/8/23 81/11/37
f 62/8/25 81/11/37 61/8/23
f 65/2/48 12/2/24 64/8/49
f 61/8/23 64/8/49 12/2/24
f 84/11/54 64/8/49 83/11/40
f 61/8/23 83/11/40 64/8/49
f 84/11/54 83/11/40 85/10/55
f 82/10/44 85/10/55 83/11/40
f 85/10/55 82/10/44 76/9/56
f 78/9/45 76/9/56 82/10/44
f 86/11/57 69/11/58 63/8/47
f 70/8/59 63/8/47 69/11/58
f 67/10/60 69/11/58 87/10/61
f 86/11/57 87/10/61 69/11/58
f 77/9/62 87/10/61 76/9/56
f 85/10/55 76/9/56 87/10/61
f 85/10/55 87/10/61 84/11/54
f 86/11/57 84/11/54 87/10/61
f 84/11/54 86/11/57 64/8/49
f 63/8/47 64/8/49 86/11/57
f 70/8/59 71/2/63 63/8/47
f 65/2/48 63/8/47 71/2/63
f 66/9/1 67/10/60 77/9/62
f 87/10/61 77/9/62 67/10/60
f 88/12/45 90/12/64 89/13/45
f 91/13/64 89/13/45 90/12/64
f 92/13/65 94/12/65 93/13/5
f 95/12/5 93/13/5 94/12/65
f 96/12/66 98/12/66 97/12/66
f 88/12/66 97/12/66 98/12/66
f 90/12/66 88/12/66 98/12/66
f 99/12/66 90/12/66 98/12/66
f 94/12/66 99/12/66 98/12/66
f 100/12/66 94/12/66 98/12/66
f 95/12/66 94/12/66 100/12/66
f 101/12/66 95/12/66 100/12/66
f 91/13/64 90/12/64 102/13/39
f 99/12/39 102/13/39 90/12/64
f 103/13/2 104/13/2 98/12/2
f 100/12/2 98/12/2 104/13/2
f 102/13/39 99/12/39 92/13/65
f 94/12/65 92/13/65 99/12/39
f 104/13/1 105/13/1 100/12/1
f 101/12/1 100/12/1 105/13/1
f 97/12/67 88/12/45 106/13/67
f 89/13/45 106/13/67 88/12/45
f 89/13/68 91/13/69 107/14/70
f 91/13/69 108/14/71 107/14/70
f 96/12/4 97/12/67 109/13/4
f 106/13/67 109/13/4 97/12/67
f 92/13/72 110/14/73 102/13/74
f 102/13/74 110/14/73 111/14/75
f 102/13/74 111/14/75 91/13/69
f 91/13/69 111/14/75 108/14/71
f 89/13/68 107/14/70 112/14/76
f 89/13/68 112/14/76 106/13/77
f 113/15/78 107/14/70 114/15/79
f 112/14/76 107/14/70 113/15/78
f 115/15/80 111/14/75 16/15/81
f 111/14/75 110/14/73 16/15/81
f 107/14/70 108/14/71 114/15/79
f 114/15/79 108/14/71 116/15/82
f 116/15/82 108/14/71 115/15/80
f 108/14/71 111/14/75 115/15/80
f 105/13/2 117/14/2 101/12/2
f 95/12/2 101/12/2 117/14/2
f 118/15/2 95/12/2 117/14/2
f 9/15/2 95/12/2 118/15/2
f 119/14/2 95/12/2 9/15/2
f 93/13/2 95/12/2 119/14/2
f 120/14/83 117/14/84 104/13/85
f 105/13/86 104/13/85 117/14/84
f 92/13/72 93/13/16 110/14/73
f 119/14/18 110/14/73 93/13/16
f 121/14/87 120/14/83 103/13/88
f 104/13/85 103/13/88 120/14/83
f 20/15/1 19/15/1 122/14/1
f 121/14/1 122/14/1 19/15/1
f 103/13/1 122/14/1 121/14/1
f 109/13/1 122/14/1 103/13/1
f 98/12/1 109/13/1 103/13/1
f 96/12/1 109/13/1 98/12/1
f 109/13/8 106/13/77 122/14/11
f 112/14/76 122/14/11 106/13/77
f 16/15/81 110/14/73 9/15/10
f 119/14/18 9/15/10 110/14/73
f 118/15/89 117/14/84 123/15/90
f 120/14/83 123/15/90 117/14/84
f 19/15/91 123/15/90 121/14/87
f 120/14/83 121/14/87 123/15/90
f 20/15/17 122/14/11 113/15/78
f 112/14/76 113/15/78 122/14/11
f 118/15/28 123/15/28 9/15/28
f 16/15/28 9/15/28 123/15/28
f 123/15/28 19/15/28 16/15/28
f 16/15/28 19/15/28 115/15/28
f 115/15/28 19/15/28 116/15/28
f 116/15/28 19/15/28 114/15/28
f 114/15/28 19/15/28 113/15/28
f 20/15/28 113/15/28 19/15/28
