# Blender 4.1.1
# www.blender.org
mtllib tree-small.mtl
o tree-small.182
v 0.108028 -0.171473 0.000000
v 0.207027 -0.000000 0.000000
v 0.058894 -0.086371 -0.198000
v 0.108760 -0.000000 -0.198000
v 0.108028 0.171473 0.000000
v -0.089973 -0.171473 0.000000
v -0.089973 0.171473 0.000000
v -0.188973 -0.000000 0.000000
v 0.058894 0.086371 -0.198000
v -0.040839 0.086371 -0.198000
v -0.090705 -0.000000 -0.198000
v -0.040839 -0.086371 -0.198000
v -0.020130 -0.050502 -0.470800
v 0.038185 -0.050502 -0.470800
v 0.038185 0.050502 -0.470800
v -0.020130 0.050502 -0.470800
v 0.067342 0.000000 -0.470800
v -0.049287 0.000000 -0.470800
v -0.350973 0.000000 -0.470800
v -0.350973 0.000000 -0.542800
v -0.245531 0.254558 -0.470800
v -0.245531 0.254558 -0.542800
v 0.369027 0.000000 -0.470800
v 0.263586 -0.254558 -0.470800
v 0.263586 0.254558 -0.470800
v 0.009027 0.360000 -0.470800
v 0.009027 -0.360000 -0.470800
v -0.245531 -0.254558 -0.470800
v 0.263586 0.254558 -0.542800
v 0.009027 0.360000 -0.542800
v 0.151834 0.300848 -0.542800
v 0.226335 0.269988 -0.542800
v 0.251763 -0.000000 -0.758800
v 0.369027 0.000000 -0.542800
v 0.180667 0.171640 -0.758800
v 0.263586 -0.254558 -0.542800
v 0.279016 -0.217308 -0.542800
v 0.180667 -0.171640 -0.758800
v 0.309875 -0.142806 -0.542800
v 0.009027 0.242735 -0.758800
v -0.162612 0.171640 -0.758800
v -0.233708 0.000000 -0.758800
v -0.245531 -0.254558 -0.542800
v -0.304683 -0.111753 -0.542800
v -0.335543 -0.037251 -0.542800
v -0.162612 -0.171640 -0.758800
v 0.009027 -0.360000 -0.542800
v 0.009027 -0.242735 -0.758800
v 0.207086 0.328877 -0.461324
v 0.178486 0.334333 -0.471552
v 0.231166 0.312512 -0.471552
v 0.162120 0.325682 -0.496242
v 0.236622 0.294822 -0.496242
v -0.329517 -0.122039 -0.496242
v -0.347207 -0.116584 -0.471552
v -0.363572 -0.092503 -0.461324
v -0.369027 -0.063903 -0.471552
v -0.360377 -0.047537 -0.496242
v 0.303850 -0.227594 -0.496242
v 0.321539 -0.222139 -0.471552
v 0.337905 -0.198058 -0.461324
v 0.343360 -0.169458 -0.471552
v 0.334709 -0.153093 -0.496242
v -0.278973 0.000000 -0.830800
v -0.037053 0.000000 -1.349200
v -0.240909 0.091894 -0.830800
v -0.023556 0.032583 -1.349200
v -0.194619 0.203647 -0.830800
v -0.210049 0.166396 -0.830800
v 0.055107 0.000000 -1.349200
v 0.041611 0.032583 -1.349200
v 0.041611 -0.032583 -1.349200
v 0.009027 -0.046080 -1.349200
v 0.009027 0.046080 -1.349200
v -0.023556 -0.032583 -1.349200
v 0.297027 -0.000000 -0.830800
v 0.281598 0.037251 -0.830800
v 0.212674 0.203647 -0.830800
v 0.250738 0.111753 -0.830800
v -0.194619 -0.203647 -0.758800
v 0.009027 -0.288000 -0.758800
v -0.194619 -0.203647 -0.830800
v 0.009027 -0.288000 -0.830800
v -0.102725 -0.241711 -0.830800
v -0.028223 -0.272570 -0.830800
v -0.278973 0.000000 -0.758800
v 0.009027 0.288000 -0.830800
v 0.212674 -0.203647 -0.830800
v 0.212674 -0.203647 -0.758800
v 0.297027 0.000000 -0.758800
v 0.212674 0.203647 -0.758800
v 0.009027 0.288000 -0.758800
v -0.194619 0.203647 -0.758800
v -0.265743 0.102181 -0.784243
v -0.274393 0.118547 -0.759552
v -0.268938 0.147146 -0.749324
v -0.252572 0.171227 -0.759552
v -0.234883 0.176683 -0.784243
v -0.083476 -0.300600 -0.749324
v -0.054876 -0.306055 -0.759552
v -0.107556 -0.284234 -0.759552
v -0.038510 -0.297404 -0.784243
v -0.113012 -0.266544 -0.784243
v 0.306432 0.047537 -0.784243
v 0.315082 0.063903 -0.759552
v 0.309627 0.092503 -0.749324
v 0.293261 0.116584 -0.759552
v 0.275572 0.122039 -0.784243
vn 0.4479 -0.7757 -0.4446
vn 0.8958 -0.0000 -0.4445
vn 0.4479 -0.7757 -0.4445
vn 0.8957 -0.0000 -0.4446
vn -0.0000 -0.0000 1.0000
vn 0.4479 0.7757 -0.4446
vn -0.4479 0.7758 -0.4445
vn 0.4479 0.7758 -0.4445
vn -0.4479 0.7757 -0.4446
vn -0.8958 -0.0000 -0.4445
vn 0.4479 0.7757 -0.4445
vn -0.4479 -0.7757 -0.4446
vn 0.4479 -0.7758 -0.4445
vn -0.4479 -0.7758 -0.4445
vn -0.4479 -0.7757 -0.4445
vn -0.4943 -0.8562 -0.1501
vn 0.4943 -0.8562 -0.1501
vn 0.4944 -0.8562 -0.1501
vn 0.4943 0.8562 -0.1501
vn -0.4943 0.8562 -0.1501
vn -0.4944 0.8562 -0.1501
vn 0.9887 -0.0000 -0.1501
vn -0.9887 -0.0000 -0.1501
vn -0.7071 0.7071 -0.0000
vn -1.0000 -0.0000 -0.0000
vn 0.7071 0.7071 -0.0000
vn -0.0000 1.0000 -0.0000
vn -0.0001 1.0000 -0.0000
vn 0.3827 0.9239 -0.0000
vn 0.3826 0.9239 -0.0000
vn 0.6215 0.6214 -0.4771
vn 0.8789 -0.0000 -0.4771
vn 0.8788 -0.0000 -0.4771
vn 0.6215 -0.6214 -0.4771
vn 0.8258 -0.3421 -0.4483
vn -0.0000 0.8788 -0.4771
vn -0.6214 0.6215 -0.4771
vn -0.6214 0.6214 -0.4771
vn 1.0000 -0.0000 -0.0000
vn 1.0000 -0.0000 0.0001
vn 0.6214 0.6215 -0.4771
vn 0.3421 0.8258 -0.4483
vn -0.6215 0.6214 -0.4771
vn -0.8788 -0.0000 -0.4771
vn -0.8789 -0.0000 -0.4771
vn -0.7071 -0.7071 -0.0000
vn -0.9239 -0.3827 -0.0000
vn -0.8258 -0.3421 -0.4483
vn -0.6215 -0.6214 -0.4771
vn -0.6214 -0.6214 -0.4771
vn -0.7071 0.7071 -0.0001
vn -0.0000 -0.8788 -0.4771
vn 0.6214 -0.6215 -0.4771
vn 0.6214 -0.6214 -0.4771
vn -0.6214 -0.6215 -0.4771
vn -0.0000 -0.8789 -0.4771
vn 0.9239 -0.3827 -0.0000
vn 0.7071 -0.7071 -0.0000
vn -0.0000 -1.0000 -0.0000
vn 0.3314 0.8001 -0.5000
vn -0.8001 -0.3314 -0.5000
vn 0.8001 -0.3314 -0.5000
vn -0.8484 0.3514 -0.3959
vn -0.9062 -0.0000 -0.4229
vn -0.6408 0.6407 -0.4229
vn -0.6408 0.6408 -0.4229
vn -0.8484 0.3514 -0.3958
vn -0.0000 -0.0000 -1.0000
vn 0.9062 -0.0000 -0.4229
vn 0.8484 0.3514 -0.3959
vn 0.6408 0.6407 -0.4229
vn 0.6408 0.6408 -0.4229
vn 0.8484 0.3514 -0.3958
vn -0.3827 -0.9239 -0.0000
vn 0.0001 -1.0000 -0.0000
vn -0.6408 -0.6408 -0.4229
vn -0.3514 -0.8484 -0.3959
vn -0.6407 -0.6408 -0.4229
vn -0.0000 -0.9062 -0.4229
vn -0.6408 -0.6407 -0.4229
vn -1.0000 -0.0000 0.0001
vn -0.0000 0.9062 -0.4229
vn 0.6407 0.6408 -0.4229
vn -1.0000 -0.0000 -0.0001
vn -0.9239 0.3827 -0.0000
vn 0.6408 -0.6408 -0.4229
vn 0.6408 -0.6407 -0.4229
vn 0.6407 -0.6408 -0.4229
vn 0.9239 0.3827 -0.0000
vn -0.8001 0.3314 -0.5000
vn -0.3314 -0.8001 -0.5000
vn 0.8001 0.3314 -0.5000
vt 0.593750 0.109112
vt 0.593750 0.025000
vt 0.593750 0.225000
vt 0.093750 0.275000
vt 0.093750 0.325000
vt 0.093750 0.475000
vt 0.093750 0.275522
vt 0.093750 0.292668
vt 0.093750 0.299390
vt 0.093750 0.283619
vt 0.093750 0.275255
s 0
usemtl colormap.011
f 3/1/1 2/2/2 1/2/1
f 2/2/2 3/1/3 4/1/4
f 5/2/5 1/2/5 2/2/5
f 1/2/5 5/2/5 6/2/5
f 6/2/5 5/2/5 7/2/5
f 6/2/5 7/2/5 8/2/5
f 9/1/6 7/2/7 5/2/6
f 7/2/7 9/1/8 10/1/9
f 7/2/7 11/1/10 8/2/10
f 11/1/10 7/2/7 10/1/7
f 9/1/11 2/2/2 4/1/2
f 2/2/2 9/1/11 5/2/8
f 12/1/12 1/2/13 6/2/12
f 1/2/13 12/1/14 3/1/1
f 8/2/10 12/1/15 6/2/14
f 12/1/15 8/2/10 11/1/10
f 13/3/16 3/1/17 12/1/16
f 3/1/18 13/3/16 14/3/17
f 15/3/19 10/1/20 9/1/19
f 10/1/21 15/3/19 16/3/20
f 17/3/22 9/1/19 4/1/22
f 9/1/19 17/3/22 15/3/19
f 10/1/20 18/3/23 11/1/23
f 18/3/23 10/1/20 16/3/20
f 14/3/17 4/1/22 3/1/17
f 4/1/22 14/3/17 17/3/22
f 11/1/23 13/3/16 12/1/16
f 13/3/16 11/1/23 18/3/23
f 21/4/24 20/5/25 19/4/25
f 20/5/25 21/4/24 22/5/24
f 25/4/5 24/4/5 23/4/5
f 24/4/5 25/4/5 26/4/5
f 24/4/5 26/4/5 27/4/5
f 27/4/5 26/4/5 21/4/5
f 27/4/5 21/4/5 28/4/5
f 28/4/5 21/4/5 19/4/5
f 29/5/26 26/4/27 25/4/26
f 26/4/27 29/5/26 30/5/27
f 30/5/28 29/5/26 31/5/29
f 31/5/30 29/5/26 32/5/30
f 35/6/31 34/5/32 33/6/33
f 34/5/32 35/6/31 29/5/31
f 38/6/34 37/5/35 36/5/34
f 37/5/35 38/6/34 39/5/35
f 39/5/35 38/6/34 33/6/33
f 39/5/35 33/6/33 34/5/33
f 40/6/36 22/5/37 30/5/36
f 22/5/38 40/6/36 41/6/37
f 29/5/26 23/4/39 34/5/40
f 23/4/39 29/5/26 25/4/26
f 35/6/41 32/5/42 29/5/41
f 32/5/42 35/6/41 31/5/42
f 40/6/36 31/5/42 35/6/41
f 31/5/42 40/6/36 30/5/36
f 22/5/43 42/6/44 20/5/44
f 42/6/45 22/5/43 41/6/43
f 19/4/25 43/5/46 28/4/46
f 43/5/46 19/4/25 44/5/47
f 44/5/47 19/4/25 45/5/47
f 45/5/47 19/4/25 20/5/25
f 44/5/48 46/6/49 43/5/49
f 46/6/50 44/5/48 42/6/45
f 42/6/44 44/5/48 45/5/48
f 42/6/45 45/5/48 20/5/44
f 30/5/27 21/4/51 26/4/27
f 21/4/24 30/5/27 22/5/24
f 48/6/52 36/5/53 47/5/52
f 36/5/54 48/6/52 38/6/53
f 46/6/55 47/5/56 43/5/55
f 47/5/52 46/6/55 48/6/52
f 37/5/57 24/4/58 36/5/58
f 24/4/58 37/5/57 23/4/39
f 23/4/39 37/5/57 39/5/57
f 23/4/39 39/5/57 34/5/39
f 43/5/46 27/4/59 28/4/46
f 27/4/59 43/5/46 47/5/59
f 47/5/59 24/4/58 27/4/59
f 24/4/58 47/5/59 36/5/58
f 51/7/60 50/7/60 49/4/60
f 50/7/60 51/7/60 52/8/60
f 52/8/60 51/7/60 53/8/60
f 52/8/60 53/8/60 31/5/60
f 31/5/60 53/8/60 32/5/60
f 55/7/61 44/5/61 54/8/61
f 44/5/61 55/7/61 56/4/61
f 44/5/61 56/4/61 45/5/61
f 45/5/61 56/4/61 57/7/61
f 45/5/61 57/7/61 58/8/61
f 37/5/62 60/7/62 59/8/62
f 60/7/62 37/5/62 61/4/62
f 61/4/62 37/5/62 39/5/62
f 61/4/62 39/5/62 62/7/62
f 62/7/62 39/5/62 63/8/62
f 66/9/63 65/6/64 64/9/64
f 65/6/64 66/9/63 67/6/65
f 67/6/66 66/9/63 68/9/65
f 68/9/65 66/9/67 69/9/63
f 72/6/68 71/6/68 70/6/68
f 71/6/68 72/6/68 73/6/68
f 71/6/68 73/6/68 74/6/68
f 74/6/68 73/6/68 75/6/68
f 74/6/68 75/6/68 67/6/68
f 67/6/68 75/6/68 65/6/68
f 70/6/69 77/9/70 76/9/69
f 77/9/70 70/6/69 71/6/71
f 77/9/70 71/6/72 78/9/72
f 77/9/73 78/9/71 79/9/70
f 82/9/46 81/4/59 80/4/46
f 81/4/59 82/9/46 83/9/59
f 83/9/59 82/9/46 84/9/74
f 83/9/75 84/9/74 85/9/74
f 75/6/76 84/9/77 82/9/78
f 84/9/77 75/6/76 85/9/77
f 85/9/77 75/6/78 83/9/79
f 83/9/79 75/6/76 73/6/79
f 64/9/64 75/6/80 82/9/76
f 75/6/80 64/9/64 65/6/64
f 86/4/25 82/9/46 80/4/46
f 82/9/46 86/4/25 64/9/81
f 71/6/72 87/9/82 78/9/83
f 87/9/82 71/6/72 74/6/82
f 76/9/39 89/4/58 88/9/58
f 89/4/58 76/9/39 90/4/39
f 78/9/26 92/4/27 91/4/26
f 92/4/27 78/9/26 87/9/27
f 93/4/24 64/9/25 86/4/84
f 64/9/25 93/4/24 66/9/85
f 66/9/85 93/4/24 69/9/85
f 69/9/85 93/4/24 68/9/24
f 91/4/5 89/4/5 90/4/5
f 89/4/5 91/4/5 92/4/5
f 89/4/5 92/4/5 81/4/5
f 81/4/5 92/4/5 93/4/5
f 81/4/5 93/4/5 80/4/5
f 80/4/5 93/4/5 86/4/5
f 72/6/86 76/9/69 88/9/87
f 76/9/69 72/6/86 70/6/69
f 74/6/82 68/9/66 87/9/82
f 68/9/66 74/6/82 67/6/66
f 83/9/59 89/4/58 81/4/59
f 89/4/58 83/9/59 88/9/58
f 73/6/79 88/9/86 83/9/79
f 88/9/86 73/6/79 72/6/88
f 77/9/89 90/4/39 76/9/39
f 90/4/39 77/9/89 91/4/26
f 91/4/26 77/9/89 79/9/89
f 91/4/26 79/9/89 78/9/26
f 87/9/27 93/4/51 92/4/27
f 93/4/24 87/9/27 68/9/24
f 94/10/90 69/9/90 66/9/90
f 69/9/90 94/10/90 95/11/90
f 69/9/90 95/11/90 96/4/90
f 69/9/90 96/4/90 97/11/90
f 69/9/90 97/11/90 98/10/90
f 101/11/91 100/11/91 99/4/91
f 100/11/91 101/11/91 102/10/91
f 102/10/91 101/11/91 103/10/91
f 102/10/91 103/10/91 85/9/91
f 85/9/91 103/10/91 84/9/91
f 79/9/92 104/10/92 77/9/92
f 104/10/92 79/9/92 105/11/92
f 105/11/92 79/9/92 106/4/92
f 106/4/92 79/9/92 107/11/92
f 107/11/92 79/9/92 108/10/92
f 3/1/1 2/2/2 1/2/1
f 2/2/2 3/1/3 4/1/4
f 5/2/5 1/2/5 2/2/5
f 1/2/5 5/2/5 6/2/5
f 6/2/5 5/2/5 7/2/5
f 6/2/5 7/2/5 8/2/5
f 9/1/6 7/2/7 5/2/6
f 7/2/7 9/1/8 10/1/9
f 7/2/7 11/1/10 8/2/10
f 11/1/10 7/2/7 10/1/7
f 9/1/11 2/2/2 4/1/2
f 2/2/2 9/1/11 5/2/8
f 12/1/12 1/2/13 6/2/12
f 1/2/13 12/1/14 3/1/1
f 8/2/10 12/1/15 6/2/14
f 12/1/15 8/2/10 11/1/10
f 13/3/16 3/1/17 12/1/16
f 3/1/18 13/3/16 14/3/17
f 15/3/19 10/1/20 9/1/19
f 10/1/21 15/3/19 16/3/20
f 17/3/22 9/1/19 4/1/22
f 9/1/19 17/3/22 15/3/19
f 10/1/20 18/3/23 11/1/23
f 18/3/23 10/1/20 16/3/20
f 14/3/17 4/1/22 3/1/17
f 4/1/22 14/3/17 17/3/22
f 11/1/23 13/3/16 12/1/16
f 13/3/16 11/1/23 18/3/23
f 21/4/24 20/5/25 19/4/25
f 20/5/25 21/4/24 22/5/24
f 25/4/5 24/4/5 23/4/5
f 24/4/5 25/4/5 26/4/5
f 24/4/5 26/4/5 27/4/5
f 27/4/5 26/4/5 21/4/5
f 27/4/5 21/4/5 28/4/5
f 28/4/5 21/4/5 19/4/5
f 29/5/26 26/4/27 25/4/26
f 26/4/27 29/5/26 30/5/27
f 30/5/28 29/5/26 31/5/29
f 31/5/30 29/5/26 32/5/30
f 35/6/31 34/5/32 33/6/33
f 34/5/32 35/6/31 29/5/31
f 38/6/34 37/5/35 36/5/34
f 37/5/35 38/6/34 39/5/35
f 39/5/35 38/6/34 33/6/33
f 39/5/35 33/6/33 34/5/33
f 40/6/36 22/5/37 30/5/36
f 22/5/38 40/6/36 41/6/37
f 29/5/26 23/4/39 34/5/40
f 23/4/39 29/5/26 25/4/26
f 35/6/41 32/5/42 29/5/41
f 32/5/42 35/6/41 31/5/42
f 40/6/36 31/5/42 35/6/41
f 31/5/42 40/6/36 30/5/36
f 22/5/43 42/6/44 20/5/44
f 42/6/45 22/5/43 41/6/43
f 19/4/25 43/5/46 28/4/46
f 43/5/46 19/4/25 44/5/47
f 44/5/47 19/4/25 45/5/47
f 45/5/47 19/4/25 20/5/25
f 44/5/48 46/6/49 43/5/49
f 46/6/50 44/5/48 42/6/45
f 42/6/44 44/5/48 45/5/48
f 42/6/45 45/5/48 20/5/44
f 30/5/27 21/4/51 26/4/27
f 21/4/24 30/5/27 22/5/24
f 48/6/52 36/5/53 47/5/52
f 36/5/54 48/6/52 38/6/53
f 46/6/55 47/5/56 43/5/55
f 47/5/52 46/6/55 48/6/52
f 37/5/57 24/4/58 36/5/58
f 24/4/58 37/5/57 23/4/39
f 23/4/39 37/5/57 39/5/57
f 23/4/39 39/5/57 34/5/39
f 43/5/46 27/4/59 28/4/46
f 27/4/59 43/5/46 47/5/59
f 47/5/59 24/4/58 27/4/59
f 24/4/58 47/5/59 36/5/58
f 51/7/60 50/7/60 49/4/60
f 50/7/60 51/7/60 52/8/60
f 52/8/60 51/7/60 53/8/60
f 52/8/60 53/8/60 31/5/60
f 31/5/60 53/8/60 32/5/60
f 55/7/61 44/5/61 54/8/61
f 44/5/61 55/7/61 56/4/61
f 44/5/61 56/4/61 45/5/61
f 45/5/61 56/4/61 57/7/61
f 45/5/61 57/7/61 58/8/61
f 37/5/62 60/7/62 59/8/62
f 60/7/62 37/5/62 61/4/62
f 61/4/62 37/5/62 39/5/62
f 61/4/62 39/5/62 62/7/62
f 62/7/62 39/5/62 63/8/62
f 66/9/63 65/6/64 64/9/64
f 65/6/64 66/9/63 67/6/65
f 67/6/66 66/9/63 68/9/65
f 68/9/65 66/9/67 69/9/63
f 72/6/68 71/6/68 70/6/68
f 71/6/68 72/6/68 73/6/68
f 71/6/68 73/6/68 74/6/68
f 74/6/68 73/6/68 75/6/68
f 74/6/68 75/6/68 67/6/68
f 67/6/68 75/6/68 65/6/68
f 70/6/69 77/9/70 76/9/69
f 77/9/70 70/6/69 71/6/71
f 77/9/70 71/6/72 78/9/72
f 77/9/73 78/9/71 79/9/70
f 82/9/46 81/4/59 80/4/46
f 81/4/59 82/9/46 83/9/59
f 83/9/59 82/9/46 84/9/74
f 83/9/75 84/9/74 85/9/74
f 75/6/76 84/9/77 82/9/78
f 84/9/77 75/6/76 85/9/77
f 85/9/77 75/6/78 83/9/79
f 83/9/79 75/6/76 73/6/79
f 64/9/64 75/6/80 82/9/76
f 75/6/80 64/9/64 65/6/64
f 86/4/25 82/9/46 80/4/46
f 82/9/46 86/4/25 64/9/81
f 71/6/72 87/9/82 78/9/83
f 87/9/82 71/6/72 74/6/82
f 76/9/39 89/4/58 88/9/58
f 89/4/58 76/9/39 90/4/39
f 78/9/26 92/4/27 91/4/26
f 92/4/27 78/9/26 87/9/27
f 93/4/24 64/9/25 86/4/84
f 64/9/25 93/4/24 66/9/85
f 66/9/85 93/4/24 69/9/85
f 69/9/85 93/4/24 68/9/24
f 91/4/5 89/4/5 90/4/5
f 89/4/5 91/4/5 92/4/5
f 89/4/5 92/4/5 81/4/5
f 81/4/5 92/4/5 93/4/5
f 81/4/5 93/4/5 80/4/5
f 80/4/5 93/4/5 86/4/5
f 72/6/86 76/9/69 88/9/87
f 76/9/69 72/6/86 70/6/69
f 74/6/82 68/9/66 87/9/82
f 68/9/66 74/6/82 67/6/66
f 83/9/59 89/4/58 81/4/59
f 89/4/58 83/9/59 88/9/58
f 73/6/79 88/9/86 83/9/79
f 88/9/86 73/6/79 72/6/88
f 77/9/89 90/4/39 76/9/39
f 90/4/39 77/9/89 91/4/26
f 91/4/26 77/9/89 79/9/89
f 91/4/26 79/9/89 78/9/26
f 87/9/27 93/4/51 92/4/27
f 93/4/24 87/9/27 68/9/24
f 94/10/90 69/9/90 66/9/90
f 69/9/90 94/10/90 95/11/90
f 69/9/90 95/11/90 96/4/90
f 69/9/90 96/4/90 97/11/90
f 69/9/90 97/11/90 98/10/90
f 101/11/91 100/11/91 99/4/91
f 100/11/91 101/11/91 102/10/91
f 102/10/91 101/11/91 103/10/91
f 102/10/91 103/10/91 85/9/91
f 85/9/91 103/10/91 84/9/91
f 79/9/92 104/10/92 77/9/92
f 104/10/92 79/9/92 105/11/92
f 105/11/92 79/9/92 106/4/92
f 106/4/92 79/9/92 107/11/92
f 107/11/92 79/9/92 108/10/92
