# Blender 4.1.1
# www.blender.org
mtllib border-corner.mtl
o border-corner.017
v -0.162941 0.211511 -0.100000
v -0.150000 0.259808 -0.050000
v -0.222444 0.279219 -0.100000
v -0.077556 0.240396 -0.100000
v 0.279219 -0.222444 -0.400000
v 0.259808 -0.150000 -0.350000
v 0.211511 -0.162941 -0.400000
v 0.240396 -0.077556 -0.400000
v -0.500000 -0.300000 -0.300000
v -0.300000 -0.300000 -0.300000
v -0.500000 -0.300000 -0.400000
v -0.300000 -0.300000 -0.400000
v 0.300000 -0.500000 -0.400000
v 0.300000 -0.300000 -0.400000
v -0.300000 -0.500000 -0.400000
v 0.000000 0.219615 -0.400000
v 0.219615 -0.000000 -0.400000
v -0.300000 0.300000 -0.400000
v -0.500000 0.300000 -0.400000
v 0.219615 -0.000000 -0.300000
v 0.000000 0.219615 -0.300000
v -0.500000 -0.300000 0.000000
v -0.500000 0.300000 0.000000
v -0.300000 -0.300000 0.000000
v -0.300000 0.300000 0.000000
v -0.300000 -0.500000 0.000000
v 0.000000 0.219615 0.000000
v 0.219615 -0.000000 0.000000
v 0.300000 -0.500000 0.000000
v 0.300000 -0.300000 0.000000
v 0.300000 -0.500000 -0.300000
v 0.300000 -0.300000 -0.300000
v -0.300000 0.300000 -0.300000
v -0.500000 0.300000 -0.300000
v -0.300000 -0.500000 -0.300000
v -0.200000 -0.500000 -0.300000
v 0.200000 -0.500000 -0.300000
v 0.200000 -0.500000 -0.100000
v -0.200000 -0.500000 -0.100000
v 0.300000 -0.500000 -0.100000
v -0.300000 -0.500000 -0.100000
v -0.500000 -0.300000 -0.100000
v -0.500000 -0.200000 -0.100000
v -0.500000 -0.200000 -0.300000
v -0.500000 0.200000 -0.100000
v -0.500000 0.300000 -0.100000
v -0.500000 0.200000 -0.300000
v 0.300000 -0.300000 -0.100000
v 0.219615 -0.000000 -0.100000
v -0.300000 -0.300000 -0.100000
v 0.000000 0.219615 -0.100000
v -0.300000 0.300000 -0.100000
v -0.051764 0.129958 -0.100000
v -0.182464 0.164979 -0.100000
v -0.051764 0.129958 -0.300000
v -0.313165 0.200000 -0.100000
v -0.313165 0.200000 -0.300000
v 0.129958 -0.051764 -0.300000
v 0.200000 -0.313165 -0.300000
v 0.200000 -0.313165 -0.100000
v 0.129958 -0.051764 -0.100000
v -0.200000 -0.200000 -0.100000
v -0.200000 -0.200000 -0.300000
vn 0.5774 0.5074 -0.6396
vn 0.1830 0.6830 -0.7071
vn -0.2463 0.7282 -0.6396
vn 0.6830 0.1830 -0.7071
vn 0.5074 0.5774 -0.6396
vn 0.7282 -0.2463 -0.6396
vn -0.0000 -1.0000 -0.0000
vn -0.0000 -0.0000 -1.0000
vn 0.5000 0.8660 -0.0000
vn 0.8660 0.5000 -0.0000
vn 0.8660 0.5000 0.0001
vn -0.0000 -0.0000 1.0000
vn -0.0000 -0.0000 -0.0000
vn 0.9914 0.1305 -0.0000
vn 1.0000 -0.0000 -0.0000
vn 0.1305 0.9914 -0.0000
vn -0.0000 1.0000 -0.0000
vn -1.0000 -0.0000 -0.0000
vn 0.5000 0.8661 -0.0000
vn 0.1306 0.9914 -0.0000
vn 0.8661 0.5000 -0.0000
vn 0.9914 0.1306 -0.0000
vn 0.2588 0.9659 -0.0000
vn 0.9659 0.2588 -0.0000
vn 0.5000 0.8661 0.0001
vn 0.5000 0.8660 -0.0001
vt 0.968750 0.075000
vt 0.968750 0.050000
vt 0.968750 0.225000
vt 0.968750 0.200000
vt 0.968750 0.175000
vt 0.968750 0.025000
vt 0.718750 0.175000
vt 0.718750 0.075000
s 0
usemtl colormap.040
f 3/1/1 2/2/2 1/1/2
f 4/1/3 1/1/2 2/2/2
f 7/3/4 6/4/4 5/3/5
f 8/3/6 6/4/4 7/3/4
f 11/3/7 10/5/7 9/5/7
f 10/5/7 11/3/7 12/3/7
f 15/3/8 14/3/8 13/3/8
f 14/3/8 15/3/8 5/3/8
f 5/3/8 15/3/8 7/3/8
f 7/3/8 15/3/8 16/3/8
f 17/3/8 7/3/8 16/3/8
f 7/3/8 17/3/8 8/3/8
f 16/3/8 15/3/8 18/3/8
f 18/3/8 15/3/8 12/3/8
f 18/3/8 12/3/8 11/3/8
f 18/3/8 11/3/8 19/3/8
f 16/3/9 20/5/10 17/3/11
f 20/5/10 16/3/9 21/5/9
f 24/6/12 23/6/12 22/6/12
f 23/6/12 24/6/12 25/6/12
f 26/6/13 25/6/13 24/6/13
f 26/6/12 27/6/12 25/6/12
f 26/6/12 28/6/12 27/6/12
f 29/6/12 28/6/12 26/6/12
f 28/6/12 29/6/12 30/6/12
f 14/3/14 31/5/15 13/3/15
f 31/5/15 14/3/14 32/5/14
f 18/3/16 34/5/17 33/5/16
f 34/5/17 18/3/16 19/3/17
f 15/3/7 36/5/7 35/5/7
f 36/5/7 15/3/7 37/5/7
f 37/5/7 15/3/7 31/5/7
f 31/5/7 15/3/7 13/3/7
f 38/1/7 36/5/7 37/5/7
f 36/5/7 38/1/7 39/1/7
f 40/1/7 39/1/7 38/1/7
f 40/1/7 41/1/7 39/1/7
f 29/6/7 41/1/7 40/1/7
f 41/1/7 29/6/7 26/6/7
f 10/5/18 15/3/18 35/5/18
f 15/3/18 10/5/18 12/3/18
f 23/6/18 42/1/18 22/6/18
f 42/1/18 23/6/18 43/1/18
f 43/1/18 23/6/18 44/5/18
f 44/5/18 23/6/18 45/1/18
f 45/1/18 23/6/18 46/1/18
f 47/5/18 44/5/18 45/1/18
f 19/3/18 44/5/18 47/5/18
f 19/3/18 47/5/18 34/5/18
f 11/3/18 44/5/18 19/3/18
f 44/5/18 11/3/18 9/5/18
f 16/3/19 33/5/20 21/5/19
f 33/5/20 16/3/19 18/3/20
f 49/1/21 30/6/22 48/1/22
f 30/6/22 49/1/21 28/6/21
f 24/6/18 41/1/18 26/6/18
f 41/1/18 24/6/18 50/1/18
f 48/1/14 29/6/15 40/1/15
f 29/6/15 48/1/14 30/6/14
f 51/1/9 28/6/10 49/1/10
f 28/6/10 51/1/9 27/6/9
f 42/1/7 24/6/7 22/6/7
f 24/6/7 42/1/7 50/1/7
f 52/1/16 23/6/17 25/6/16
f 23/6/17 52/1/16 46/1/17
f 2/2/23 51/1/19 4/1/23
f 2/2/23 27/6/19 51/1/19
f 27/6/19 2/2/23 25/6/20
f 2/2/23 52/1/20 25/6/20
f 52/1/20 2/2/23 3/1/23
f 5/3/24 32/5/22 14/3/22
f 32/5/22 5/3/24 6/4/24
f 32/5/22 6/4/24 20/5/21
f 20/5/21 6/4/24 8/3/24
f 20/5/21 8/3/24 17/3/21
f 55/7/19 54/8/23 53/8/19
f 54/8/23 55/7/19 56/8/20
f 56/8/20 55/7/25 57/7/20
f 57/7/12 34/7/12 47/7/12
f 57/7/12 33/7/12 34/7/12
f 55/7/12 33/7/12 57/7/12
f 55/7/12 21/7/12 33/7/12
f 58/7/12 21/7/12 55/7/12
f 58/7/12 20/7/12 21/7/12
f 20/7/12 58/7/12 59/7/12
f 37/7/12 20/7/12 59/7/12
f 31/7/12 20/7/12 37/7/12
f 20/7/12 31/7/12 32/7/12
f 59/7/14 38/8/15 37/7/15
f 38/8/15 59/7/14 60/8/14
f 58/7/21 60/8/22 59/7/22
f 60/8/22 58/7/21 61/8/21
f 57/7/16 45/8/17 56/8/16
f 45/8/17 57/7/16 47/7/17
f 55/7/9 61/8/10 58/7/10
f 61/8/10 55/7/9 53/8/26
f 41/8/8 62/8/8 39/8/8
f 62/8/8 41/8/8 50/8/8
f 62/8/8 50/8/8 43/8/8
f 43/8/8 50/8/8 42/8/8
f 10/7/12 44/7/12 9/7/12
f 10/7/12 63/7/12 44/7/12
f 63/7/12 10/7/12 36/7/12
f 35/7/12 36/7/12 10/7/12
f 62/8/18 36/7/18 39/8/18
f 36/7/18 62/8/18 63/7/18
f 44/7/7 62/8/7 43/8/7
f 62/8/7 44/7/7 63/7/7
f 38/8/8 48/8/8 40/8/8
f 48/8/8 38/8/8 49/8/8
f 49/8/8 38/8/8 60/8/8
f 49/8/8 60/8/8 61/8/8
f 49/8/8 61/8/8 51/8/8
f 51/8/8 61/8/8 53/8/8
f 51/8/8 53/8/8 4/8/8
f 4/8/8 53/8/8 54/8/8
f 4/8/8 54/8/8 1/8/8
f 1/8/8 54/8/8 3/8/8
f 3/8/8 54/8/8 56/8/8
f 3/8/8 56/8/8 52/8/8
f 52/8/8 56/8/8 46/8/8
f 46/8/8 56/8/8 45/8/8
f 3/1/1 2/2/2 1/1/2
f 4/1/3 1/1/2 2/2/2
f 7/3/4 6/4/4 5/3/5
f 8/3/6 6/4/4 7/3/4
f 11/3/7 10/5/7 9/5/7
f 10/5/7 11/3/7 12/3/7
f 15/3/8 14/3/8 13/3/8
f 14/3/8 15/3/8 5/3/8
f 5/3/8 15/3/8 7/3/8
f 7/3/8 15/3/8 16/3/8
f 17/3/8 7/3/8 16/3/8
f 7/3/8 17/3/8 8/3/8
f 16/3/8 15/3/8 18/3/8
f 18/3/8 15/3/8 12/3/8
f 18/3/8 12/3/8 11/3/8
f 18/3/8 11/3/8 19/3/8
f 16/3/9 20/5/10 17/3/11
f 20/5/10 16/3/9 21/5/9
f 24/6/12 23/6/12 22/6/12
f 23/6/12 24/6/12 25/6/12
f 26/6/13 25/6/13 24/6/13
f 26/6/12 27/6/12 25/6/12
f 26/6/12 28/6/12 27/6/12
f 29/6/12 28/6/12 26/6/12
f 28/6/12 29/6/12 30/6/12
f 14/3/14 31/5/15 13/3/15
f 31/5/15 14/3/14 32/5/14
f 18/3/16 34/5/17 33/5/16
f 34/5/17 18/3/16 19/3/17
f 15/3/7 36/5/7 35/5/7
f 36/5/7 15/3/7 37/5/7
f 37/5/7 15/3/7 31/5/7
f 31/5/7 15/3/7 13/3/7
f 38/1/7 36/5/7 37/5/7
f 36/5/7 38/1/7 39/1/7
f 40/1/7 39/1/7 38/1/7
f 40/1/7 41/1/7 39/1/7
f 29/6/7 41/1/7 40/1/7
f 41/1/7 29/6/7 26/6/7
f 10/5/18 15/3/18 35/5/18
f 15/3/18 10/5/18 12/3/18
f 23/6/18 42/1/18 22/6/18
f 42/1/18 23/6/18 43/1/18
f 43/1/18 23/6/18 44/5/18
f 44/5/18 23/6/18 45/1/18
f 45/1/18 23/6/18 46/1/18
f 47/5/18 44/5/18 45/1/18
f 19/3/18 44/5/18 47/5/18
f 19/3/18 47/5/18 34/5/18
f 11/3/18 44/5/18 19/3/18
f 44/5/18 11/3/18 9/5/18
f 16/3/19 33/5/20 21/5/19
f 33/5/20 16/3/19 18/3/20
f 49/1/21 30/6/22 48/1/22
f 30/6/22 49/1/21 28/6/21
f 24/6/18 41/1/18 26/6/18
f 41/1/18 24/6/18 50/1/18
f 48/1/14 29/6/15 40/1/15
f 29/6/15 48/1/14 30/6/14
f 51/1/9 28/6/10 49/1/10
f 28/6/10 51/1/9 27/6/9
f 42/1/7 24/6/7 22/6/7
f 24/6/7 42/1/7 50/1/7
f 52/1/16 23/6/17 25/6/16
f 23/6/17 52/1/16 46/1/17
f 2/2/23 51/1/19 4/1/23
f 2/2/23 27/6/19 51/1/19
f 27/6/19 2/2/23 25/6/20
f 2/2/23 52/1/20 25/6/20
f 52/1/20 2/2/23 3/1/23
f 5/3/24 32/5/22 14/3/22
f 32/5/22 5/3/24 6/4/24
f 32/5/22 6/4/24 20/5/21
f 20/5/21 6/4/24 8/3/24
f 20/5/21 8/3/24 17/3/21
f 55/7/19 54/8/23 53/8/19
f 54/8/23 55/7/19 56/8/20
f 56/8/20 55/7/25 57/7/20
f 57/7/12 34/7/12 47/7/12
f 57/7/12 33/7/12 34/7/12
f 55/7/12 33/7/12 57/7/12
f 55/7/12 21/7/12 33/7/12
f 58/7/12 21/7/12 55/7/12
f 58/7/12 20/7/12 21/7/12
f 20/7/12 58/7/12 59/7/12
f 37/7/12 20/7/12 59/7/12
f 31/7/12 20/7/12 37/7/12
f 20/7/12 31/7/12 32/7/12
f 59/7/14 38/8/15 37/7/15
f 38/8/15 59/7/14 60/8/14
f 58/7/21 60/8/22 59/7/22
f 60/8/22 58/7/21 61/8/21
f 57/7/16 45/8/17 56/8/16
f 45/8/17 57/7/16 47/7/17
f 55/7/9 61/8/10 58/7/10
f 61/8/10 55/7/9 53/8/26
f 41/8/8 62/8/8 39/8/8
f 62/8/8 41/8/8 50/8/8
f 62/8/8 50/8/8 43/8/8
f 43/8/8 50/8/8 42/8/8
f 10/7/12 44/7/12 9/7/12
f 10/7/12 63/7/12 44/7/12
f 63/7/12 10/7/12 36/7/12
f 35/7/12 36/7/12 10/7/12
f 62/8/18 36/7/18 39/8/18
f 36/7/18 62/8/18 63/7/18
f 44/7/7 62/8/7 43/8/7
f 62/8/7 44/7/7 63/7/7
f 38/8/8 48/8/8 40/8/8
f 48/8/8 38/8/8 49/8/8
f 49/8/8 38/8/8 60/8/8
f 49/8/8 60/8/8 61/8/8
f 49/8/8 61/8/8 51/8/8
f 51/8/8 61/8/8 53/8/8
f 51/8/8 53/8/8 4/8/8
f 4/8/8 53/8/8 54/8/8
f 4/8/8 54/8/8 1/8/8
f 1/8/8 54/8/8 3/8/8
f 3/8/8 54/8/8 56/8/8
f 3/8/8 56/8/8 52/8/8
f 52/8/8 56/8/8 46/8/8
f 46/8/8 56/8/8 45/8/8
