# Blender 4.1.1
# www.blender.org
mtllib wall-corner.mtl
o floor
v -5.588080 -0.000000 -0.500000
v -5.588080 0.000000 6.588080
v -12.676161 -0.000000 -0.500000
v -12.676161 0.000000 6.588080
vn -0.0000 1.0000 -0.0000
vt 0.968750 0.125000
s 0
usemtl colormap
f 3/1/1 2/1/1 1/1/1
f 2/1/1 3/1/1 4/1/1
f 3/1/1 2/1/1 1/1/1
f 2/1/1 3/1/1 4/1/1
o floor.001
v -5.588080 -0.000000 -7.588081
v -5.588080 0.000000 -0.500000
v -12.676161 -0.000000 -7.588081
v -12.676161 0.000000 -0.500000
vn -0.0000 1.0000 -0.0000
vt 0.968750 0.125000
s 0
usemtl colormap
f 7/2/2 6/2/2 5/2/2
f 6/2/2 7/2/2 8/2/2
f 7/2/2 6/2/2 5/2/2
f 6/2/2 7/2/2 8/2/2
o floor.002
v 1.500000 -0.000000 -0.500000
v 1.500000 0.000000 6.588080
v -5.588080 -0.000000 -0.500000
v -5.588080 0.000000 6.588080
vn -0.0000 1.0000 -0.0000
vt 0.968750 0.125000
s 0
usemtl colormap
f 11/3/3 10/3/3 9/3/3
f 10/3/3 11/3/3 12/3/3
f 11/3/3 10/3/3 9/3/3
f 10/3/3 11/3/3 12/3/3
o floor.003
v 1.500000 -0.000000 -7.588081
v 1.500000 0.000000 -0.500000
v -5.588080 -0.000000 -7.588081
v -5.588080 0.000000 -0.500000
vn -0.0000 1.0000 -0.0000
vt 0.968750 0.125000
s 0
usemtl colormap
f 15/4/4 14/4/4 13/4/4
f 14/4/4 15/4/4 16/4/4
f 15/4/4 14/4/4 13/4/4
f 14/4/4 15/4/4 16/4/4
o floor.004
v 8.588081 -0.000000 -0.500000
v 8.588081 0.000000 6.588080
v 1.500000 -0.000000 -0.500000
v 1.500000 0.000000 6.588080
vn -0.0000 1.0000 -0.0000
vt 0.968750 0.125000
s 0
usemtl colormap
f 19/5/5 18/5/5 17/5/5
f 18/5/5 19/5/5 20/5/5
f 19/5/5 18/5/5 17/5/5
f 18/5/5 19/5/5 20/5/5
o floor.005
v 8.588081 -0.000000 -7.588081
v 8.588081 0.000000 -0.500000
v 1.500000 -0.000000 -7.588081
v 1.500000 0.000000 -0.500000
vn -0.0000 1.0000 -0.0000
vt 0.968750 0.125000
s 0
usemtl colormap
f 23/6/6 22/6/6 21/6/6
f 22/6/6 23/6/6 24/6/6
f 23/6/6 22/6/6 21/6/6
f 22/6/6 23/6/6 24/6/6
o floor.006
v 15.676161 -0.000000 -0.500000
v 15.676161 0.000000 6.588080
v 8.588079 -0.000000 -0.500000
v 8.588079 0.000000 6.588080
vn -0.0000 1.0000 -0.0000
vt 0.968750 0.125000
s 0
usemtl colormap
f 27/7/7 26/7/7 25/7/7
f 26/7/7 27/7/7 28/7/7
f 27/7/7 26/7/7 25/7/7
f 26/7/7 27/7/7 28/7/7
o floor.007
v 15.676161 -0.000000 -7.588081
v 15.676161 0.000000 -0.500000
v 8.588079 -0.000000 -7.588081
v 8.588079 0.000000 -0.500000
vn -0.0000 1.0000 -0.0000
vt 0.968750 0.125000
s 0
usemtl colormap
f 31/8/8 30/8/8 29/8/8
f 30/8/8 31/8/8 32/8/8
f 31/8/8 30/8/8 29/8/8
f 30/8/8 31/8/8 32/8/8
o floor.008
v 15.676161 -0.000000 -21.751532
v 15.676161 0.000000 -14.663450
v 8.588079 -0.000000 -21.751532
v 8.588079 0.000000 -14.663450
vn -0.0000 1.0000 -0.0000
vt 0.968750 0.125000
s 0
usemtl colormap.001
f 35/9/9 34/9/9 33/9/9
f 34/9/9 35/9/9 36/9/9
f 35/9/9 34/9/9 33/9/9
f 34/9/9 35/9/9 36/9/9
o floor.009
v 15.676161 -0.000000 -14.663450
v 15.676161 0.000000 -7.575369
v 8.588079 -0.000000 -14.663450
v 8.588079 0.000000 -7.575369
vn -0.0000 1.0000 -0.0000
vt 0.968750 0.125000
s 0
usemtl colormap.001
f 39/10/10 38/10/10 37/10/10
f 38/10/10 39/10/10 40/10/10
f 39/10/10 38/10/10 37/10/10
f 38/10/10 39/10/10 40/10/10
o floor.010
v 8.588081 -0.000000 -21.751532
v 8.588081 0.000000 -14.663450
v 1.500000 -0.000000 -21.751532
v 1.500000 0.000000 -14.663450
vn -0.0000 1.0000 -0.0000
vt 0.968750 0.125000
s 0
usemtl colormap.001
f 43/11/11 42/11/11 41/11/11
f 42/11/11 43/11/11 44/11/11
f 43/11/11 42/11/11 41/11/11
f 42/11/11 43/11/11 44/11/11
o floor.011
v 8.588081 -0.000000 -14.663450
v 8.588081 0.000000 -7.575369
v 1.500000 -0.000000 -14.663450
v 1.500000 0.000000 -7.575369
vn -0.0000 1.0000 -0.0000
vt 0.968750 0.125000
s 0
usemtl colormap.001
f 47/12/12 46/12/12 45/12/12
f 46/12/12 47/12/12 48/12/12
f 47/12/12 46/12/12 45/12/12
f 46/12/12 47/12/12 48/12/12
o floor.012
v 1.500000 -0.000000 -21.751532
v 1.500000 0.000000 -14.663450
v -5.588080 -0.000000 -21.751532
v -5.588080 0.000000 -14.663450
vn -0.0000 1.0000 -0.0000
vt 0.968750 0.125000
s 0
usemtl colormap.001
f 51/13/13 50/13/13 49/13/13
f 50/13/13 51/13/13 52/13/13
f 51/13/13 50/13/13 49/13/13
f 50/13/13 51/13/13 52/13/13
o floor.013
v 1.500000 -0.000000 -14.663450
v 1.500000 0.000000 -7.575369
v -5.588080 -0.000000 -14.663450
v -5.588080 0.000000 -7.575369
vn -0.0000 1.0000 -0.0000
vt 0.968750 0.125000
s 0
usemtl colormap.001
f 55/14/14 54/14/14 53/14/14
f 54/14/14 55/14/14 56/14/14
f 55/14/14 54/14/14 53/14/14
f 54/14/14 55/14/14 56/14/14
o floor.014
v -5.588080 -0.000000 -21.751532
v -5.588080 0.000000 -14.663450
v -12.676161 -0.000000 -21.751532
v -12.676161 0.000000 -14.663450
vn -0.0000 1.0000 -0.0000
vt 0.968750 0.125000
s 0
usemtl colormap.001
f 59/15/15 58/15/15 57/15/15
f 58/15/15 59/15/15 60/15/15
f 59/15/15 58/15/15 57/15/15
f 58/15/15 59/15/15 60/15/15
o floor.015
v -5.588080 -0.000000 -14.663450
v -5.588080 0.000000 -7.575369
v -12.676161 -0.000000 -14.663450
v -12.676161 0.000000 -7.575369
vn -0.0000 1.0000 -0.0000
vt 0.968750 0.125000
s 0
usemtl colormap.001
f 63/16/16 62/16/16 61/16/16
f 62/16/16 63/16/16 64/16/16
f 63/16/16 62/16/16 61/16/16
f 62/16/16 63/16/16 64/16/16
