# Blender 4.1.1
# www.blender.org
mtllib wall.001.mtl
o wall.028
v 0.500000 -0.250000 -0.750000
v 0.500000 -0.250000 -0.150000
v 0.500000 0.250000 -0.750000
v 0.500000 0.250000 -0.150000
v -0.500000 -0.250000 -0.150000
v -0.500000 -0.250000 -0.750000
v -0.500000 0.250000 -0.150000
v -0.500000 0.250000 -0.750000
v -0.370205 -0.250000 -0.257412
v -0.370205 -0.250000 -0.357162
v -0.196955 -0.250000 -0.257412
v -0.196955 -0.250000 -0.357162
v 0.413687 -0.250000 -0.419916
v 0.240437 -0.250000 -0.419916
v 0.240437 -0.250000 -0.519666
v 0.413687 -0.250000 -0.519666
v 0.111775 -0.250000 -0.571202
v 0.285025 -0.250000 -0.571202
v 0.111775 -0.250000 -0.670952
v 0.285025 -0.250000 -0.670952
v 0.393178 0.250000 -0.657144
v 0.393178 0.250000 -0.557394
v 0.219928 0.250000 -0.657144
v 0.219928 0.250000 -0.557394
v -0.243447 0.250000 -0.257394
v -0.416697 0.250000 -0.257394
v -0.243447 0.250000 -0.357144
v -0.416697 0.250000 -0.357144
v -0.316697 0.250000 -0.507019
v -0.316697 0.250000 -0.407269
v -0.143447 0.250000 -0.507019
v -0.143447 0.250000 -0.407269
v 0.500000 -0.300000 -0.000000
v 0.500000 0.300000 -0.000000
v 0.500000 -0.300000 -0.080866
v 0.500000 -0.282322 -0.107322
v 0.500000 -0.264645 -0.114645
v 0.500000 0.264645 -0.114645
v 0.500000 0.282322 -0.107322
v 0.500000 0.300000 -0.080866
v -0.500000 0.300000 -0.000000
v -0.500000 0.300000 -0.080866
v -0.500000 0.282322 -0.107322
v -0.500000 0.264645 -0.114645
v -0.500000 -0.300000 -0.000000
v -0.500000 -0.300000 -0.080866
v -0.500000 -0.282322 -0.107322
v -0.500000 -0.264645 -0.114645
v -0.143447 0.250000 -0.407269
v -0.316697 0.250000 -0.407269
v -0.143447 0.276250 -0.407269
v -0.316697 0.276250 -0.407269
v -0.316697 0.250000 -0.507019
v -0.316697 0.276250 -0.507019
v -0.143447 0.276250 -0.507019
v -0.143447 0.250000 -0.507019
v -0.243447 0.250000 -0.257394
v -0.416697 0.250000 -0.257394
v -0.243447 0.276250 -0.257394
v -0.416697 0.276250 -0.257394
v -0.416697 0.250000 -0.357144
v -0.416697 0.276250 -0.357144
v -0.243447 0.276250 -0.357144
v -0.243447 0.250000 -0.357144
v 0.393178 0.250000 -0.557394
v 0.219928 0.250000 -0.557394
v 0.393178 0.276250 -0.557394
v 0.219928 0.276250 -0.557394
v 0.219928 0.250000 -0.657144
v 0.219928 0.276250 -0.657144
v 0.393178 0.276250 -0.657144
v -0.196955 -0.250000 -0.257412
v -0.370205 -0.276250 -0.257412
v -0.196955 -0.276250 -0.257412
v -0.196955 -0.250000 -0.357162
v -0.196955 -0.276250 -0.357162
v -0.370205 -0.276250 -0.357162
v 0.240437 -0.250000 -0.419916
v 0.240437 -0.276250 -0.419916
v 0.413687 -0.276250 -0.419916
v 0.413687 -0.276250 -0.519666
v 0.240437 -0.276250 -0.519666
v 0.240437 -0.250000 -0.519666
v 0.111775 -0.276250 -0.571202
v 0.285025 -0.276250 -0.571202
v 0.285025 -0.250000 -0.670952
v 0.285025 -0.276250 -0.670952
v 0.111775 -0.276250 -0.670952
v 0.111775 -0.250000 -0.670952
v -0.200000 0.200000 -1.000000
v -0.100000 0.300000 -1.000000
v -0.200000 0.300000 -0.900000
v -0.300000 0.300000 -1.000000
v -0.500000 0.264645 -0.785355
v 0.500000 0.264645 -0.785355
v 0.500000 0.300000 -0.800000
v -0.500000 0.300000 -0.800000
v -0.500000 -0.300000 -0.800000
v 0.500000 -0.300000 -0.800000
v -0.500000 -0.300000 -1.000000
v 0.500000 -0.300000 -1.000000
v 0.500000 -0.264645 -0.785355
v -0.500000 -0.264645 -0.785355
v -0.500000 0.300000 -1.000000
v 0.500000 0.300000 -1.000000
vn 1.0000 -0.0000 -0.0000
vn -1.0000 -0.0000 -0.0000
vn -0.0000 -1.0000 -0.0000
vn -0.0000 1.0000 -0.0000
vn -0.0000 0.9570 -0.2902
vn -0.0000 0.6344 -0.7730
vn -0.0000 0.9569 -0.2903
vn 0.0001 0.6344 -0.7730
vn -0.0000 0.7071 -0.7071
vn -0.0000 0.9239 -0.3827
vn -0.0000 -0.0000 1.0000
vn -0.0000 -0.9570 -0.2902
vn -0.0000 -0.6344 -0.7730
vn -0.0000 -0.9569 -0.2903
vn -0.0001 -0.6344 -0.7730
vn -0.0000 -0.7071 -0.7071
vn -0.0000 -0.9239 -0.3827
vn 0.5773 0.5774 0.5774
vn -0.7071 -0.0000 0.7071
vn 0.7071 -0.0000 0.7071
vn -0.7071 -0.0001 0.7071
vn 0.5774 0.5773 0.5774
vn -0.5774 0.5773 0.5774
vn -0.7071 -0.0000 -0.7071
vn -0.5774 0.5774 0.5773
vn -0.5774 0.5773 -0.5774
vn 0.5774 0.5774 0.5773
vn -0.5774 0.5774 -0.5773
vn -0.5773 0.5774 0.5774
vn 0.5773 0.5774 -0.5774
vn 0.7071 -0.0000 -0.7071
vn 0.5774 0.5774 -0.5773
vn -0.5773 0.5774 -0.5774
vn -0.5773 -0.5774 0.5774
vn 0.7071 0.0001 0.7071
vn -0.5774 -0.5773 0.5774
vn 0.5774 -0.5773 0.5774
vn 0.5774 -0.5774 0.5773
vn 0.5774 -0.5773 -0.5774
vn -0.5774 -0.5774 0.5773
vn 0.5774 -0.5774 -0.5773
vn 0.5773 -0.5774 0.5774
vn -0.5773 -0.5774 -0.5774
vn -0.5774 -0.5774 -0.5773
vn 0.5773 -0.5774 -0.5774
vn -0.0000 -0.0000 -1.0000
vn -0.5774 0.5774 -0.5774
vn 0.5774 0.5774 -0.5774
vn -0.0000 0.9239 0.3827
vn -0.0000 0.7071 0.7071
vn -0.0000 0.3827 0.9239
vn -0.0000 -0.7071 0.7071
vn -0.0000 -0.3827 0.9239
vn -0.0000 -0.9239 0.3827
vt 0.343750 0.225000
vt 0.343750 0.065000
vt 0.343750 0.093643
vt 0.343750 0.120243
vt 0.343750 0.136978
vt 0.343750 0.163578
vt 0.343750 0.177321
vt 0.343750 0.203921
vt 0.343750 0.173638
vt 0.343750 0.200238
vt 0.343750 0.093638
vt 0.343750 0.120238
vt 0.343750 0.160205
vt 0.343750 0.133605
vt 0.343750 0.178911
vt 0.343750 0.125000
vt 0.343750 0.196548
vt 0.343750 0.201430
vt 0.343750 0.175000
vt 0.343750 0.075000
vt 0.593750 0.225000
vt 0.468750 0.135000
vt 0.468750 0.175000
vt 0.468750 0.075000
vt 0.468750 0.089142
vt 0.468750 0.095000
s 0
usemtl colormap.004
f 3/1/1 2/2/1 1/1/1
f 2/2/1 3/1/1 4/2/1
f 7/2/2 6/1/2 5/2/2
f 6/1/2 7/2/2 8/1/2
f 5/2/3 9/3/3 2/2/3
f 9/3/3 5/2/3 6/1/3
f 9/3/3 6/1/3 10/4/3
f 11/3/3 2/2/3 9/3/3
f 10/4/3 6/1/3 12/4/3
f 13/5/3 2/2/3 11/3/3
f 13/5/3 11/3/3 12/4/3
f 2/2/3 13/5/3 1/1/3
f 13/5/3 12/4/3 14/5/3
f 12/4/3 6/1/3 14/5/3
f 14/5/3 6/1/3 15/6/3
f 1/1/3 13/5/3 16/6/3
f 15/6/3 17/7/3 16/6/3
f 15/6/3 6/1/3 17/7/3
f 18/7/3 16/6/3 17/7/3
f 1/1/3 16/6/3 18/7/3
f 17/7/3 6/1/3 19/8/3
f 1/1/3 18/7/3 20/8/3
f 19/8/3 6/1/3 20/8/3
f 1/1/3 20/8/3 6/1/3
f 22/9/4 3/1/4 21/10/4
f 21/10/4 3/1/4 23/10/4
f 23/10/4 3/1/4 8/1/4
f 22/9/4 4/2/4 3/1/4
f 8/1/4 24/9/4 23/10/4
f 25/11/4 4/2/4 22/9/4
f 4/2/4 25/11/4 7/2/4
f 26/11/4 7/2/4 25/11/4
f 7/2/4 26/11/4 8/1/4
f 25/11/4 22/9/4 27/12/4
f 8/1/4 26/11/4 28/12/4
f 8/1/4 29/13/4 24/9/4
f 24/9/4 29/13/4 22/9/4
f 8/1/4 30/14/4 29/13/4
f 8/1/4 28/12/4 30/14/4
f 31/13/4 22/9/4 29/13/4
f 30/14/4 28/12/4 32/14/4
f 27/12/4 32/14/4 28/12/4
f 27/12/4 22/9/4 32/14/4
f 32/14/4 22/9/4 31/13/4
f 35/15/1 34/16/1 33/16/1
f 34/16/1 35/15/1 36/17/1
f 34/16/1 36/17/1 37/18/1
f 34/16/1 37/18/1 2/1/1
f 34/16/1 2/1/1 4/1/1
f 34/16/1 4/1/1 38/18/1
f 34/16/1 38/18/1 39/17/1
f 34/16/1 39/17/1 40/15/1
f 40/15/5 41/16/4 34/16/4
f 41/16/4 40/15/5 42/15/5
f 39/17/6 42/15/7 40/15/7
f 42/15/7 39/17/6 43/17/8
f 44/18/9 39/17/6 38/18/9
f 39/17/6 44/18/9 43/17/6
f 4/1/10 44/18/9 38/18/9
f 44/18/9 4/1/10 7/1/10
f 34/16/11 45/16/11 33/16/11
f 45/16/11 34/16/11 41/16/11
f 46/15/12 33/16/3 45/16/3
f 33/16/3 46/15/12 35/15/12
f 47/17/13 35/15/14 46/15/14
f 35/15/14 47/17/13 36/17/15
f 41/16/2 46/15/2 45/16/2
f 46/15/2 41/16/2 47/17/2
f 47/17/2 41/16/2 48/18/2
f 48/18/2 41/16/2 5/1/2
f 5/1/2 41/16/2 7/1/2
f 7/1/2 41/16/2 44/18/2
f 44/18/2 41/16/2 43/17/2
f 43/17/2 41/16/2 42/15/2
f 47/17/13 37/18/16 36/17/13
f 37/18/16 47/17/13 48/18/16
f 5/1/17 37/18/16 48/18/16
f 37/18/16 5/1/17 2/1/17
f 51/19/18 50/20/19 49/20/20
f 50/20/21 51/19/22 52/19/23
f 52/19/23 53/20/24 50/20/19
f 53/20/24 52/19/25 54/19/26
f 51/19/27 54/19/28 52/19/29
f 54/19/28 51/19/27 55/19/30
f 56/20/31 51/19/22 49/20/20
f 51/19/27 56/20/31 55/19/32
f 53/20/24 55/19/30 56/20/31
f 55/19/30 53/20/24 54/19/33
f 59/19/18 58/20/19 57/20/20
f 58/20/21 59/19/22 60/19/23
f 60/19/23 61/20/24 58/20/19
f 61/20/24 60/19/25 62/19/26
f 59/19/27 62/19/28 60/19/29
f 62/19/28 59/19/27 63/19/30
f 64/20/31 59/19/22 57/20/20
f 59/19/27 64/20/31 63/19/32
f 61/20/24 63/19/30 64/20/31
f 63/19/30 61/20/24 62/19/33
f 67/19/18 66/20/19 65/20/20
f 66/20/21 67/19/22 68/19/23
f 68/19/23 69/20/24 66/20/19
f 69/20/24 68/19/25 70/19/26
f 67/19/27 70/19/28 68/19/29
f 70/19/28 67/19/27 71/19/30
f 21/20/31 67/19/22 65/20/20
f 67/19/27 21/20/31 71/19/32
f 69/20/24 71/19/30 21/20/31
f 71/19/30 69/20/24 70/19/33
f 73/19/34 72/20/20 9/20/19
f 72/20/35 73/19/36 74/19/37
f 74/19/37 75/20/31 72/20/20
f 75/20/31 74/19/38 76/19/39
f 73/19/40 76/19/41 74/19/42
f 76/19/41 73/19/40 77/19/43
f 10/20/24 73/19/36 9/20/19
f 73/19/40 10/20/24 77/19/44
f 75/20/31 77/19/43 10/20/24
f 77/19/43 75/20/31 76/19/45
f 79/19/34 13/20/20 78/20/19
f 13/20/35 79/19/36 80/19/37
f 80/19/37 16/20/31 13/20/20
f 16/20/31 80/19/38 81/19/39
f 79/19/40 81/19/41 80/19/42
f 81/19/41 79/19/40 82/19/43
f 83/20/24 79/19/36 78/20/19
f 79/19/40 83/20/24 82/19/44
f 16/20/31 82/19/43 83/20/24
f 82/19/43 16/20/31 81/19/45
f 84/19/34 18/20/20 17/20/19
f 18/20/35 84/19/36 85/19/37
f 85/19/37 86/20/31 18/20/20
f 86/20/31 85/19/38 87/19/39
f 84/19/40 87/19/41 85/19/42
f 87/19/41 84/19/40 88/19/43
f 89/20/24 84/19/36 17/20/19
f 84/19/40 89/20/24 88/19/44
f 86/20/31 88/19/43 89/20/24
f 88/19/43 86/20/31 87/19/45
f 6/21/46 3/21/46 1/21/46
f 3/21/46 6/21/46 8/21/46
f 92/22/9 91/23/47 90/23/9
f 90/23/9 93/23/48 92/22/9
f 3/24/49 94/25/50 8/24/49
f 94/25/50 3/24/49 95/25/50
f 97/26/51 95/25/50 96/26/51
f 95/25/50 97/26/51 94/25/50
f 100/23/3 99/26/3 98/26/3
f 99/26/3 100/23/3 101/23/3
f 103/25/52 99/26/53 102/25/52
f 99/26/53 103/25/52 98/26/53
f 103/25/52 1/24/54 6/24/54
f 1/24/54 103/25/52 102/25/52
f 103/25/2 100/23/2 98/26/2
f 100/23/2 103/25/2 104/23/2
f 104/23/2 103/25/2 6/24/2
f 104/23/2 6/24/2 8/24/2
f 104/23/2 8/24/2 94/25/2
f 104/23/2 94/25/2 97/26/2
f 105/23/1 99/26/1 101/23/1
f 99/26/1 105/23/1 102/25/1
f 102/25/1 105/23/1 1/24/1
f 1/24/1 105/23/1 3/24/1
f 3/24/1 105/23/1 95/25/1
f 95/25/1 105/23/1 96/26/1
f 100/23/46 105/23/46 101/23/46
f 105/23/46 100/23/46 91/23/46
f 91/23/46 100/23/46 90/23/46
f 90/23/46 100/23/46 93/23/46
f 93/23/46 100/23/46 104/23/46
f 92/22/4 105/23/4 91/23/4
f 105/23/4 92/22/4 96/26/4
f 92/22/4 97/26/4 96/26/4
f 97/26/4 92/22/4 104/23/4
f 104/23/4 92/22/4 93/23/4
f 3/1/1 2/2/1 1/1/1
f 2/2/1 3/1/1 4/2/1
f 7/2/2 6/1/2 5/2/2
f 6/1/2 7/2/2 8/1/2
f 5/2/3 9/3/3 2/2/3
f 9/3/3 5/2/3 6/1/3
f 9/3/3 6/1/3 10/4/3
f 11/3/3 2/2/3 9/3/3
f 10/4/3 6/1/3 12/4/3
f 13/5/3 2/2/3 11/3/3
f 13/5/3 11/3/3 12/4/3
f 2/2/3 13/5/3 1/1/3
f 13/5/3 12/4/3 14/5/3
f 12/4/3 6/1/3 14/5/3
f 14/5/3 6/1/3 15/6/3
f 1/1/3 13/5/3 16/6/3
f 15/6/3 17/7/3 16/6/3
f 15/6/3 6/1/3 17/7/3
f 18/7/3 16/6/3 17/7/3
f 1/1/3 16/6/3 18/7/3
f 17/7/3 6/1/3 19/8/3
f 1/1/3 18/7/3 20/8/3
f 19/8/3 6/1/3 20/8/3
f 1/1/3 20/8/3 6/1/3
f 22/9/4 3/1/4 21/10/4
f 21/10/4 3/1/4 23/10/4
f 23/10/4 3/1/4 8/1/4
f 22/9/4 4/2/4 3/1/4
f 8/1/4 24/9/4 23/10/4
f 25/11/4 4/2/4 22/9/4
f 4/2/4 25/11/4 7/2/4
f 26/11/4 7/2/4 25/11/4
f 7/2/4 26/11/4 8/1/4
f 25/11/4 22/9/4 27/12/4
f 8/1/4 26/11/4 28/12/4
f 8/1/4 29/13/4 24/9/4
f 24/9/4 29/13/4 22/9/4
f 8/1/4 30/14/4 29/13/4
f 8/1/4 28/12/4 30/14/4
f 31/13/4 22/9/4 29/13/4
f 30/14/4 28/12/4 32/14/4
f 27/12/4 32/14/4 28/12/4
f 27/12/4 22/9/4 32/14/4
f 32/14/4 22/9/4 31/13/4
f 35/15/1 34/16/1 33/16/1
f 34/16/1 35/15/1 36/17/1
f 34/16/1 36/17/1 37/18/1
f 34/16/1 37/18/1 2/1/1
f 34/16/1 2/1/1 4/1/1
f 34/16/1 4/1/1 38/18/1
f 34/16/1 38/18/1 39/17/1
f 34/16/1 39/17/1 40/15/1
f 40/15/5 41/16/4 34/16/4
f 41/16/4 40/15/5 42/15/5
f 39/17/6 42/15/7 40/15/7
f 42/15/7 39/17/6 43/17/8
f 44/18/9 39/17/6 38/18/9
f 39/17/6 44/18/9 43/17/6
f 4/1/10 44/18/9 38/18/9
f 44/18/9 4/1/10 7/1/10
f 34/16/11 45/16/11 33/16/11
f 45/16/11 34/16/11 41/16/11
f 46/15/12 33/16/3 45/16/3
f 33/16/3 46/15/12 35/15/12
f 47/17/13 35/15/14 46/15/14
f 35/15/14 47/17/13 36/17/15
f 41/16/2 46/15/2 45/16/2
f 46/15/2 41/16/2 47/17/2
f 47/17/2 41/16/2 48/18/2
f 48/18/2 41/16/2 5/1/2
f 5/1/2 41/16/2 7/1/2
f 7/1/2 41/16/2 44/18/2
f 44/18/2 41/16/2 43/17/2
f 43/17/2 41/16/2 42/15/2
f 47/17/13 37/18/16 36/17/13
f 37/18/16 47/17/13 48/18/16
f 5/1/17 37/18/16 48/18/16
f 37/18/16 5/1/17 2/1/17
f 51/19/18 50/20/19 49/20/20
f 50/20/21 51/19/22 52/19/23
f 52/19/23 53/20/24 50/20/19
f 53/20/24 52/19/25 54/19/26
f 51/19/27 54/19/28 52/19/29
f 54/19/28 51/19/27 55/19/30
f 56/20/31 51/19/22 49/20/20
f 51/19/27 56/20/31 55/19/32
f 53/20/24 55/19/30 56/20/31
f 55/19/30 53/20/24 54/19/33
f 59/19/18 58/20/19 57/20/20
f 58/20/21 59/19/22 60/19/23
f 60/19/23 61/20/24 58/20/19
f 61/20/24 60/19/25 62/19/26
f 59/19/27 62/19/28 60/19/29
f 62/19/28 59/19/27 63/19/30
f 64/20/31 59/19/22 57/20/20
f 59/19/27 64/20/31 63/19/32
f 61/20/24 63/19/30 64/20/31
f 63/19/30 61/20/24 62/19/33
f 67/19/18 66/20/19 65/20/20
f 66/20/21 67/19/22 68/19/23
f 68/19/23 69/20/24 66/20/19
f 69/20/24 68/19/25 70/19/26
f 67/19/27 70/19/28 68/19/29
f 70/19/28 67/19/27 71/19/30
f 21/20/31 67/19/22 65/20/20
f 67/19/27 21/20/31 71/19/32
f 69/20/24 71/19/30 21/20/31
f 71/19/30 69/20/24 70/19/33
f 73/19/34 72/20/20 9/20/19
f 72/20/35 73/19/36 74/19/37
f 74/19/37 75/20/31 72/20/20
f 75/20/31 74/19/38 76/19/39
f 73/19/40 76/19/41 74/19/42
f 76/19/41 73/19/40 77/19/43
f 10/20/24 73/19/36 9/20/19
f 73/19/40 10/20/24 77/19/44
f 75/20/31 77/19/43 10/20/24
f 77/19/43 75/20/31 76/19/45
f 79/19/34 13/20/20 78/20/19
f 13/20/35 79/19/36 80/19/37
f 80/19/37 16/20/31 13/20/20
f 16/20/31 80/19/38 81/19/39
f 79/19/40 81/19/41 80/19/42
f 81/19/41 79/19/40 82/19/43
f 83/20/24 79/19/36 78/20/19
f 79/19/40 83/20/24 82/19/44
f 16/20/31 82/19/43 83/20/24
f 82/19/43 16/20/31 81/19/45
f 84/19/34 18/20/20 17/20/19
f 18/20/35 84/19/36 85/19/37
f 85/19/37 86/20/31 18/20/20
f 86/20/31 85/19/38 87/19/39
f 84/19/40 87/19/41 85/19/42
f 87/19/41 84/19/40 88/19/43
f 89/20/24 84/19/36 17/20/19
f 84/19/40 89/20/24 88/19/44
f 86/20/31 88/19/43 89/20/24
f 88/19/43 86/20/31 87/19/45
f 6/21/46 3/21/46 1/21/46
f 3/21/46 6/21/46 8/21/46
f 92/22/9 91/23/47 90/23/9
f 90/23/9 93/23/48 92/22/9
f 3/24/49 94/25/50 8/24/49
f 94/25/50 3/24/49 95/25/50
f 97/26/51 95/25/50 96/26/51
f 95/25/50 97/26/51 94/25/50
f 100/23/3 99/26/3 98/26/3
f 99/26/3 100/23/3 101/23/3
f 103/25/52 99/26/53 102/25/52
f 99/26/53 103/25/52 98/26/53
f 103/25/52 1/24/54 6/24/54
f 1/24/54 103/25/52 102/25/52
f 103/25/2 100/23/2 98/26/2
f 100/23/2 103/25/2 104/23/2
f 104/23/2 103/25/2 6/24/2
f 104/23/2 6/24/2 8/24/2
f 104/23/2 8/24/2 94/25/2
f 104/23/2 94/25/2 97/26/2
f 105/23/1 99/26/1 101/23/1
f 99/26/1 105/23/1 102/25/1
f 102/25/1 105/23/1 1/24/1
f 1/24/1 105/23/1 3/24/1
f 3/24/1 105/23/1 95/25/1
f 95/25/1 105/23/1 96/26/1
f 100/23/46 105/23/46 101/23/46
f 105/23/46 100/23/46 91/23/46
f 91/23/46 100/23/46 90/23/46
f 90/23/46 100/23/46 93/23/46
f 93/23/46 100/23/46 104/23/46
f 92/22/4 105/23/4 91/23/4
f 105/23/4 92/22/4 96/26/4
f 92/22/4 97/26/4 96/26/4
f 97/26/4 92/22/4 104/23/4
f 104/23/4 92/22/4 93/23/4
