# Blender 4.1.1
# www.blender.org
mtllib stairs-corner.mtl
o stairs-corner.004
v 0.500000 -0.500000 0.000000
v 0.500000 0.450000 0.000000
v 0.500000 -0.500000 -0.166667
v 0.500000 0.100000 -0.066667
v 0.500000 -0.000000 -0.166667
v 0.500000 0.200000 -0.166667
v 0.500000 0.450000 -0.166667
v 0.166667 -0.500000 -0.333333
v 0.166667 -0.500000 -0.166667
v 0.166667 0.116667 -0.333333
v 0.166667 0.116667 -0.166667
v 0.450000 0.500000 0.000000
v -0.500000 -0.500000 0.000000
v -0.500000 0.500000 0.000000
v -0.166667 -0.500000 -0.500000
v -0.166667 -0.500000 -0.333333
v -0.166667 -0.216667 -0.500000
v -0.166667 -0.216667 -0.333333
v 0.116667 0.166667 -0.166667
v -0.500000 0.166667 -0.166667
v 0.116667 0.166667 -0.333333
v -0.300000 0.166667 -0.233333
v -0.200000 0.166667 -0.333333
v -0.500000 0.166667 -0.333333
v -0.400000 0.166667 -0.333333
v 0.450000 0.500000 -0.166667
v -0.500000 0.500000 -0.166667
v -0.500000 -0.166667 -0.333333
v -0.500000 -0.166667 -0.500000
v -0.216667 -0.166667 -0.333333
v -0.216667 -0.166667 -0.500000
v -0.500000 -0.500000 -0.500000
v -0.292181 0.325602 -0.166667
v -0.389609 0.381852 -0.166667
v -0.311391 0.320455 -0.194792
v -0.384462 0.362642 -0.194792
v -0.445859 0.284424 -0.166667
v -0.348431 0.228174 -0.166667
v -0.426650 0.289571 -0.194792
v -0.353579 0.247384 -0.194792
v 0.039670 -0.325849 -0.333333
v -0.057758 -0.269599 -0.333333
v 0.020460 -0.330996 -0.361458
v -0.052611 -0.288809 -0.361458
v -0.114008 -0.367027 -0.333333
v -0.016580 -0.423277 -0.333333
v -0.094799 -0.361880 -0.361458
v -0.021728 -0.404067 -0.361458
v -0.300000 0.066667 -0.333333
v 0.400000 0.100000 -0.166667
vn 1.0000 -0.0000 -0.0000
vn -0.0000 -0.0000 1.0000
vn -0.0000 1.0000 -0.0000
vn -0.0000 -1.0000 -0.0000
vn -0.0001 -1.0000 -0.0000
vn -1.0000 -0.0000 -0.0000
vn -1.0000 0.0001 0.0001
vn 0.7887 0.2113 -0.5774
vn -0.2114 0.7887 -0.5774
vn -0.2113 0.7886 -0.5774
vn 0.7887 0.2113 -0.5773
vn -0.7887 -0.2113 -0.5774
vn 0.2114 -0.7887 -0.5774
vn 0.2113 -0.7886 -0.5774
vn -0.7887 -0.2113 -0.5773
vn -0.2113 0.7887 -0.5773
vn -0.7886 -0.2114 -0.5774
vn -0.7887 -0.2114 -0.5773
vn 0.2113 -0.7887 -0.5774
vn 0.7887 0.2114 -0.5774
vn 0.7886 0.2113 -0.5774
vn 0.2113 -0.7887 -0.5773
vn -0.0000 -0.0000 -1.0000
vn -0.7886 -0.2113 -0.5774
vn -0.5774 0.5774 -0.5774
vn -0.0000 0.7071 -0.7071
vn 0.5774 0.5773 -0.5774
vn 0.7071 -0.0000 -0.7071
vn 0.5774 -0.5774 -0.5774
vn 0.5774 0.5774 -0.5774
vn 0.7071 0.7071 -0.0000
vt 0.968750 0.091667
vt 0.968750 0.025000
vt 0.968750 0.051667
vt 0.968750 0.158333
vt 0.968750 0.225000
vt 0.968750 0.118333
vt 0.968750 0.175000
vt 0.968750 0.075000
vt 0.093750 0.158333
vt 0.093750 0.118333
vt 0.093750 0.091667
vt 0.093750 0.051667
vt 0.093750 0.225000
vt 0.093750 0.025000
s 0
usemtl colormap.034
f 3/1/1 2/2/1 1/2/1
f 2/2/1 3/1/1 4/3/1
f 4/3/1 3/1/1 5/1/1
f 2/2/1 4/3/1 6/1/1
f 2/2/1 6/1/1 7/1/1
f 10/4/1 9/1/1 8/4/1
f 9/1/1 10/4/1 11/1/1
f 12/2/2 1/2/2 2/2/2
f 1/2/2 12/2/2 13/2/2
f 13/2/2 12/2/2 14/2/2
f 17/5/1 16/4/1 15/5/1
f 16/4/1 17/5/1 18/4/1
f 21/4/3 20/1/3 19/1/3
f 20/1/3 21/4/3 22/6/3
f 22/6/3 21/4/3 23/4/3
f 22/6/3 24/4/3 20/1/3
f 24/4/3 22/6/3 25/4/3
f 26/1/3 14/2/3 12/2/3
f 14/2/3 26/1/3 27/1/3
f 30/4/3 29/5/3 28/4/3
f 29/5/3 30/4/3 31/5/3
f 16/4/4 32/5/4 15/5/4
f 9/1/5 32/5/4 16/4/5
f 8/4/4 9/1/4 16/4/4
f 9/1/4 13/2/4 32/5/4
f 13/2/4 9/1/4 1/2/4
f 3/1/4 1/2/4 9/1/4
f 20/1/6 14/2/6 27/1/6
f 20/1/6 13/2/6 14/2/6
f 13/2/6 20/1/6 32/5/6
f 32/5/7 20/1/6 28/4/6
f 24/4/6 28/4/6 20/1/6
f 29/5/6 32/5/6 28/4/6
f 35/7/8 34/8/9 33/8/8
f 34/8/10 35/7/11 36/7/9
f 39/7/12 38/8/13 37/8/12
f 38/8/14 39/7/15 40/7/13
f 34/8/16 39/7/17 37/8/18
f 39/7/18 34/8/16 36/7/16
f 40/7/19 33/8/20 38/8/19
f 33/8/21 40/7/22 35/7/20
f 39/7/23 35/7/23 40/7/23
f 35/7/23 39/7/23 36/7/23
f 43/7/8 42/8/9 41/8/8
f 42/8/10 43/7/11 44/7/9
f 47/7/12 46/8/13 45/8/12
f 46/8/14 47/7/15 48/7/13
f 42/8/16 47/7/24 45/8/18
f 47/7/18 42/8/16 44/7/16
f 48/7/19 41/8/20 46/8/19
f 41/8/21 48/7/22 43/7/20
f 47/7/23 43/7/23 48/7/23
f 43/7/23 47/7/23 44/7/23
f 23/9/25 49/9/26 22/10/26
f 25/9/27 22/10/26 49/9/26
f 50/11/28 6/11/29 4/12/28
f 50/11/28 4/12/28 5/11/30
f 32/13/23 17/13/23 15/13/23
f 17/13/23 32/13/23 31/13/23
f 31/13/23 32/13/23 29/13/23
f 9/11/23 5/11/23 3/11/23
f 5/11/23 9/11/23 50/11/23
f 11/11/23 50/11/23 9/11/23
f 19/11/23 50/11/23 11/11/23
f 27/11/23 50/11/23 19/11/23
f 27/11/23 19/11/23 20/11/23
f 26/11/23 50/11/23 27/11/23
f 7/11/23 50/11/23 26/11/23
f 50/11/23 7/11/23 6/11/23
f 10/9/31 19/11/31 11/11/31
f 19/11/31 10/9/31 21/9/31
f 7/11/31 12/14/31 2/14/31
f 12/14/31 7/11/31 26/11/31
f 16/9/23 10/9/23 8/9/23
f 10/9/23 16/9/23 21/9/23
f 21/9/23 16/9/23 18/9/23
f 21/9/23 18/9/23 23/9/23
f 23/9/23 18/9/23 30/9/23
f 23/9/23 30/9/23 49/9/23
f 49/9/23 30/9/23 28/9/23
f 49/9/23 28/9/23 25/9/23
f 25/9/23 28/9/23 24/9/23
f 17/13/31 30/9/31 18/9/31
f 30/9/31 17/13/31 31/13/31
f 3/1/1 2/2/1 1/2/1
f 2/2/1 3/1/1 4/3/1
f 4/3/1 3/1/1 5/1/1
f 2/2/1 4/3/1 6/1/1
f 2/2/1 6/1/1 7/1/1
f 10/4/1 9/1/1 8/4/1
f 9/1/1 10/4/1 11/1/1
f 12/2/2 1/2/2 2/2/2
f 1/2/2 12/2/2 13/2/2
f 13/2/2 12/2/2 14/2/2
f 17/5/1 16/4/1 15/5/1
f 16/4/1 17/5/1 18/4/1
f 21/4/3 20/1/3 19/1/3
f 20/1/3 21/4/3 22/6/3
f 22/6/3 21/4/3 23/4/3
f 22/6/3 24/4/3 20/1/3
f 24/4/3 22/6/3 25/4/3
f 26/1/3 14/2/3 12/2/3
f 14/2/3 26/1/3 27/1/3
f 30/4/3 29/5/3 28/4/3
f 29/5/3 30/4/3 31/5/3
f 16/4/4 32/5/4 15/5/4
f 9/1/5 32/5/4 16/4/5
f 8/4/4 9/1/4 16/4/4
f 9/1/4 13/2/4 32/5/4
f 13/2/4 9/1/4 1/2/4
f 3/1/4 1/2/4 9/1/4
f 20/1/6 14/2/6 27/1/6
f 20/1/6 13/2/6 14/2/6
f 13/2/6 20/1/6 32/5/6
f 32/5/7 20/1/6 28/4/6
f 24/4/6 28/4/6 20/1/6
f 29/5/6 32/5/6 28/4/6
f 35/7/8 34/8/9 33/8/8
f 34/8/10 35/7/11 36/7/9
f 39/7/12 38/8/13 37/8/12
f 38/8/14 39/7/15 40/7/13
f 34/8/16 39/7/17 37/8/18
f 39/7/18 34/8/16 36/7/16
f 40/7/19 33/8/20 38/8/19
f 33/8/21 40/7/22 35/7/20
f 39/7/23 35/7/23 40/7/23
f 35/7/23 39/7/23 36/7/23
f 43/7/8 42/8/9 41/8/8
f 42/8/10 43/7/11 44/7/9
f 47/7/12 46/8/13 45/8/12
f 46/8/14 47/7/15 48/7/13
f 42/8/16 47/7/24 45/8/18
f 47/7/18 42/8/16 44/7/16
f 48/7/19 41/8/20 46/8/19
f 41/8/21 48/7/22 43/7/20
f 47/7/23 43/7/23 48/7/23
f 43/7/23 47/7/23 44/7/23
f 23/9/25 49/9/26 22/10/26
f 25/9/27 22/10/26 49/9/26
f 50/11/28 6/11/29 4/12/28
f 50/11/28 4/12/28 5/11/30
f 32/13/23 17/13/23 15/13/23
f 17/13/23 32/13/23 31/13/23
f 31/13/23 32/13/23 29/13/23
f 9/11/23 5/11/23 3/11/23
f 5/11/23 9/11/23 50/11/23
f 11/11/23 50/11/23 9/11/23
f 19/11/23 50/11/23 11/11/23
f 27/11/23 50/11/23 19/11/23
f 27/11/23 19/11/23 20/11/23
f 26/11/23 50/11/23 27/11/23
f 7/11/23 50/11/23 26/11/23
f 50/11/23 7/11/23 6/11/23
f 10/9/31 19/11/31 11/11/31
f 19/11/31 10/9/31 21/9/31
f 7/11/31 12/14/31 2/14/31
f 12/14/31 7/11/31 26/11/31
f 16/9/23 10/9/23 8/9/23
f 10/9/23 16/9/23 21/9/23
f 21/9/23 16/9/23 18/9/23
f 21/9/23 18/9/23 23/9/23
f 23/9/23 18/9/23 30/9/23
f 23/9/23 30/9/23 49/9/23
f 49/9/23 30/9/23 28/9/23
f 49/9/23 28/9/23 25/9/23
f 25/9/23 28/9/23 24/9/23
f 17/13/31 30/9/31 18/9/31
f 30/9/31 17/13/31 31/13/31
