# Blender 4.1.1
# www.blender.org
mtllib bricks.001.mtl
o bricks
v -0.073285 0.205695 -0.070000
v -0.073285 0.310695 -0.070000
v -0.164218 0.153195 -0.070000
v -0.164218 0.363195 -0.070000
v -0.255151 0.205695 -0.070000
v -0.255151 0.310695 -0.070000
v -0.285462 0.188195 0.000000
v -0.164218 0.118195 0.000000
v -0.042974 0.188195 0.000000
v -0.042974 0.328195 0.000000
v -0.164218 0.398195 0.000000
v -0.285462 0.328195 0.000000
v 0.036102 0.277468 -0.044100
v 0.036102 0.343618 -0.044100
v -0.021185 0.244393 -0.044100
v -0.021185 0.376693 -0.044100
v -0.078473 0.277468 -0.044100
v -0.078473 0.343618 -0.044100
v -0.097569 0.266443 0.000000
v -0.021185 0.222343 0.000000
v 0.055198 0.266443 0.000000
v 0.055198 0.354643 0.000000
v -0.021185 0.398743 0.000000
v -0.097569 0.354643 0.000000
v 0.223209 0.060539 -0.200000
v 0.170176 0.113572 -0.250000
v 0.187854 0.025184 -0.250000
v 0.276242 0.007506 -0.250000
v 0.120057 0.163692 -0.125000
v 0.385222 -0.101474 -0.125000
v -0.056720 -0.013085 -0.125000
v 0.208445 -0.278250 -0.125000
v 0.385222 -0.101474 -0.250000
v 0.120057 0.163692 -0.250000
v -0.056720 -0.013085 -0.250000
v 0.208445 -0.278250 -0.250000
v -0.283637 -0.058660 -0.250000
v -0.321137 -0.123612 -0.200000
v -0.277835 -0.148612 -0.250000
v -0.358637 -0.188564 -0.250000
v -0.261002 -0.019455 0.000000
v 0.063758 -0.206955 0.000000
v -0.386002 -0.235961 0.000000
v -0.061242 -0.423461 0.000000
v 0.063758 -0.206955 -0.250000
v -0.261002 -0.019455 -0.250000
v -0.386002 -0.235961 -0.250000
v -0.061242 -0.423461 -0.250000
v -0.075816 -0.125261 -0.250000
v 0.153667 -0.043094 -0.250000
v -0.021038 -0.278250 -0.250000
v 0.208445 -0.196083 -0.250000
v -0.075816 -0.125261 -0.412500
v -0.021038 -0.278250 -0.412500
v 0.153667 -0.043094 -0.412500
v 0.208445 -0.196083 -0.412500
v 0.174908 0.423461 0.000000
v 0.386002 0.301586 0.000000
v 0.093658 0.282732 0.000000
v 0.304752 0.160857 0.000000
v 0.174908 0.423461 -0.162500
v 0.093658 0.282732 -0.162500
v 0.386002 0.301586 -0.162500
v 0.304752 0.160857 -0.162500
v 0.298191 0.098720 -0.000000
v 0.338040 -0.274157 -0.000000
v 0.049607 0.072154 -0.000000
v 0.089456 -0.300723 -0.000000
v 0.338040 -0.274157 -0.125000
v 0.298191 0.098720 -0.125000
v 0.089456 -0.300723 -0.125000
v 0.049607 0.072154 -0.125000
v -0.354307 0.177522 0.000000
v -0.118863 0.240609 0.000000
v -0.312249 0.020559 0.000000
v -0.076805 0.083646 0.000000
v -0.354307 0.177522 -0.162500
v -0.312249 0.020559 -0.162500
v -0.118863 0.240609 -0.162500
v -0.076805 0.083646 -0.162500
vn -0.0000 -0.0000 -1.0000
vn -0.7746 -0.4472 -0.4472
vn -0.0000 -0.8944 -0.4472
vn 0.7746 -0.4472 -0.4472
vn 0.7746 0.4472 -0.4472
vn -0.0000 0.8944 -0.4472
vn -0.7746 0.4472 -0.4472
vn -0.7746 0.4472 -0.4473
vn -0.7746 -0.4472 -0.4473
vn 0.5000 0.5000 -0.7071
vn 0.7538 0.1508 -0.6396
vn 0.1508 0.7538 -0.6396
vn -0.0000 -0.0000 1.0000
vn 0.7071 0.7071 -0.0000
vn -0.7071 0.7071 -0.0000
vn -0.7071 -0.7071 -0.0000
vn 0.7071 -0.7071 -0.0000
vn -0.6124 0.3536 -0.7071
vn -0.7671 -0.0495 -0.6396
vn -0.3407 0.6891 -0.6396
vn 0.5000 0.8660 -0.0000
vn -0.8660 0.5000 -0.0000
vn -0.5000 -0.8660 -0.0000
vn 0.8660 -0.5000 -0.0000
vn -0.3371 0.9415 -0.0000
vn -0.9415 -0.3371 -0.0000
vn 0.3371 -0.9415 -0.0000
vn 0.9415 0.3371 -0.0000
vn 0.9943 0.1063 -0.0000
vn -0.1063 0.9943 -0.0000
vn -0.9943 -0.1063 -0.0000
vn 0.1063 -0.9943 -0.0000
vn -0.2588 0.9659 -0.0000
vn -0.9659 -0.2588 -0.0000
vn 0.2588 -0.9659 -0.0000
vn 0.9659 0.2588 -0.0000
vt 0.968750 0.225000
vt 0.968750 0.025000
vt 0.968750 0.115194
vt 0.968750 0.127811
vt 0.968750 0.146737
vt 0.968750 0.208007
vt 0.968750 0.172091
vt 0.968750 0.028428
vt 0.968750 0.095405
vt 0.968750 0.089502
vt 0.968750 0.126910
vt 0.968750 0.081450
vt 0.968750 0.035727
vt 0.968750 0.106664
vt 0.968750 0.160617
vt 0.968750 0.133912
s 0
usemtl colormap.038
f 3/1/1 2/1/1 1/1/1
f 2/1/1 3/1/1 4/1/1
f 4/1/1 3/1/1 5/1/1
f 4/1/1 5/1/1 6/1/1
f 5/1/2 8/2/3 7/2/2
f 8/2/3 5/1/2 3/1/3
f 1/1/4 10/2/5 9/2/4
f 10/2/5 1/1/4 2/1/5
f 4/1/6 12/2/7 11/2/6
f 12/2/7 4/1/6 6/1/7
f 3/1/3 9/2/4 8/2/3
f 9/2/4 3/1/3 1/1/4
f 12/2/8 5/1/2 7/2/2
f 5/1/9 12/2/7 6/1/7
f 2/1/5 11/2/6 10/2/5
f 11/2/6 2/1/5 4/1/6
f 15/1/1 14/1/1 13/1/1
f 14/1/1 15/1/1 16/1/1
f 16/1/1 15/1/1 17/1/1
f 16/1/1 17/1/1 18/1/1
f 17/1/2 20/2/3 19/2/2
f 20/2/3 17/1/2 15/1/3
f 13/1/4 22/2/5 21/2/4
f 22/2/5 13/1/4 14/1/5
f 16/1/6 24/2/7 23/2/6
f 24/2/7 16/1/6 18/1/7
f 15/1/3 21/2/4 20/2/3
f 21/2/4 15/1/3 13/1/4
f 24/2/8 17/1/2 19/2/2
f 17/1/9 24/2/7 18/1/7
f 14/1/5 23/2/6 22/2/5
f 23/2/6 14/1/5 16/1/6
f 27/3/10 26/3/11 25/4/10
f 27/3/10 25/4/10 28/3/12
f 31/5/13 30/5/13 29/5/13
f 30/5/13 31/5/13 32/5/13
f 28/3/14 30/5/14 33/3/14
f 30/5/14 28/3/14 25/4/14
f 30/5/14 25/4/14 29/5/14
f 29/5/14 25/4/14 26/3/14
f 29/5/14 26/3/14 34/3/14
f 34/3/15 31/5/15 29/5/15
f 31/5/15 34/3/15 35/3/15
f 31/5/16 36/3/16 32/5/16
f 36/3/16 31/5/16 35/3/16
f 36/3/17 30/5/17 32/5/17
f 30/5/17 36/3/17 33/3/17
f 36/3/1 28/3/1 33/3/1
f 28/3/1 36/3/1 27/3/1
f 35/3/1 27/3/1 36/3/1
f 35/3/1 26/3/1 27/3/1
f 26/3/1 35/3/1 34/3/1
f 39/6/18 38/7/18 37/6/19
f 40/6/20 38/7/18 39/6/18
f 43/8/13 42/8/13 41/8/13
f 42/8/13 43/8/13 44/8/13
f 46/6/21 42/8/21 45/6/21
f 42/8/21 46/6/21 41/8/21
f 46/6/22 43/8/22 41/8/22
f 43/8/22 46/6/22 38/7/22
f 38/7/22 46/6/22 37/6/22
f 38/7/22 47/6/22 43/8/22
f 47/6/22 38/7/22 40/6/22
f 43/8/23 48/6/23 44/8/23
f 48/6/23 43/8/23 47/6/23
f 48/6/24 42/8/24 44/8/24
f 42/8/24 48/6/24 45/6/24
f 48/6/1 46/6/1 45/6/1
f 46/6/1 48/6/1 37/6/1
f 37/6/1 48/6/1 39/6/1
f 39/6/1 48/6/1 40/6/1
f 40/6/1 48/6/1 47/6/1
f 51/9/13 50/9/13 49/9/13
f 50/9/13 51/9/13 52/9/13
f 55/10/1 54/10/1 53/10/1
f 54/10/1 55/10/1 56/10/1
f 53/10/25 50/9/25 55/10/25
f 50/9/25 53/10/25 49/9/25
f 53/10/26 51/9/26 49/9/26
f 51/9/26 53/10/26 54/10/26
f 51/9/27 56/10/27 52/9/27
f 56/10/27 51/9/27 54/10/27
f 56/10/28 50/9/28 52/9/28
f 50/9/28 56/10/28 55/10/28
f 59/11/13 58/11/13 57/11/13
f 58/11/13 59/11/13 60/11/13
f 63/12/1 62/12/1 61/12/1
f 62/12/1 63/12/1 64/12/1
f 61/12/21 58/11/21 63/12/21
f 58/11/21 61/12/21 57/11/21
f 61/12/22 59/11/22 57/11/22
f 59/11/22 61/12/22 62/12/22
f 59/11/23 64/12/23 60/11/23
f 64/12/23 59/11/23 62/12/23
f 64/12/24 58/11/24 60/11/24
f 58/11/24 64/12/24 63/12/24
f 67/13/13 66/13/13 65/13/13
f 66/13/13 67/13/13 68/13/13
f 71/14/1 70/14/1 69/14/1
f 70/14/1 71/14/1 72/14/1
f 70/14/29 66/13/29 69/14/29
f 66/13/29 70/14/29 65/13/29
f 70/14/30 67/13/30 65/13/30
f 67/13/30 70/14/30 72/14/30
f 67/13/31 71/14/31 68/13/31
f 71/14/31 67/13/31 72/14/31
f 71/14/32 66/13/32 68/13/32
f 66/13/32 71/14/32 69/14/32
f 75/15/13 74/15/13 73/15/13
f 74/15/13 75/15/13 76/15/13
f 79/16/1 78/16/1 77/16/1
f 78/16/1 79/16/1 80/16/1
f 77/16/33 74/15/33 79/16/33
f 74/15/33 77/16/33 73/15/33
f 77/16/34 75/15/34 73/15/34
f 75/15/34 77/16/34 78/16/34
f 75/15/35 80/16/35 76/15/35
f 80/16/35 75/15/35 78/16/35
f 80/16/36 74/15/36 76/15/36
f 74/15/36 80/16/36 79/16/36
f 3/1/1 2/1/1 1/1/1
f 2/1/1 3/1/1 4/1/1
f 4/1/1 3/1/1 5/1/1
f 4/1/1 5/1/1 6/1/1
f 5/1/2 8/2/3 7/2/2
f 8/2/3 5/1/2 3/1/3
f 1/1/4 10/2/5 9/2/4
f 10/2/5 1/1/4 2/1/5
f 4/1/6 12/2/7 11/2/6
f 12/2/7 4/1/6 6/1/7
f 3/1/3 9/2/4 8/2/3
f 9/2/4 3/1/3 1/1/4
f 12/2/8 5/1/2 7/2/2
f 5/1/9 12/2/7 6/1/7
f 2/1/5 11/2/6 10/2/5
f 11/2/6 2/1/5 4/1/6
f 15/1/1 14/1/1 13/1/1
f 14/1/1 15/1/1 16/1/1
f 16/1/1 15/1/1 17/1/1
f 16/1/1 17/1/1 18/1/1
f 17/1/2 20/2/3 19/2/2
f 20/2/3 17/1/2 15/1/3
f 13/1/4 22/2/5 21/2/4
f 22/2/5 13/1/4 14/1/5
f 16/1/6 24/2/7 23/2/6
f 24/2/7 16/1/6 18/1/7
f 15/1/3 21/2/4 20/2/3
f 21/2/4 15/1/3 13/1/4
f 24/2/8 17/1/2 19/2/2
f 17/1/9 24/2/7 18/1/7
f 14/1/5 23/2/6 22/2/5
f 23/2/6 14/1/5 16/1/6
f 27/3/10 26/3/11 25/4/10
f 27/3/10 25/4/10 28/3/12
f 31/5/13 30/5/13 29/5/13
f 30/5/13 31/5/13 32/5/13
f 28/3/14 30/5/14 33/3/14
f 30/5/14 28/3/14 25/4/14
f 30/5/14 25/4/14 29/5/14
f 29/5/14 25/4/14 26/3/14
f 29/5/14 26/3/14 34/3/14
f 34/3/15 31/5/15 29/5/15
f 31/5/15 34/3/15 35/3/15
f 31/5/16 36/3/16 32/5/16
f 36/3/16 31/5/16 35/3/16
f 36/3/17 30/5/17 32/5/17
f 30/5/17 36/3/17 33/3/17
f 36/3/1 28/3/1 33/3/1
f 28/3/1 36/3/1 27/3/1
f 35/3/1 27/3/1 36/3/1
f 35/3/1 26/3/1 27/3/1
f 26/3/1 35/3/1 34/3/1
f 39/6/18 38/7/18 37/6/19
f 40/6/20 38/7/18 39/6/18
f 43/8/13 42/8/13 41/8/13
f 42/8/13 43/8/13 44/8/13
f 46/6/21 42/8/21 45/6/21
f 42/8/21 46/6/21 41/8/21
f 46/6/22 43/8/22 41/8/22
f 43/8/22 46/6/22 38/7/22
f 38/7/22 46/6/22 37/6/22
f 38/7/22 47/6/22 43/8/22
f 47/6/22 38/7/22 40/6/22
f 43/8/23 48/6/23 44/8/23
f 48/6/23 43/8/23 47/6/23
f 48/6/24 42/8/24 44/8/24
f 42/8/24 48/6/24 45/6/24
f 48/6/1 46/6/1 45/6/1
f 46/6/1 48/6/1 37/6/1
f 37/6/1 48/6/1 39/6/1
f 39/6/1 48/6/1 40/6/1
f 40/6/1 48/6/1 47/6/1
f 51/9/13 50/9/13 49/9/13
f 50/9/13 51/9/13 52/9/13
f 55/10/1 54/10/1 53/10/1
f 54/10/1 55/10/1 56/10/1
f 53/10/25 50/9/25 55/10/25
f 50/9/25 53/10/25 49/9/25
f 53/10/26 51/9/26 49/9/26
f 51/9/26 53/10/26 54/10/26
f 51/9/27 56/10/27 52/9/27
f 56/10/27 51/9/27 54/10/27
f 56/10/28 50/9/28 52/9/28
f 50/9/28 56/10/28 55/10/28
f 59/11/13 58/11/13 57/11/13
f 58/11/13 59/11/13 60/11/13
f 63/12/1 62/12/1 61/12/1
f 62/12/1 63/12/1 64/12/1
f 61/12/21 58/11/21 63/12/21
f 58/11/21 61/12/21 57/11/21
f 61/12/22 59/11/22 57/11/22
f 59/11/22 61/12/22 62/12/22
f 59/11/23 64/12/23 60/11/23
f 64/12/23 59/11/23 62/12/23
f 64/12/24 58/11/24 60/11/24
f 58/11/24 64/12/24 63/12/24
f 67/13/13 66/13/13 65/13/13
f 66/13/13 67/13/13 68/13/13
f 71/14/1 70/14/1 69/14/1
f 70/14/1 71/14/1 72/14/1
f 70/14/29 66/13/29 69/14/29
f 66/13/29 70/14/29 65/13/29
f 70/14/30 67/13/30 65/13/30
f 67/13/30 70/14/30 72/14/30
f 67/13/31 71/14/31 68/13/31
f 71/14/31 67/13/31 72/14/31
f 71/14/32 66/13/32 68/13/32
f 66/13/32 71/14/32 69/14/32
f 75/15/13 74/15/13 73/15/13
f 74/15/13 75/15/13 76/15/13
f 79/16/1 78/16/1 77/16/1
f 78/16/1 79/16/1 80/16/1
f 77/16/33 74/15/33 79/16/33
f 74/15/33 77/16/33 73/15/33
f 77/16/34 75/15/34 73/15/34
f 75/15/34 77/16/34 78/16/34
f 75/15/35 80/16/35 76/15/35
f 80/16/35 75/15/35 78/16/35
f 80/16/36 74/15/36 76/15/36
f 74/15/36 80/16/36 79/16/36
