# Blender 4.1.1
# www.blender.org
mtllib gate@gate.mtl
o gate
v 7.477214 15.903772 1.711914
v 7.477217 0.000001 1.711914
v 6.475454 18.442003 1.711915
v 6.397481 15.690230 1.711915
v 5.598866 17.713745 1.711915
v 6.397484 1.101820 1.711915
v 3.738603 20.300116 1.711915
v 3.327733 19.255669 1.711915
v -6.397484 1.101817 1.711915
v -0.000004 20.980232 1.711915
v -0.000004 19.861040 1.711915
v -3.327740 19.255669 1.711915
v -3.738611 20.300116 1.711915
v -5.598872 17.713741 1.711915
v -7.477217 -0.000001 1.711915
v -7.477220 15.903769 1.711915
v -6.475461 18.441999 1.711915
v -6.397487 15.690228 1.711915
v -3.327740 19.255669 0.130991
v -5.598872 17.713741 0.130991
v -6.397484 1.101817 0.130991
v -6.397487 15.690228 0.130991
v 5.598866 17.713745 0.130991
v 3.327733 19.255669 0.130991
v -0.000004 19.861040 0.130991
v 6.397484 1.101820 0.130991
v 6.397481 15.690230 0.130991
v 5.598866 17.713745 -1.711915
v 3.327733 19.255669 -1.711915
v 5.598866 17.713745 -0.130991
v 3.327733 19.255669 -0.130991
v -6.397488 15.690228 -1.711915
v -6.397487 15.690228 -0.130991
v -5.598872 17.713741 -1.711915
v -5.598872 17.713741 -0.130991
v -0.000004 19.861040 -1.711915
v -0.000004 19.861040 -0.130991
v -3.327740 19.255669 -1.711915
v -3.327740 19.255669 -0.130991
v -6.397485 1.101817 -1.711915
v -6.397484 1.101817 -0.130991
v 6.397481 15.690230 -1.711915
v 6.397481 15.690230 -0.130991
v 6.397484 1.101820 -1.711915
v 6.397484 1.101820 -0.130991
v 3.738603 20.300116 -1.711915
v -0.000004 20.980232 -1.711915
v 7.477217 0.000001 -1.711915
v 7.477213 15.903772 -1.711915
v -7.477217 -0.000001 -1.711914
v -7.477220 15.903769 -1.711914
v -6.475461 18.441999 -1.711915
v -3.738611 20.300116 -1.711915
v 6.475454 18.442003 -1.711915
v 6.397483 6.499865 0.921453
v 6.397483 4.555188 0.921453
v -6.397486 6.499862 0.921453
v -6.397485 4.555185 0.921453
v -6.397485 4.555185 0.130991
v 6.397483 4.555188 0.130991
v -6.397486 6.499862 0.130991
v 6.397483 6.499865 0.130991
v 6.397482 10.875096 0.921453
v 6.397482 8.930422 0.921453
v -6.397486 10.875094 0.921453
v -6.397486 8.930420 0.921453
v -6.397486 8.930420 0.130991
v 6.397482 8.930422 0.130991
v -6.397486 10.875094 0.130991
v 6.397482 10.875096 0.130991
v -6.397487 10.875094 -0.921453
v -6.397486 8.930420 -0.921453
v 6.397482 10.875096 -0.921453
v 6.397482 8.930422 -0.921453
v 6.397482 8.930422 -0.130991
v -6.397486 8.930420 -0.130991
v 6.397482 10.875096 -0.130991
v -6.397486 10.875094 -0.130991
v -6.397486 6.499862 -0.921453
v -6.397485 4.555185 -0.921453
v 6.397483 6.499865 -0.921453
v 6.397483 4.555188 -0.921453
v 6.397483 4.555188 -0.130991
v -6.397485 4.555185 -0.130991
v 6.397483 6.499865 -0.130991
v -6.397486 6.499862 -0.130991
vn -0.0000 -0.0000 1.0000
vn 0.3813 -0.9245 0.0005
vn 0.7813 -0.6241 -0.0000
vn 0.3813 -0.9245 -0.0000
vn 0.7813 -0.6241 -0.0007
vn 0.9817 -0.1902 -0.0000
vn 1.0000 -0.0000 -0.0000
vn 0.9817 -0.1902 -0.0004
vn -0.7813 -0.6241 0.0007
vn -0.3813 -0.9245 -0.0000
vn -0.7813 -0.6241 -0.0000
vn -0.3813 -0.9245 -0.0005
vn -0.3758 -0.9267 -0.0000
vn -0.0036 -1.0000 -0.0000
vn 0.0036 -1.0000 -0.0000
vn 0.3758 -0.9267 -0.0000
vn 0.7799 -0.6259 -0.0000
vn 0.9830 -0.1835 0.0014
vn 0.9830 -0.1835 -0.0000
vn 0.7799 -0.6259 -0.0022
vn -1.0000 -0.0000 -0.0000
vn -0.9817 -0.1902 -0.0000
vn -0.9817 -0.1902 -0.0004
vn -0.9830 -0.1835 0.0014
vn -0.7799 -0.6259 -0.0000
vn -0.9830 -0.1835 -0.0000
vn -0.7799 -0.6259 -0.0022
vn -0.0000 1.0000 -0.0000
vn 0.0036 1.0000 -0.0000
vn 0.3758 0.9267 -0.0000
vn 0.3758 0.9267 -0.0001
vn 0.9817 0.1902 -0.0004
vn 0.9817 0.1902 -0.0003
vn 0.9817 0.1902 -0.0000
vn -0.0000 -1.0000 -0.0000
vn -0.7799 0.6259 -0.0015
vn -0.9830 0.1835 0.0005
vn -0.9830 0.1835 -0.0000
vn -0.9830 0.1835 0.0009
vn -0.7799 0.6259 -0.0007
vn -0.7799 0.6259 -0.0000
vn -0.3758 0.9267 0.0001
vn -0.0036 1.0000 -0.0000
vn -0.3758 0.9267 -0.0000
vn 0.3813 0.9245 0.0004
vn 0.7813 0.6241 -0.0002
vn 0.7813 0.6241 -0.0000
vn 0.7813 0.6241 -0.0006
vn 0.3813 0.9245 0.0002
vn 0.3813 0.9245 -0.0000
vn 0.7799 0.6259 0.0015
vn 0.9830 0.1835 -0.0005
vn 0.9830 0.1835 -0.0000
vn 0.9830 0.1835 -0.0009
vn 0.7799 0.6259 0.0007
vn 0.7799 0.6259 -0.0000
vn -0.0000 -0.0000 -1.0000
vn -0.9817 0.1902 -0.0004
vn -0.9817 0.1902 -0.0003
vn -0.9817 0.1902 -0.0000
vn -0.7813 0.6241 0.0006
vn -0.3813 0.9245 -0.0002
vn -0.3813 0.9245 -0.0000
vn -0.3813 0.9245 -0.0004
vn -0.7813 0.6241 0.0002
vn -0.7813 0.6241 -0.0000
vn -0.9302 -0.3671 -0.0000
vn -0.5617 -0.8273 -0.0000
vn 0.1790 -0.9839 -0.0000
vn 0.5617 -0.8273 -0.0000
vn 0.9302 -0.3671 -0.0000
vn -0.1790 -0.9839 -0.0000
vt 0.343750 0.200804
vt 0.343750 0.025000
vt 0.343750 0.176607
vt 0.343750 0.174571
vt 0.343750 0.193861
vt 0.343750 0.035503
vt 0.343750 0.218517
vt 0.343750 0.208560
vt 0.343750 0.225000
vt 0.343750 0.214331
vt 0.468750 0.035503
vt 0.468750 0.174571
vt 0.468750 0.193861
vt 0.468750 0.208560
vt 0.468750 0.214331
vt 0.593750 0.035503
vt 0.593750 0.174571
vt 0.593750 0.193861
vt 0.593750 0.208560
vt 0.593750 0.214331
s 0
usemtl colormap.030
f 3/1/1 2/2/1 1/3/1
f 4/4/1 2/2/1 3/1/1
f 3/1/1 5/5/1 4/4/1
f 6/6/1 2/2/1 4/4/1
f 7/7/1 5/5/1 3/1/1
f 7/7/1 8/8/1 5/5/1
f 9/6/1 2/2/1 6/6/1
f 10/9/1 8/8/1 7/7/1
f 10/9/1 11/10/1 8/8/1
f 10/9/1 12/8/1 11/10/1
f 13/7/1 12/8/1 10/9/1
f 13/7/1 14/5/1 12/8/1
f 9/6/1 15/2/1 2/2/1
f 15/2/1 9/6/1 16/3/1
f 17/1/1 14/5/1 13/7/1
f 16/3/1 9/6/1 17/1/1
f 14/5/1 17/1/1 18/4/1
f 18/4/1 17/1/1 9/6/1
f 12/8/2 20/5/3 19/8/4
f 20/5/5 12/8/4 14/5/3
f 22/4/6 9/6/7 21/6/7
f 9/6/7 22/4/8 18/4/6
f 5/5/9 24/8/10 23/5/11
f 24/8/12 5/5/11 8/8/10
f 8/8/13 25/10/14 24/8/13
f 25/10/14 8/8/13 11/10/14
f 11/10/15 19/8/16 25/10/15
f 19/8/16 11/10/15 12/8/16
f 20/5/17 18/4/18 22/4/19
f 18/4/19 20/5/20 14/5/17
f 6/6/21 27/4/22 26/6/21
f 27/4/23 6/6/21 4/4/22
f 4/4/24 23/5/25 27/4/26
f 23/5/27 4/4/26 5/5/25
f 30/5/9 29/8/10 28/5/11
f 29/8/12 30/5/11 31/8/10
f 34/5/17 33/4/18 32/4/19
f 33/4/19 34/5/20 35/5/17
f 31/8/13 36/10/14 29/8/13
f 36/10/14 31/8/13 37/10/14
f 37/10/15 38/8/16 36/10/15
f 38/8/16 37/10/15 39/8/16
f 32/4/6 41/6/7 40/6/7
f 41/6/7 32/4/8 33/4/6
f 39/8/2 34/5/3 38/8/4
f 34/5/5 39/8/4 35/5/3
f 43/4/24 28/5/25 42/4/26
f 28/5/27 43/4/26 30/5/25
f 40/6/28 45/6/28 44/6/28
f 45/6/28 40/6/28 41/6/28
f 45/6/21 42/4/22 44/6/21
f 42/4/23 45/6/21 43/4/22
f 47/9/29 7/7/30 46/7/30
f 7/7/31 47/9/29 10/9/29
f 48/2/7 1/3/32 2/2/7
f 1/3/33 48/2/7 49/3/34
f 2/2/35 50/2/35 48/2/35
f 50/2/35 2/2/35 15/2/35
f 17/1/36 51/3/37 16/3/38
f 51/3/39 17/1/40 52/1/41
f 53/7/42 10/9/43 47/9/43
f 10/9/43 53/7/44 13/7/44
f 46/7/45 3/1/46 54/1/47
f 3/1/48 46/7/49 7/7/50
f 54/1/51 1/3/52 49/3/53
f 1/3/54 54/1/55 3/1/56
f 52/1/57 50/2/57 51/3/57
f 50/2/57 52/1/57 40/6/57
f 50/2/57 40/6/57 48/2/57
f 40/6/57 52/1/57 32/4/57
f 52/1/57 34/5/57 32/4/57
f 34/5/57 52/1/57 53/7/57
f 34/5/57 53/7/57 38/8/57
f 38/8/57 53/7/57 47/9/57
f 38/8/57 47/9/57 36/10/57
f 36/10/57 47/9/57 29/8/57
f 29/8/57 47/9/57 46/7/57
f 29/8/57 46/7/57 28/5/57
f 28/5/57 46/7/57 54/1/57
f 28/5/57 54/1/57 42/4/57
f 48/2/57 40/6/57 44/6/57
f 42/4/57 54/1/57 44/6/57
f 48/2/57 44/6/57 54/1/57
f 48/2/57 54/1/57 49/3/57
f 16/3/58 50/2/21 15/2/21
f 50/2/21 16/3/59 51/3/60
f 52/1/61 13/7/62 53/7/63
f 13/7/64 52/1/65 17/1/66
f 57/9/1 56/2/1 55/9/1
f 56/2/1 57/9/1 58/2/1
f 59/2/35 56/2/35 58/2/35
f 56/2/35 59/2/35 60/2/35
f 55/9/28 61/9/28 57/9/28
f 61/9/28 55/9/28 62/9/28
f 65/9/1 64/2/1 63/9/1
f 64/2/1 65/9/1 66/2/1
f 67/2/35 64/2/35 66/2/35
f 64/2/35 67/2/35 68/2/35
f 63/9/28 69/9/28 65/9/28
f 69/9/28 63/9/28 70/9/28
f 73/9/57 72/2/57 71/9/57
f 72/2/57 73/9/57 74/2/57
f 75/2/35 72/2/35 74/2/35
f 72/2/35 75/2/35 76/2/35
f 71/9/28 77/9/28 73/9/28
f 77/9/28 71/9/28 78/9/28
f 81/9/57 80/2/57 79/9/57
f 80/2/57 81/9/57 82/2/57
f 83/2/35 80/2/35 82/2/35
f 80/2/35 83/2/35 84/2/35
f 79/9/28 85/9/28 81/9/28
f 85/9/28 79/9/28 86/9/28
f 6/11/28 21/11/28 9/11/28
f 21/11/28 6/11/28 26/11/28
f 26/11/28 41/11/28 21/11/28
f 41/11/28 26/11/28 45/11/28
f 41/11/7 22/12/7 21/11/7
f 22/12/7 41/11/7 33/12/7
f 23/13/67 43/12/67 27/12/67
f 43/12/67 23/13/67 30/13/67
f 23/13/68 31/14/68 30/13/68
f 31/14/68 23/13/68 24/14/68
f 25/15/69 39/14/69 37/15/69
f 39/14/69 25/15/69 19/14/69
f 19/14/70 35/13/70 39/14/70
f 35/13/70 19/14/70 20/13/70
f 33/12/71 20/13/71 22/12/71
f 20/13/71 33/12/71 35/13/71
f 27/12/21 45/11/21 26/11/21
f 45/11/21 27/12/21 43/12/21
f 24/14/72 37/15/72 31/14/72
f 37/15/72 24/14/72 25/15/72
f 26/16/1 22/17/1 21/16/1
f 22/17/1 26/16/1 20/18/1
f 20/18/1 26/16/1 19/19/1
f 19/19/1 26/16/1 25/20/1
f 25/20/1 26/16/1 24/19/1
f 24/19/1 26/16/1 23/18/1
f 23/18/1 26/16/1 27/17/1
f 35/18/57 41/16/57 33/17/57
f 41/16/57 35/18/57 45/16/57
f 45/16/57 35/18/57 39/19/57
f 45/16/57 39/19/57 37/20/57
f 45/16/57 37/20/57 31/19/57
f 45/16/57 31/19/57 30/18/57
f 45/16/57 30/18/57 43/17/57
f 3/1/1 2/2/1 1/3/1
f 4/4/1 2/2/1 3/1/1
f 3/1/1 5/5/1 4/4/1
f 6/6/1 2/2/1 4/4/1
f 7/7/1 5/5/1 3/1/1
f 7/7/1 8/8/1 5/5/1
f 9/6/1 2/2/1 6/6/1
f 10/9/1 8/8/1 7/7/1
f 10/9/1 11/10/1 8/8/1
f 10/9/1 12/8/1 11/10/1
f 13/7/1 12/8/1 10/9/1
f 13/7/1 14/5/1 12/8/1
f 9/6/1 15/2/1 2/2/1
f 15/2/1 9/6/1 16/3/1
f 17/1/1 14/5/1 13/7/1
f 16/3/1 9/6/1 17/1/1
f 14/5/1 17/1/1 18/4/1
f 18/4/1 17/1/1 9/6/1
f 12/8/2 20/5/3 19/8/4
f 20/5/5 12/8/4 14/5/3
f 22/4/6 9/6/7 21/6/7
f 9/6/7 22/4/8 18/4/6
f 5/5/9 24/8/10 23/5/11
f 24/8/12 5/5/11 8/8/10
f 8/8/13 25/10/14 24/8/13
f 25/10/14 8/8/13 11/10/14
f 11/10/15 19/8/16 25/10/15
f 19/8/16 11/10/15 12/8/16
f 20/5/17 18/4/18 22/4/19
f 18/4/19 20/5/20 14/5/17
f 6/6/21 27/4/22 26/6/21
f 27/4/23 6/6/21 4/4/22
f 4/4/24 23/5/25 27/4/26
f 23/5/27 4/4/26 5/5/25
f 30/5/9 29/8/10 28/5/11
f 29/8/12 30/5/11 31/8/10
f 34/5/17 33/4/18 32/4/19
f 33/4/19 34/5/20 35/5/17
f 31/8/13 36/10/14 29/8/13
f 36/10/14 31/8/13 37/10/14
f 37/10/15 38/8/16 36/10/15
f 38/8/16 37/10/15 39/8/16
f 32/4/6 41/6/7 40/6/7
f 41/6/7 32/4/8 33/4/6
f 39/8/2 34/5/3 38/8/4
f 34/5/5 39/8/4 35/5/3
f 43/4/24 28/5/25 42/4/26
f 28/5/27 43/4/26 30/5/25
f 40/6/28 45/6/28 44/6/28
f 45/6/28 40/6/28 41/6/28
f 45/6/21 42/4/22 44/6/21
f 42/4/23 45/6/21 43/4/22
f 47/9/29 7/7/30 46/7/30
f 7/7/31 47/9/29 10/9/29
f 48/2/7 1/3/32 2/2/7
f 1/3/33 48/2/7 49/3/34
f 2/2/35 50/2/35 48/2/35
f 50/2/35 2/2/35 15/2/35
f 17/1/36 51/3/37 16/3/38
f 51/3/39 17/1/40 52/1/41
f 53/7/42 10/9/43 47/9/43
f 10/9/43 53/7/44 13/7/44
f 46/7/45 3/1/46 54/1/47
f 3/1/48 46/7/49 7/7/50
f 54/1/51 1/3/52 49/3/53
f 1/3/54 54/1/55 3/1/56
f 52/1/57 50/2/57 51/3/57
f 50/2/57 52/1/57 40/6/57
f 50/2/57 40/6/57 48/2/57
f 40/6/57 52/1/57 32/4/57
f 52/1/57 34/5/57 32/4/57
f 34/5/57 52/1/57 53/7/57
f 34/5/57 53/7/57 38/8/57
f 38/8/57 53/7/57 47/9/57
f 38/8/57 47/9/57 36/10/57
f 36/10/57 47/9/57 29/8/57
f 29/8/57 47/9/57 46/7/57
f 29/8/57 46/7/57 28/5/57
f 28/5/57 46/7/57 54/1/57
f 28/5/57 54/1/57 42/4/57
f 48/2/57 40/6/57 44/6/57
f 42/4/57 54/1/57 44/6/57
f 48/2/57 44/6/57 54/1/57
f 48/2/57 54/1/57 49/3/57
f 16/3/58 50/2/21 15/2/21
f 50/2/21 16/3/59 51/3/60
f 52/1/61 13/7/62 53/7/63
f 13/7/64 52/1/65 17/1/66
f 57/9/1 56/2/1 55/9/1
f 56/2/1 57/9/1 58/2/1
f 59/2/35 56/2/35 58/2/35
f 56/2/35 59/2/35 60/2/35
f 55/9/28 61/9/28 57/9/28
f 61/9/28 55/9/28 62/9/28
f 65/9/1 64/2/1 63/9/1
f 64/2/1 65/9/1 66/2/1
f 67/2/35 64/2/35 66/2/35
f 64/2/35 67/2/35 68/2/35
f 63/9/28 69/9/28 65/9/28
f 69/9/28 63/9/28 70/9/28
f 73/9/57 72/2/57 71/9/57
f 72/2/57 73/9/57 74/2/57
f 75/2/35 72/2/35 74/2/35
f 72/2/35 75/2/35 76/2/35
f 71/9/28 77/9/28 73/9/28
f 77/9/28 71/9/28 78/9/28
f 81/9/57 80/2/57 79/9/57
f 80/2/57 81/9/57 82/2/57
f 83/2/35 80/2/35 82/2/35
f 80/2/35 83/2/35 84/2/35
f 79/9/28 85/9/28 81/9/28
f 85/9/28 79/9/28 86/9/28
f 6/11/28 21/11/28 9/11/28
f 21/11/28 6/11/28 26/11/28
f 26/11/28 41/11/28 21/11/28
f 41/11/28 26/11/28 45/11/28
f 41/11/7 22/12/7 21/11/7
f 22/12/7 41/11/7 33/12/7
f 23/13/67 43/12/67 27/12/67
f 43/12/67 23/13/67 30/13/67
f 23/13/68 31/14/68 30/13/68
f 31/14/68 23/13/68 24/14/68
f 25/15/69 39/14/69 37/15/69
f 39/14/69 25/15/69 19/14/69
f 19/14/70 35/13/70 39/14/70
f 35/13/70 19/14/70 20/13/70
f 33/12/71 20/13/71 22/12/71
f 20/13/71 33/12/71 35/13/71
f 27/12/21 45/11/21 26/11/21
f 45/11/21 27/12/21 43/12/21
f 24/14/72 37/15/72 31/14/72
f 37/15/72 24/14/72 25/15/72
f 26/16/1 22/17/1 21/16/1
f 22/17/1 26/16/1 20/18/1
f 20/18/1 26/16/1 19/19/1
f 19/19/1 26/16/1 25/20/1
f 25/20/1 26/16/1 24/19/1
f 24/19/1 26/16/1 23/18/1
f 23/18/1 26/16/1 27/17/1
f 35/18/57 41/16/57 33/17/57
f 41/16/57 35/18/57 45/16/57
f 45/16/57 35/18/57 39/19/57
f 45/16/57 39/19/57 37/20/57
f 45/16/57 37/20/57 31/19/57
f 45/16/57 31/19/57 30/18/57
f 45/16/57 30/18/57 43/17/57
