# Blender 4.1.1
# www.blender.org
mtllib wall-gate@gate2.mtl
o wall-gate.002
v -4.255910 2.553546 -5.958273
v -4.255910 2.553546 -8.511819
v -4.255909 6.809455 -5.958273
v -4.255909 12.767729 -8.511819
v -4.255909 9.089587 -5.504726
v -4.255909 11.022589 -4.213136
v -4.255909 12.314181 -2.280132
v -4.255909 12.767729 0.000000
v -4.255908 12.767729 8.511819
v -4.255909 12.314181 2.280133
v -4.255909 11.022589 4.213136
v -4.255909 9.089587 5.504726
v -4.255909 6.809455 5.958273
v -4.255909 2.553546 5.958273
v -4.255909 2.553546 8.511819
v 4.255910 12.314181 -2.280133
v 2.553546 12.314181 -2.280133
v 4.255910 12.767729 -0.000000
v 2.553546 12.767729 -0.000000
v -2.553545 11.022589 4.213136
v -2.553545 9.089587 5.504726
v -2.553545 12.767729 0.000000
v -2.553545 12.314181 2.280133
v 4.255910 12.314181 2.280132
v 2.553547 12.314181 2.280133
v 4.255910 11.022589 4.213136
v 2.553547 11.022589 4.213136
v 2.553545 2.553546 -5.958273
v 2.553546 6.809455 -5.958273
v 4.255909 2.553545 -5.958273
v 4.255909 6.809455 -5.958273
v 4.255910 11.022589 -4.213136
v 2.553546 11.022589 -4.213136
v -2.553546 6.809455 -5.958273
v -2.553546 2.553546 -5.958273
v 2.553546 9.089587 -5.504726
v 4.255910 9.089587 -5.504726
v -2.553545 9.089587 -5.504726
v 2.553547 9.089587 5.504726
v 2.553546 6.809455 5.958273
v 4.255910 9.089587 5.504726
v 4.255910 6.809455 5.958273
v 4.255910 2.553545 5.958273
v 4.255910 2.553545 8.511819
v 4.255910 12.767729 8.511819
v 4.255910 12.767729 -8.511819
v 4.255910 11.916547 -8.511819
v 4.255909 2.553545 -8.511819
v -2.553545 6.809455 5.958273
v -2.553545 12.314181 -2.280133
v -2.553545 11.022589 -4.213136
v 2.553546 2.553546 5.958273
v -2.553545 2.553546 5.958273
v -5.107091 0.000000 5.958273
v 5.107092 -0.000000 5.958273
v -5.107091 1.376631 5.958273
v -4.806152 1.827016 5.958273
v -4.505215 1.951670 5.958273
v -4.255909 2.553546 5.958273
v 4.255910 2.553545 5.958273
v 4.505216 1.951670 5.958273
v 4.806153 1.827016 5.958273
v 5.107092 1.376630 5.958273
v 5.107092 -0.000000 8.511819
v 5.107092 1.376630 8.511819
v 4.806153 1.827016 8.511819
v 4.505216 1.951670 8.511819
v -5.107091 0.000000 8.511819
v -5.107091 1.376631 8.511819
v -4.806152 1.827016 8.511819
v -4.505215 1.951670 8.511819
v -5.107092 0.000000 -8.511819
v 5.107091 -0.000000 -8.511819
v -5.107092 1.376631 -8.511819
v -4.806153 1.827016 -8.511819
v -4.505216 1.951670 -8.511819
v 4.505215 1.951670 -8.511819
v 4.806152 1.827016 -8.511819
v 5.107091 1.376630 -8.511819
v 5.107091 -0.000000 -5.958273
v 5.107091 1.376630 -5.958273
v 4.806152 1.827016 -5.958273
v 4.505216 1.951670 -5.958273
v 4.255909 2.553545 -5.958273
v -5.107092 0.000000 -5.958273
v -5.107091 1.376631 -5.958273
v -4.806152 1.827016 -5.958273
v -4.505216 1.951670 -5.958273
v -4.255910 2.553546 -5.958273
v 2.553545 -0.000000 -5.958273
v 2.553545 -0.000000 -5.107091
v 2.553546 6.725621 -5.107091
v 2.553546 8.757474 -4.702931
v 2.553546 10.408921 -3.599468
v 2.553546 11.512387 -1.948018
v 2.553546 11.899870 -0.000000
v 2.553546 12.767729 -0.000000
v 2.553546 11.512387 1.948018
v 2.553546 10.408921 3.599468
v 2.553546 8.757474 4.702931
v 2.553546 6.725621 5.107091
v 2.553546 -0.000000 5.958273
v 2.553546 -0.000000 5.107091
v -2.553545 11.512387 1.948018
v -2.553545 10.408921 3.599468
v -2.553545 11.512387 -1.948018
v -2.553545 11.899870 0.000000
v -2.553545 0.000000 5.958273
v -2.553545 0.000000 5.107091
v -2.553545 6.725621 5.107091
v -2.553545 8.757474 4.702931
v -2.553545 12.767729 0.000000
v -2.553545 10.408921 -3.599468
v -2.553545 8.757474 -4.702931
v -2.553546 6.725621 -5.107091
v -2.553546 0.000000 -5.958273
v -2.553546 0.000000 -5.107091
v -5.107091 15.321275 -3.404727
v -5.107091 17.023638 -5.107091
v -3.404727 17.023638 -3.404727
v -5.107091 17.023638 -1.702364
v -4.505216 13.369605 -8.511819
v -5.107091 13.618911 -8.511819
v -4.505215 13.369605 8.511819
v -5.107090 13.618911 8.511819
v 5.107091 13.618911 -8.511819
v 4.505216 13.369605 -8.511819
v 5.107092 13.618911 8.511819
v 4.505217 13.369605 8.511819
v -5.107091 17.023638 -8.511819
v 5.107092 17.023638 -8.511819
v 5.107092 17.023638 8.511819
v -5.107090 17.023638 8.511819
v 0.425590 2.975439 5.107091
v 0.425590 2.975439 -5.107091
v 0.425591 4.677803 5.107091
v 0.425590 4.677803 -5.107091
v 1.276772 2.975439 -5.107091
v 1.276772 2.975439 5.107091
v 1.276772 4.677803 -5.107091
v 1.276772 4.677803 5.107091
v -0.212795 0.000000 2.340750
v 0.212796 -0.000000 2.340750
v -0.425591 0.851182 2.127955
v 0.425591 0.851182 2.127955
v -0.212795 0.000000 -0.212795
v 0.212795 -0.000000 -0.212795
v -0.425591 0.851182 -0.425591
v 0.425591 0.851182 -0.425591
v -0.212795 0.000000 2.766341
v 0.212796 -0.000000 2.766341
v -0.425591 0.851182 -2.127955
v -0.212796 0.000000 -2.340750
v -0.425591 0.851182 -2.979137
v -0.212796 0.000000 -2.766341
v 0.425591 0.851182 -2.127955
v 0.425591 0.851182 -2.979137
v 0.212795 -0.000000 -2.340750
v 0.212795 -0.000000 -2.766341
v 0.425591 0.851182 0.425591
v 0.212795 -0.000000 0.212795
v -0.212795 0.000000 0.212795
v -0.425591 0.851182 0.425591
v 0.425591 0.851182 2.979137
v 0.425592 14.040804 2.979137
v 0.425592 14.040804 2.127955
v -0.425590 0.851182 2.979137
v 0.425592 14.040804 0.425591
v 0.425592 14.040804 -0.425591
v 0.425591 14.040804 -2.127955
v 0.425591 14.040804 -2.979137
v -0.425591 14.040804 -2.979137
v -0.425591 14.040804 -2.127955
v -0.425590 14.040804 0.425591
v -0.425591 14.040804 -0.425591
v -0.425590 14.040804 2.979137
v -0.425590 14.040804 2.127955
v -1.276772 2.975439 5.107091
v -1.276772 2.975439 -5.107091
v -1.276772 4.677803 5.107091
v -1.276772 4.677803 -5.107091
v -0.425590 2.975439 -5.107091
v -0.425590 2.975439 5.107091
v -0.425590 4.677803 -5.107091
v -0.425590 4.677803 5.107091
vn -1.0000 -0.0000 -0.0000
vn -0.0000 -1.0000 -0.0000
vn -0.0000 -0.9239 0.3826
vn -0.0000 -0.7071 -0.7071
vn -0.0000 -0.3827 -0.9239
vn -0.0000 -0.9239 -0.3826
vn -0.0000 -0.9239 -0.3827
vn -0.0000 -0.0000 1.0000
vn -0.0000 -0.0980 0.9952
vn -0.0000 -0.9239 0.3827
vn -0.0000 -0.7071 0.7071
vn -0.0000 -0.0981 0.9952
vn -0.0000 -0.3826 0.9239
vn -0.0000 -0.3826 -0.9239
vn -0.0000 -0.0981 -0.9952
vn 1.0000 -0.0000 -0.0000
vn -0.0000 -0.3827 0.9239
vn -0.0000 -0.0980 -0.9952
vn -0.0000 -0.0000 -1.0000
vn 0.9570 0.2902 -0.0000
vn 0.6344 0.7730 -0.0000
vn 0.9569 0.2903 -0.0000
vn 0.7071 0.7071 -0.0000
vn 0.9239 0.3827 -0.0000
vn -0.9570 0.2902 -0.0000
vn -0.9569 0.2903 -0.0000
vn -0.6344 0.7730 -0.0000
vn -0.7071 0.7071 -0.0000
vn -0.9239 0.3827 -0.0000
vn -0.5773 0.5774 0.5774
vn -0.5773 0.5774 -0.5774
vn -0.7071 -0.7071 -0.0000
vn -0.3827 -0.9239 -0.0000
vn 0.3827 -0.9239 -0.0000
vn 0.7071 -0.7071 -0.0000
vn -0.0000 1.0000 -0.0000
vn -0.9239 -0.3827 -0.0000
vn 0.9239 -0.3827 -0.0000
vn -0.0000 -0.1122 -0.9937
vn -0.0000 -0.2425 -0.9701
vn -0.9937 -0.1122 -0.0000
vn -0.9701 -0.2425 -0.0000
vn 0.9701 -0.2425 -0.0000
vn 0.9937 -0.1122 -0.0000
vn 0.9937 -0.1121 -0.0000
vn -0.0000 -0.1122 0.9937
vn -0.0000 -0.2425 0.9701
vn -0.0000 -0.1121 -0.9937
vn -0.0000 -0.1121 0.9937
vn -0.9937 -0.1121 -0.0000
vt 0.343750 0.131667
vt 0.343750 0.065000
vt 0.343750 0.225000
vt 0.343750 0.167384
vt 0.343750 0.197663
vt 0.343750 0.217895
vt 0.343750 0.211667
vt 0.343750 0.178911
vt 0.343750 0.125000
vt 0.343750 0.196548
vt 0.343750 0.201430
vt 0.468750 0.078333
vt 0.468750 0.025000
vt 0.468750 0.077677
vt 0.468750 0.093591
vt 0.468750 0.096192
vt 0.468750 0.106525
vt 0.468750 0.111332
vt 0.468750 0.115168
vt 0.468750 0.121448
vt 0.468750 0.118203
vt 0.468750 0.125000
vt 0.468750 0.175000
vt 0.468750 0.135000
vt 0.468750 0.089142
vt 0.468750 0.095000
vt 0.468750 0.075000
vt 0.718750 0.225000
vt 0.718750 0.025000
vt 0.718750 0.037124
s 0
usemtl colormap.011
f 3/1/1 2/2/1 1/2/1
f 2/2/1 3/1/1 4/3/1
f 4/3/1 3/1/1 5/4/1
f 4/3/1 5/4/1 6/5/1
f 4/3/1 6/5/1 7/6/1
f 4/3/1 7/6/1 8/3/1
f 10/6/1 9/3/1 8/3/1
f 11/5/1 9/3/1 10/6/1
f 12/4/1 9/3/1 11/5/1
f 13/1/1 9/3/1 12/4/1
f 14/2/1 9/3/1 13/1/1
f 9/3/1 14/2/1 15/2/1
f 18/3/2 17/6/3 16/6/3
f 17/6/3 18/3/2 19/3/2
f 20/5/4 12/4/5 11/5/4
f 12/4/5 20/5/4 21/4/5
f 23/6/6 8/3/2 22/3/2
f 8/3/2 23/6/6 10/6/6
f 26/5/4 25/6/7 24/6/7
f 25/6/7 26/5/4 27/5/4
f 30/2/8 29/1/9 28/2/8
f 29/1/9 30/2/8 31/1/9
f 16/6/10 33/5/11 32/5/11
f 33/5/11 16/6/10 17/6/10
f 24/6/6 19/3/2 18/3/2
f 19/3/2 24/6/6 25/6/6
f 1/2/8 34/1/9 3/1/9
f 34/1/9 1/2/8 35/2/8
f 31/1/12 36/4/13 29/1/12
f 36/4/13 31/1/12 37/4/13
f 34/1/12 5/4/13 3/1/12
f 5/4/13 34/1/12 38/4/13
f 41/4/14 40/1/15 39/4/14
f 40/1/15 41/4/14 42/1/15
f 42/1/16 44/2/16 43/2/16
f 44/2/16 42/1/16 45/3/16
f 45/3/16 42/1/16 41/4/16
f 45/3/16 41/4/16 26/5/16
f 45/3/16 26/5/16 24/6/16
f 45/3/16 24/6/16 18/3/16
f 16/6/16 46/3/16 18/3/16
f 16/6/16 47/7/16 46/3/16
f 32/5/16 47/7/16 16/6/16
f 37/4/16 47/7/16 32/5/16
f 31/1/16 47/7/16 37/4/16
f 30/2/16 47/7/16 31/1/16
f 47/7/16 30/2/16 48/2/16
f 21/4/14 13/1/15 12/4/14
f 13/1/15 21/4/14 49/1/15
f 22/3/2 7/6/3 50/6/3
f 7/6/3 22/3/2 8/3/2
f 20/5/4 10/6/7 23/6/7
f 10/6/7 20/5/4 11/5/4
f 38/4/17 6/5/11 5/4/17
f 6/5/11 38/4/17 51/5/11
f 37/4/17 33/5/11 36/4/17
f 33/5/11 37/4/17 32/5/11
f 26/5/4 39/4/5 27/5/4
f 39/4/5 26/5/4 41/4/5
f 42/1/18 52/2/19 40/1/18
f 52/2/19 42/1/18 43/2/19
f 50/6/10 6/5/11 51/5/11
f 6/5/11 50/6/10 7/6/10
f 49/1/18 14/2/19 13/1/18
f 14/2/19 49/1/18 53/2/19
f 46/3/19 2/2/19 4/3/19
f 2/2/19 46/3/19 48/2/19
f 48/2/19 46/3/19 47/7/19
f 15/2/8 45/3/8 9/3/8
f 45/3/8 15/2/8 44/2/8
f 56/8/19 55/9/19 54/9/19
f 55/9/19 56/8/19 57/10/19
f 55/9/19 57/10/19 58/11/19
f 55/9/19 58/11/19 59/3/19
f 55/9/19 59/3/19 60/3/19
f 55/9/19 60/3/19 61/11/19
f 55/9/19 61/11/19 62/10/19
f 55/9/19 62/10/19 63/8/19
f 63/8/20 64/9/16 55/9/16
f 64/9/16 63/8/20 65/8/20
f 62/10/21 65/8/22 63/8/22
f 65/8/22 62/10/21 66/10/21
f 67/11/23 62/10/21 61/11/23
f 62/10/21 67/11/23 66/10/21
f 60/3/24 67/11/23 61/11/23
f 67/11/23 60/3/24 44/3/24
f 55/9/2 68/9/2 54/9/2
f 68/9/2 55/9/2 64/9/2
f 68/9/1 56/8/25 54/9/1
f 56/8/25 68/9/1 69/8/25
f 69/8/26 57/10/27 56/8/26
f 57/10/27 69/8/26 70/10/27
f 64/9/8 69/8/8 68/9/8
f 69/8/8 64/9/8 70/10/8
f 70/10/8 64/9/8 71/11/8
f 71/11/8 64/9/8 15/3/8
f 15/3/8 64/9/8 44/3/8
f 44/3/8 64/9/8 67/11/8
f 67/11/8 64/9/8 66/10/8
f 66/10/8 64/9/8 65/8/8
f 70/10/27 58/11/28 57/10/27
f 58/11/28 70/10/27 71/11/28
f 71/11/28 59/3/29 58/11/28
f 59/3/29 71/11/28 15/3/29
f 74/8/19 73/9/19 72/9/19
f 73/9/19 74/8/19 75/10/19
f 73/9/19 75/10/19 76/11/19
f 73/9/19 76/11/19 2/3/19
f 73/9/19 2/3/19 48/3/19
f 73/9/19 48/3/19 77/11/19
f 73/9/19 77/11/19 78/10/19
f 73/9/19 78/10/19 79/8/19
f 79/8/20 80/9/16 73/9/16
f 80/9/16 79/8/20 81/8/20
f 78/10/21 81/8/22 79/8/22
f 81/8/22 78/10/21 82/10/21
f 83/11/23 78/10/21 77/11/23
f 78/10/21 83/11/23 82/10/21
f 48/3/24 83/11/23 77/11/23
f 83/11/23 48/3/24 84/3/24
f 73/9/2 85/9/2 72/9/2
f 85/9/2 73/9/2 80/9/2
f 85/9/1 74/8/25 72/9/1
f 74/8/25 85/9/1 86/8/25
f 86/8/26 75/10/27 74/8/26
f 75/10/27 86/8/26 87/10/27
f 80/9/8 86/8/8 85/9/8
f 86/8/8 80/9/8 87/10/8
f 87/10/8 80/9/8 88/11/8
f 88/11/8 80/9/8 89/3/8
f 89/3/8 80/9/8 84/3/8
f 84/3/8 80/9/8 83/11/8
f 83/11/8 80/9/8 82/10/8
f 82/10/8 80/9/8 81/8/8
f 87/10/27 76/11/28 75/10/27
f 76/11/28 87/10/27 88/11/28
f 88/11/28 2/3/29 76/11/28
f 2/3/29 88/11/28 89/3/29
f 29/12/16 91/13/16 90/13/16
f 91/13/16 29/12/16 92/14/16
f 92/14/16 29/12/16 93/15/16
f 93/15/16 29/12/16 36/16/16
f 93/15/16 36/16/16 94/17/16
f 94/17/16 36/16/16 33/18/16
f 94/17/16 33/18/16 95/19/16
f 95/19/16 33/18/16 17/20/16
f 95/19/16 17/20/16 96/21/16
f 25/20/16 96/21/16 17/20/16
f 25/20/16 17/20/16 97/22/16
f 25/20/16 98/19/16 96/21/16
f 27/18/16 98/19/16 25/20/16
f 27/18/16 99/17/16 98/19/16
f 39/16/16 99/17/16 27/18/16
f 39/16/16 100/15/16 99/17/16
f 40/12/16 100/15/16 39/16/16
f 40/12/16 101/14/16 100/15/16
f 102/13/16 101/14/16 40/12/16
f 101/14/16 102/13/16 103/13/16
f 99/17/4 104/19/7 98/19/7
f 104/19/7 99/17/4 105/17/4
f 95/19/3 107/21/2 106/19/3
f 107/21/2 95/19/3 96/21/2
f 49/12/1 109/13/1 108/13/1
f 109/13/1 49/12/1 110/14/1
f 110/14/1 49/12/1 111/15/1
f 111/15/1 49/12/1 21/16/1
f 111/15/1 21/16/1 105/17/1
f 105/17/1 21/16/1 20/18/1
f 105/17/1 20/18/1 104/19/1
f 104/19/1 20/18/1 23/20/1
f 104/19/1 23/20/1 107/21/1
f 50/20/1 107/21/1 23/20/1
f 50/20/1 23/20/1 112/22/1
f 50/20/1 106/19/1 107/21/1
f 51/18/1 106/19/1 50/20/1
f 51/18/1 113/17/1 106/19/1
f 38/16/1 113/17/1 51/18/1
f 38/16/1 114/15/1 113/17/1
f 34/12/1 114/15/1 38/16/1
f 34/12/1 115/14/1 114/15/1
f 116/13/1 115/14/1 34/12/1
f 115/14/1 116/13/1 117/13/1
f 92/14/12 114/15/13 115/14/12
f 114/15/13 92/14/12 93/15/13
f 93/15/17 113/17/11 114/15/17
f 113/17/11 93/15/17 94/17/11
f 91/13/8 115/14/9 117/13/8
f 115/14/9 91/13/8 92/14/9
f 95/19/10 113/17/11 94/17/11
f 113/17/11 95/19/10 106/19/10
f 98/19/6 107/21/2 96/21/2
f 107/21/2 98/19/6 104/19/6
f 99/17/4 111/15/5 105/17/4
f 111/15/5 99/17/4 100/15/5
f 100/15/14 110/14/15 111/15/14
f 110/14/15 100/15/14 101/14/15
f 101/14/18 109/13/19 110/14/18
f 109/13/19 101/14/18 103/13/19
f 102/13/2 109/13/2 103/13/2
f 109/13/2 102/13/2 108/13/2
f 91/13/2 116/13/2 90/13/2
f 116/13/2 91/13/2 117/13/2
f 120/23/28 119/23/30 118/24/28
f 121/23/31 120/23/28 118/24/28
f 124/25/32 123/26/33 122/25/32
f 123/26/33 124/25/32 125/26/33
f 128/26/34 127/25/35 126/26/34
f 127/25/35 128/26/34 129/25/35
f 119/23/36 131/23/36 130/23/36
f 131/23/36 119/23/36 120/23/36
f 131/23/36 120/23/36 132/23/36
f 132/23/36 120/23/36 121/23/36
f 132/23/36 121/23/36 133/23/36
f 124/25/8 133/23/8 125/26/8
f 133/23/8 124/25/8 132/23/8
f 132/23/8 124/25/8 9/27/8
f 132/23/8 9/27/8 45/27/8
f 132/23/8 45/27/8 129/25/8
f 132/23/8 129/25/8 128/26/8
f 131/23/16 128/26/16 126/26/16
f 128/26/16 131/23/16 132/23/16
f 131/23/19 123/26/19 130/23/19
f 123/26/19 131/23/19 122/25/19
f 122/25/19 131/23/19 4/27/19
f 4/27/19 131/23/19 46/27/19
f 46/27/19 131/23/19 127/25/19
f 127/25/19 131/23/19 126/26/19
f 124/25/32 8/27/37 9/27/37
f 8/27/37 124/25/32 4/27/37
f 4/27/37 124/25/32 122/25/32
f 133/23/1 123/26/1 125/26/1
f 123/26/1 133/23/1 118/24/1
f 118/24/1 133/23/1 121/23/1
f 118/24/1 130/23/1 123/26/1
f 130/23/1 118/24/1 119/23/1
f 127/25/35 18/27/38 46/27/38
f 18/27/38 127/25/35 45/27/38
f 45/27/38 127/25/35 129/25/35
f 3/1/1 2/2/1 1/2/1
f 2/2/1 3/1/1 4/3/1
f 4/3/1 3/1/1 5/4/1
f 4/3/1 5/4/1 6/5/1
f 4/3/1 6/5/1 7/6/1
f 4/3/1 7/6/1 8/3/1
f 10/6/1 9/3/1 8/3/1
f 11/5/1 9/3/1 10/6/1
f 12/4/1 9/3/1 11/5/1
f 13/1/1 9/3/1 12/4/1
f 14/2/1 9/3/1 13/1/1
f 9/3/1 14/2/1 15/2/1
f 18/3/2 17/6/3 16/6/3
f 17/6/3 18/3/2 19/3/2
f 20/5/4 12/4/5 11/5/4
f 12/4/5 20/5/4 21/4/5
f 23/6/6 8/3/2 22/3/2
f 8/3/2 23/6/6 10/6/6
f 26/5/4 25/6/7 24/6/7
f 25/6/7 26/5/4 27/5/4
f 30/2/8 29/1/9 28/2/8
f 29/1/9 30/2/8 31/1/9
f 16/6/10 33/5/11 32/5/11
f 33/5/11 16/6/10 17/6/10
f 24/6/6 19/3/2 18/3/2
f 19/3/2 24/6/6 25/6/6
f 1/2/8 34/1/9 3/1/9
f 34/1/9 1/2/8 35/2/8
f 31/1/12 36/4/13 29/1/12
f 36/4/13 31/1/12 37/4/13
f 34/1/12 5/4/13 3/1/12
f 5/4/13 34/1/12 38/4/13
f 41/4/14 40/1/15 39/4/14
f 40/1/15 41/4/14 42/1/15
f 42/1/16 44/2/16 43/2/16
f 44/2/16 42/1/16 45/3/16
f 45/3/16 42/1/16 41/4/16
f 45/3/16 41/4/16 26/5/16
f 45/3/16 26/5/16 24/6/16
f 45/3/16 24/6/16 18/3/16
f 16/6/16 46/3/16 18/3/16
f 16/6/16 47/7/16 46/3/16
f 32/5/16 47/7/16 16/6/16
f 37/4/16 47/7/16 32/5/16
f 31/1/16 47/7/16 37/4/16
f 30/2/16 47/7/16 31/1/16
f 47/7/16 30/2/16 48/2/16
f 21/4/14 13/1/15 12/4/14
f 13/1/15 21/4/14 49/1/15
f 22/3/2 7/6/3 50/6/3
f 7/6/3 22/3/2 8/3/2
f 20/5/4 10/6/7 23/6/7
f 10/6/7 20/5/4 11/5/4
f 38/4/17 6/5/11 5/4/17
f 6/5/11 38/4/17 51/5/11
f 37/4/17 33/5/11 36/4/17
f 33/5/11 37/4/17 32/5/11
f 26/5/4 39/4/5 27/5/4
f 39/4/5 26/5/4 41/4/5
f 42/1/18 52/2/19 40/1/18
f 52/2/19 42/1/18 43/2/19
f 50/6/10 6/5/11 51/5/11
f 6/5/11 50/6/10 7/6/10
f 49/1/18 14/2/19 13/1/18
f 14/2/19 49/1/18 53/2/19
f 46/3/19 2/2/19 4/3/19
f 2/2/19 46/3/19 48/2/19
f 48/2/19 46/3/19 47/7/19
f 15/2/8 45/3/8 9/3/8
f 45/3/8 15/2/8 44/2/8
f 56/8/19 55/9/19 54/9/19
f 55/9/19 56/8/19 57/10/19
f 55/9/19 57/10/19 58/11/19
f 55/9/19 58/11/19 59/3/19
f 55/9/19 59/3/19 60/3/19
f 55/9/19 60/3/19 61/11/19
f 55/9/19 61/11/19 62/10/19
f 55/9/19 62/10/19 63/8/19
f 63/8/20 64/9/16 55/9/16
f 64/9/16 63/8/20 65/8/20
f 62/10/21 65/8/22 63/8/22
f 65/8/22 62/10/21 66/10/21
f 67/11/23 62/10/21 61/11/23
f 62/10/21 67/11/23 66/10/21
f 60/3/24 67/11/23 61/11/23
f 67/11/23 60/3/24 44/3/24
f 55/9/2 68/9/2 54/9/2
f 68/9/2 55/9/2 64/9/2
f 68/9/1 56/8/25 54/9/1
f 56/8/25 68/9/1 69/8/25
f 69/8/26 57/10/27 56/8/26
f 57/10/27 69/8/26 70/10/27
f 64/9/8 69/8/8 68/9/8
f 69/8/8 64/9/8 70/10/8
f 70/10/8 64/9/8 71/11/8
f 71/11/8 64/9/8 15/3/8
f 15/3/8 64/9/8 44/3/8
f 44/3/8 64/9/8 67/11/8
f 67/11/8 64/9/8 66/10/8
f 66/10/8 64/9/8 65/8/8
f 70/10/27 58/11/28 57/10/27
f 58/11/28 70/10/27 71/11/28
f 71/11/28 59/3/29 58/11/28
f 59/3/29 71/11/28 15/3/29
f 74/8/19 73/9/19 72/9/19
f 73/9/19 74/8/19 75/10/19
f 73/9/19 75/10/19 76/11/19
f 73/9/19 76/11/19 2/3/19
f 73/9/19 2/3/19 48/3/19
f 73/9/19 48/3/19 77/11/19
f 73/9/19 77/11/19 78/10/19
f 73/9/19 78/10/19 79/8/19
f 79/8/20 80/9/16 73/9/16
f 80/9/16 79/8/20 81/8/20
f 78/10/21 81/8/22 79/8/22
f 81/8/22 78/10/21 82/10/21
f 83/11/23 78/10/21 77/11/23
f 78/10/21 83/11/23 82/10/21
f 48/3/24 83/11/23 77/11/23
f 83/11/23 48/3/24 84/3/24
f 73/9/2 85/9/2 72/9/2
f 85/9/2 73/9/2 80/9/2
f 85/9/1 74/8/25 72/9/1
f 74/8/25 85/9/1 86/8/25
f 86/8/26 75/10/27 74/8/26
f 75/10/27 86/8/26 87/10/27
f 80/9/8 86/8/8 85/9/8
f 86/8/8 80/9/8 87/10/8
f 87/10/8 80/9/8 88/11/8
f 88/11/8 80/9/8 89/3/8
f 89/3/8 80/9/8 84/3/8
f 84/3/8 80/9/8 83/11/8
f 83/11/8 80/9/8 82/10/8
f 82/10/8 80/9/8 81/8/8
f 87/10/27 76/11/28 75/10/27
f 76/11/28 87/10/27 88/11/28
f 88/11/28 2/3/29 76/11/28
f 2/3/29 88/11/28 89/3/29
f 29/12/16 91/13/16 90/13/16
f 91/13/16 29/12/16 92/14/16
f 92/14/16 29/12/16 93/15/16
f 93/15/16 29/12/16 36/16/16
f 93/15/16 36/16/16 94/17/16
f 94/17/16 36/16/16 33/18/16
f 94/17/16 33/18/16 95/19/16
f 95/19/16 33/18/16 17/20/16
f 95/19/16 17/20/16 96/21/16
f 25/20/16 96/21/16 17/20/16
f 25/20/16 17/20/16 97/22/16
f 25/20/16 98/19/16 96/21/16
f 27/18/16 98/19/16 25/20/16
f 27/18/16 99/17/16 98/19/16
f 39/16/16 99/17/16 27/18/16
f 39/16/16 100/15/16 99/17/16
f 40/12/16 100/15/16 39/16/16
f 40/12/16 101/14/16 100/15/16
f 102/13/16 101/14/16 40/12/16
f 101/14/16 102/13/16 103/13/16
f 99/17/4 104/19/7 98/19/7
f 104/19/7 99/17/4 105/17/4
f 95/19/3 107/21/2 106/19/3
f 107/21/2 95/19/3 96/21/2
f 49/12/1 109/13/1 108/13/1
f 109/13/1 49/12/1 110/14/1
f 110/14/1 49/12/1 111/15/1
f 111/15/1 49/12/1 21/16/1
f 111/15/1 21/16/1 105/17/1
f 105/17/1 21/16/1 20/18/1
f 105/17/1 20/18/1 104/19/1
f 104/19/1 20/18/1 23/20/1
f 104/19/1 23/20/1 107/21/1
f 50/20/1 107/21/1 23/20/1
f 50/20/1 23/20/1 112/22/1
f 50/20/1 106/19/1 107/21/1
f 51/18/1 106/19/1 50/20/1
f 51/18/1 113/17/1 106/19/1
f 38/16/1 113/17/1 51/18/1
f 38/16/1 114/15/1 113/17/1
f 34/12/1 114/15/1 38/16/1
f 34/12/1 115/14/1 114/15/1
f 116/13/1 115/14/1 34/12/1
f 115/14/1 116/13/1 117/13/1
f 92/14/12 114/15/13 115/14/12
f 114/15/13 92/14/12 93/15/13
f 93/15/17 113/17/11 114/15/17
f 113/17/11 93/15/17 94/17/11
f 91/13/8 115/14/9 117/13/8
f 115/14/9 91/13/8 92/14/9
f 95/19/10 113/17/11 94/17/11
f 113/17/11 95/19/10 106/19/10
f 98/19/6 107/21/2 96/21/2
f 107/21/2 98/19/6 104/19/6
f 99/17/4 111/15/5 105/17/4
f 111/15/5 99/17/4 100/15/5
f 100/15/14 110/14/15 111/15/14
f 110/14/15 100/15/14 101/14/15
f 101/14/18 109/13/19 110/14/18
f 109/13/19 101/14/18 103/13/19
f 102/13/2 109/13/2 103/13/2
f 109/13/2 102/13/2 108/13/2
f 91/13/2 116/13/2 90/13/2
f 116/13/2 91/13/2 117/13/2
f 120/23/28 119/23/30 118/24/28
f 121/23/31 120/23/28 118/24/28
f 124/25/32 123/26/33 122/25/32
f 123/26/33 124/25/32 125/26/33
f 128/26/34 127/25/35 126/26/34
f 127/25/35 128/26/34 129/25/35
f 119/23/36 131/23/36 130/23/36
f 131/23/36 119/23/36 120/23/36
f 131/23/36 120/23/36 132/23/36
f 132/23/36 120/23/36 121/23/36
f 132/23/36 121/23/36 133/23/36
f 124/25/8 133/23/8 125/26/8
f 133/23/8 124/25/8 132/23/8
f 132/23/8 124/25/8 9/27/8
f 132/23/8 9/27/8 45/27/8
f 132/23/8 45/27/8 129/25/8
f 132/23/8 129/25/8 128/26/8
f 131/23/16 128/26/16 126/26/16
f 128/26/16 131/23/16 132/23/16
f 131/23/19 123/26/19 130/23/19
f 123/26/19 131/23/19 122/25/19
f 122/25/19 131/23/19 4/27/19
f 4/27/19 131/23/19 46/27/19
f 46/27/19 131/23/19 127/25/19
f 127/25/19 131/23/19 126/26/19
f 124/25/32 8/27/37 9/27/37
f 8/27/37 124/25/32 4/27/37
f 4/27/37 124/25/32 122/25/32
f 133/23/1 123/26/1 125/26/1
f 123/26/1 133/23/1 118/24/1
f 118/24/1 133/23/1 121/23/1
f 118/24/1 130/23/1 123/26/1
f 130/23/1 118/24/1 119/23/1
f 127/25/35 18/27/38 46/27/38
f 18/27/38 127/25/35 45/27/38
f 45/27/38 127/25/35 129/25/35
f 136/28/1 135/29/1 134/29/1
f 135/29/1 136/28/1 137/28/1
f 140/28/16 139/29/16 138/29/16
f 139/29/16 140/28/16 141/28/16
f 139/29/8 136/28/8 134/29/8
f 136/28/8 139/29/8 141/28/8
f 136/28/36 140/28/36 137/28/36
f 140/28/36 136/28/36 141/28/36
f 140/28/19 135/29/19 137/28/19
f 135/29/19 140/28/19 138/29/19
f 138/29/2 134/29/2 135/29/2
f 134/29/2 138/29/2 139/29/2
f 144/30/39 143/29/40 142/29/40
f 143/29/40 144/30/39 145/30/39
f 148/30/39 147/29/40 146/29/40
f 147/29/40 148/30/39 149/30/39
f 143/29/2 150/29/2 142/29/2
f 150/29/2 143/29/2 151/29/2
f 154/30/41 153/29/42 152/30/41
f 153/29/42 154/30/41 155/29/42
f 158/29/43 157/30/44 156/30/44
f 157/30/44 158/29/43 159/29/43
f 161/29/43 149/30/44 160/30/44
f 149/30/44 161/29/43 147/29/43
f 146/29/2 161/29/2 162/29/2
f 161/29/2 146/29/2 147/29/2
f 154/30/39 159/29/40 155/29/40
f 159/29/40 154/30/39 157/30/39
f 148/30/41 162/29/42 163/30/41
f 162/29/42 148/30/41 146/29/42
f 145/30/45 165/28/16 164/30/45
f 165/28/16 145/30/45 166/28/16
f 164/30/46 150/29/47 151/29/47
f 150/29/47 164/30/46 167/30/46
f 151/29/43 145/30/44 164/30/44
f 145/30/44 151/29/43 143/29/43
f 156/30/46 153/29/47 158/29/47
f 153/29/47 156/30/46 152/30/46
f 160/30/46 162/29/47 161/29/47
f 162/29/47 160/30/46 163/30/46
f 159/29/2 153/29/2 155/29/2
f 153/29/2 159/29/2 158/29/2
f 144/30/41 150/29/42 167/30/41
f 150/29/42 144/30/41 142/29/42
f 149/30/45 168/28/16 160/30/45
f 168/28/16 149/30/45 169/28/16
f 157/30/45 170/28/16 156/30/45
f 170/28/16 157/30/45 171/28/16
f 172/28/19 157/30/48 154/30/48
f 157/30/48 172/28/19 171/28/19
f 170/28/8 152/30/49 156/30/49
f 152/30/49 170/28/8 173/28/8
f 168/28/8 163/30/49 160/30/49
f 163/30/49 168/28/8 174/28/8
f 175/28/19 149/30/48 148/30/48
f 149/30/48 175/28/19 169/28/19
f 165/28/8 167/30/49 164/30/49
f 167/30/49 165/28/8 176/28/8
f 173/28/1 154/30/50 152/30/50
f 154/30/50 173/28/1 172/28/1
f 174/28/1 148/30/50 163/30/50
f 148/30/50 174/28/1 175/28/1
f 173/28/36 171/28/36 172/28/36
f 171/28/36 173/28/36 170/28/36
f 176/28/36 166/28/36 177/28/36
f 166/28/36 176/28/36 165/28/36
f 174/28/36 169/28/36 175/28/36
f 169/28/36 174/28/36 168/28/36
f 177/28/19 145/30/48 144/30/48
f 145/30/48 177/28/19 166/28/19
f 176/28/1 144/30/50 167/30/50
f 144/30/50 176/28/1 177/28/1
f 180/28/1 179/29/1 178/29/1
f 179/29/1 180/28/1 181/28/1
f 184/28/16 183/29/16 182/29/16
f 183/29/16 184/28/16 185/28/16
f 183/29/8 180/28/8 178/29/8
f 180/28/8 183/29/8 185/28/8
f 180/28/36 184/28/36 181/28/36
f 184/28/36 180/28/36 185/28/36
f 184/28/19 179/29/19 181/28/19
f 179/29/19 184/28/19 182/29/19
f 182/29/2 178/29/2 179/29/2
f 178/29/2 182/29/2 183/29/2
