# Blender 4.1.1
# www.blender.org
mtllib wall-narrow-corner.mtl
o wall-narrow-corner
v -0.250000 0.250000 -0.280000
v -0.250000 0.215000 -0.450000
v -0.215000 0.250000 -0.450000
v -0.215000 0.250000 -1.010000
v -0.250000 0.215000 -1.010000
v -0.250000 0.250000 -1.110000
v 0.250000 0.250000 0.000000
v 0.250000 -0.250000 0.000000
v -0.250000 0.250000 0.000000
v -0.250000 -0.250000 0.000000
v -0.250000 0.250000 -1.180000
v -0.250000 -0.040836 -1.180000
v -0.250000 -0.145418 -1.220000
v -0.250000 -0.040836 -1.220000
v -0.250000 -0.215000 -1.010000
v -0.250000 -0.145418 -1.265000
v -0.250000 -0.250000 -1.265000
v -0.250000 -0.250000 -1.110000
v -0.250000 -0.215000 -0.450000
v -0.250000 -0.250000 -0.280000
v 0.250000 -0.250000 -0.280000
v 0.250000 0.250000 -0.280000
v 0.215000 0.250000 -0.450000
v 0.215000 0.250000 -1.010000
v 0.250000 0.250000 -1.110000
v 0.040836 0.250000 -1.180000
v 0.250000 0.250000 -1.265000
v 0.130495 0.250000 -1.220000
v 0.130495 0.250000 -1.265000
v 0.040836 0.250000 -1.220000
v 0.215000 -0.215000 -0.450000
v 0.250000 -0.250000 -1.110000
v 0.215000 -0.215000 -1.010000
v 0.250000 -0.250000 -1.310000
v 0.250000 0.000000 -1.265000
v 0.250000 0.000000 -1.310000
v -0.000000 -0.250000 -1.265000
v -0.000000 -0.250000 -1.310000
v 0.040836 -0.040836 -1.180000
v 0.040836 -0.040836 -1.220000
v -0.000000 -0.145418 -1.220000
v -0.000000 -0.080495 -1.220000
v 0.080495 -0.080495 -1.220000
v 0.080495 0.000000 -1.220000
v 0.130495 0.000000 -1.220000
v -0.000000 -0.145418 -1.265000
v 0.130495 0.000000 -1.265000
v 0.080495 0.000000 -1.310000
v 0.080495 -0.080495 -1.310000
v -0.000000 -0.080495 -1.310000
vn -0.6997 0.6997 -0.1441
vn -0.6864 0.6864 0.2402
vn -0.0000 -0.0000 1.0000
vn -1.0000 -0.0000 -0.0000
vn 1.0000 -0.0000 -0.0000
vn -0.0000 1.0000 -0.0000
vn 0.9795 -0.0000 -0.2017
vn -0.7071 0.7071 -0.0000
vn 0.9439 -0.0000 0.3304
vn -0.0000 -0.9439 0.3304
vn -0.0000 -0.9439 0.3303
vn -0.0000 -1.0000 -0.0000
vn -0.0000 -0.0000 -1.0000
vn -0.0000 -0.9795 -0.2017
vt 0.843750 0.093702
vt 0.843750 0.067748
vt 0.843750 0.194466
vt 0.843750 0.179199
vt 0.843750 0.025000
vt 0.843750 0.205153
vt 0.843750 0.211259
vt 0.843750 0.218130
vt 0.843750 0.225000
vt 0.968750 0.179199
vt 0.968750 0.093702
vt 0.968750 0.205153
s 0
usemtl colormap.011
f 3/1/1 2/1/1 1/2/1
f 6/3/2 5/4/2 4/4/2
f 9/5/3 8/5/3 7/5/3
f 8/5/3 9/5/3 10/5/3
f 11/6/4 5/4/4 6/3/4
f 12/6/4 5/4/4 11/6/4
f 5/4/4 12/6/4 2/1/4
f 12/6/4 9/5/4 2/1/4
f 2/1/4 9/5/4 1/2/4
f 13/7/4 9/5/4 12/6/4
f 14/7/4 13/7/4 12/6/4
f 15/4/4 9/5/4 13/7/4
f 16/8/4 15/4/4 13/7/4
f 17/8/4 15/4/4 16/8/4
f 15/4/4 17/8/4 18/3/4
f 19/1/4 9/5/4 15/4/4
f 20/2/4 9/5/4 19/1/4
f 9/5/4 20/2/4 10/5/4
f 22/2/5 8/5/5 21/2/5
f 8/5/5 22/2/5 7/5/5
f 22/2/6 9/5/6 7/5/6
f 9/5/6 22/2/6 1/2/6
f 1/2/6 22/2/6 23/1/6
f 1/2/6 23/1/6 3/1/6
f 3/1/6 23/1/6 24/4/6
f 3/1/6 24/4/6 4/4/6
f 4/4/6 24/4/6 25/3/6
f 4/4/6 25/3/6 6/3/6
f 6/3/6 25/3/6 26/6/6
f 11/6/6 6/3/6 26/6/6
f 26/6/6 25/3/6 27/8/6
f 26/6/6 27/8/6 28/7/6
f 28/7/6 27/8/6 29/8/6
f 30/7/6 26/6/6 28/7/6
f 31/1/7 22/2/7 21/2/7
f 22/2/7 31/1/7 23/1/7
f 3/1/8 5/4/8 2/1/8
f 5/4/8 3/1/8 4/4/8
f 25/3/9 33/4/9 32/3/9
f 33/4/9 25/3/9 24/4/9
f 15/4/10 32/3/10 33/4/10
f 32/3/11 15/4/11 18/3/11
f 36/9/5 35/8/5 34/9/5
f 25/3/5 34/9/5 35/8/5
f 25/3/5 35/8/5 27/8/5
f 34/9/5 25/3/5 32/3/5
f 17/8/12 32/3/12 18/3/12
f 32/3/12 17/8/12 37/8/12
f 32/3/12 37/8/12 34/9/12
f 34/9/12 37/8/12 38/9/12
f 40/7/6 12/6/6 39/6/6
f 12/6/6 40/7/6 14/7/6
f 26/6/4 40/7/4 39/6/4
f 40/7/4 26/6/4 30/7/4
f 13/7/13 42/7/13 41/7/13
f 42/7/13 13/7/13 14/7/13
f 40/7/13 42/7/13 14/7/13
f 40/7/13 43/7/13 42/7/13
f 43/7/13 40/7/13 44/7/13
f 30/7/13 44/7/13 40/7/13
f 30/7/13 45/7/13 44/7/13
f 45/7/13 30/7/13 28/7/13
f 17/8/13 46/8/13 37/8/13
f 46/8/13 17/8/13 16/8/13
f 35/8/13 29/8/13 27/8/13
f 29/8/13 35/8/13 47/8/13
f 34/9/13 48/9/13 36/9/13
f 48/9/13 34/9/13 49/9/13
f 49/9/13 34/9/13 38/9/13
f 49/9/13 38/9/13 50/9/13
f 42/7/4 46/8/4 41/7/4
f 50/9/4 46/8/4 42/7/4
f 38/9/4 46/8/4 50/9/4
f 46/8/4 38/9/4 37/8/4
f 41/7/6 16/8/6 13/7/6
f 16/8/6 41/7/6 46/8/6
f 49/9/6 42/7/6 43/7/6
f 42/7/6 49/9/6 50/9/6
f 44/7/4 49/9/4 43/7/4
f 49/9/4 44/7/4 48/9/4
f 45/7/6 48/9/6 44/7/6
f 48/9/6 45/7/6 47/8/6
f 48/9/6 47/8/6 35/8/6
f 48/9/6 35/8/6 36/9/6
f 28/7/4 47/8/4 45/7/4
f 47/8/4 28/7/4 29/8/4
f 19/1/14 21/2/14 20/2/14
f 21/2/14 19/1/14 31/1/14
f 20/2/12 8/5/12 10/5/12
f 8/5/12 20/2/12 21/2/12
f 24/10/5 31/11/5 33/10/5
f 31/11/5 24/10/5 23/11/5
f 19/11/12 33/10/12 31/11/12
f 33/10/12 19/11/12 15/10/12
f 12/12/13 26/12/13 39/12/13
f 26/12/13 12/12/13 11/12/13
f 3/1/1 2/1/1 1/2/1
f 6/3/2 5/4/2 4/4/2
f 9/5/3 8/5/3 7/5/3
f 8/5/3 9/5/3 10/5/3
f 11/6/4 5/4/4 6/3/4
f 12/6/4 5/4/4 11/6/4
f 5/4/4 12/6/4 2/1/4
f 12/6/4 9/5/4 2/1/4
f 2/1/4 9/5/4 1/2/4
f 13/7/4 9/5/4 12/6/4
f 14/7/4 13/7/4 12/6/4
f 15/4/4 9/5/4 13/7/4
f 16/8/4 15/4/4 13/7/4
f 17/8/4 15/4/4 16/8/4
f 15/4/4 17/8/4 18/3/4
f 19/1/4 9/5/4 15/4/4
f 20/2/4 9/5/4 19/1/4
f 9/5/4 20/2/4 10/5/4
f 22/2/5 8/5/5 21/2/5
f 8/5/5 22/2/5 7/5/5
f 22/2/6 9/5/6 7/5/6
f 9/5/6 22/2/6 1/2/6
f 1/2/6 22/2/6 23/1/6
f 1/2/6 23/1/6 3/1/6
f 3/1/6 23/1/6 24/4/6
f 3/1/6 24/4/6 4/4/6
f 4/4/6 24/4/6 25/3/6
f 4/4/6 25/3/6 6/3/6
f 6/3/6 25/3/6 26/6/6
f 11/6/6 6/3/6 26/6/6
f 26/6/6 25/3/6 27/8/6
f 26/6/6 27/8/6 28/7/6
f 28/7/6 27/8/6 29/8/6
f 30/7/6 26/6/6 28/7/6
f 31/1/7 22/2/7 21/2/7
f 22/2/7 31/1/7 23/1/7
f 3/1/8 5/4/8 2/1/8
f 5/4/8 3/1/8 4/4/8
f 25/3/9 33/4/9 32/3/9
f 33/4/9 25/3/9 24/4/9
f 15/4/10 32/3/10 33/4/10
f 32/3/11 15/4/11 18/3/11
f 36/9/5 35/8/5 34/9/5
f 25/3/5 34/9/5 35/8/5
f 25/3/5 35/8/5 27/8/5
f 34/9/5 25/3/5 32/3/5
f 17/8/12 32/3/12 18/3/12
f 32/3/12 17/8/12 37/8/12
f 32/3/12 37/8/12 34/9/12
f 34/9/12 37/8/12 38/9/12
f 40/7/6 12/6/6 39/6/6
f 12/6/6 40/7/6 14/7/6
f 26/6/4 40/7/4 39/6/4
f 40/7/4 26/6/4 30/7/4
f 13/7/13 42/7/13 41/7/13
f 42/7/13 13/7/13 14/7/13
f 40/7/13 42/7/13 14/7/13
f 40/7/13 43/7/13 42/7/13
f 43/7/13 40/7/13 44/7/13
f 30/7/13 44/7/13 40/7/13
f 30/7/13 45/7/13 44/7/13
f 45/7/13 30/7/13 28/7/13
f 17/8/13 46/8/13 37/8/13
f 46/8/13 17/8/13 16/8/13
f 35/8/13 29/8/13 27/8/13
f 29/8/13 35/8/13 47/8/13
f 34/9/13 48/9/13 36/9/13
f 48/9/13 34/9/13 49/9/13
f 49/9/13 34/9/13 38/9/13
f 49/9/13 38/9/13 50/9/13
f 42/7/4 46/8/4 41/7/4
f 50/9/4 46/8/4 42/7/4
f 38/9/4 46/8/4 50/9/4
f 46/8/4 38/9/4 37/8/4
f 41/7/6 16/8/6 13/7/6
f 16/8/6 41/7/6 46/8/6
f 49/9/6 42/7/6 43/7/6
f 42/7/6 49/9/6 50/9/6
f 44/7/4 49/9/4 43/7/4
f 49/9/4 44/7/4 48/9/4
f 45/7/6 48/9/6 44/7/6
f 48/9/6 45/7/6 47/8/6
f 48/9/6 47/8/6 35/8/6
f 48/9/6 35/8/6 36/9/6
f 28/7/4 47/8/4 45/7/4
f 47/8/4 28/7/4 29/8/4
f 19/1/14 21/2/14 20/2/14
f 21/2/14 19/1/14 31/1/14
f 20/2/12 8/5/12 10/5/12
f 8/5/12 20/2/12 21/2/12
f 24/10/5 31/11/5 33/10/5
f 31/11/5 24/10/5 23/11/5
f 19/11/12 33/10/12 31/11/12
f 33/10/12 19/11/12 15/10/12
f 12/12/13 26/12/13 39/12/13
f 26/12/13 12/12/13 11/12/13
