# Blender 4.1.1
# www.blender.org
mtllib flag@tutorial_flag.mtl
o flag
v 0.765461 -0.000000 -0.698965
v -0.698965 0.000000 -0.765461
v 0.698965 -0.000000 0.765461
v -0.765461 0.000000 0.698965
v -0.436310 18.780943 0.398410
v -0.398407 18.780943 -0.436313
v 0.436316 18.780943 -0.398410
v 0.398413 18.780943 0.436313
v 0.903309 -0.000000 -1.230157
v -0.788103 0.000000 -1.306961
v 1.306961 -0.000000 -0.788103
v -1.230157 0.000000 -0.903309
v 1.230157 -0.000000 0.903309
v -1.306961 0.000000 0.788103
v 0.788103 -0.000000 1.306961
v -0.903309 0.000000 1.230157
v -0.606429 5.371912 -1.005681
v 0.695079 5.371912 -0.946582
v -0.946581 5.371912 -0.695078
v 1.005682 5.371912 -0.606430
v -1.005680 5.371912 0.606430
v 0.946583 5.371912 0.695079
v -0.695077 5.371912 0.946582
v 0.606431 5.371912 1.005681
v -0.225220 20.666685 -0.246650
v 0.246654 20.666685 -0.225224
v -0.246647 20.666685 0.225224
v 0.225227 20.666685 0.246651
v -0.715434 19.453001 0.653286
v 0.653289 19.453001 0.715437
v -0.653283 19.453001 -0.715437
v 0.715440 19.453001 -0.653286
v 0.782087 11.937581 -1.065071
v -0.682338 11.937581 -1.131568
v 1.131570 11.937581 -0.682340
v -1.065069 11.937581 -0.782085
v 1.065073 11.937581 0.782086
v -1.131566 11.937581 0.682341
v 0.682342 11.937581 1.131568
v -0.782084 11.937581 1.065071
v -0.682338 13.191028 -1.131568
v 0.782088 13.191028 -1.065071
v -1.065069 13.191028 -0.782085
v 1.131570 13.191028 -0.682340
v -1.131566 13.191028 0.682341
v 1.065073 13.191028 0.782086
v -0.782083 13.191028 1.065071
v 0.682343 13.191028 1.131568
v 1.065074 16.712614 0.782086
v 0.682343 16.712614 1.131568
v 1.065074 17.966059 0.782086
v 0.682343 17.966059 1.131568
v -0.682338 17.966059 -1.131568
v -0.682338 16.712614 -1.131568
v 0.782088 17.966059 -1.065071
v 0.782088 16.712614 -1.065071
v -1.065068 17.966059 -0.782085
v 1.131571 17.966059 -0.682340
v -1.131565 17.966059 0.682341
v -0.782083 17.966059 1.065071
v 1.131571 16.712614 -0.682340
v -1.131565 16.712614 0.682341
v -1.065068 16.712614 -0.782085
v -0.782083 16.712614 1.065071
v -5.194661 17.906372 -0.661703
v -5.194662 11.937582 -0.661703
v -3.276164 17.906372 0.463358
v -3.276165 11.937582 0.463358
v -1.919109 17.906372 0.524979
v -1.919110 11.937581 0.524979
v -0.732210 17.906372 -0.033248
v -0.732211 11.937581 -0.033248
v -9.041754 17.906374 -0.410568
v -9.041755 11.937583 -0.410568
v -8.402255 17.906374 -0.035548
v -8.402256 11.937582 -0.035548
v -6.138700 17.906374 -0.704570
v -6.138701 11.937582 -0.704570
v -7.635224 17.906374 -0.000718
v -7.635225 11.937582 -0.000718
v -6.964368 17.906374 -0.316238
v -6.964369 11.937582 -0.316238
vn -0.0000 -1.0000 -0.0000
vn -0.9988 0.0168 -0.0454
vn 0.9988 0.0168 0.0454
vn 0.0454 0.0168 -0.9988
vn -0.0454 0.0168 0.9988
vn -0.0000 1.0000 -0.0000
vn 0.9394 0.0641 -0.3367
vn 0.4261 0.0642 -0.9024
vn 0.4205 0.0641 -0.9050
vn 0.9373 0.0641 -0.3425
vn -0.4205 0.0641 0.9050
vn -0.9373 0.0642 0.3425
vn -0.4261 0.0641 0.9024
vn -0.9394 0.0641 0.3367
vn 0.9050 0.0641 0.4205
vn 0.3425 0.0642 0.9373
vn 0.9024 0.0641 0.4261
vn 0.3367 0.0641 0.9394
vn -0.4204 0.0641 0.9051
vn -0.4260 0.0641 0.9024
vn 0.9024 0.0642 0.4260
vn 0.9373 0.0642 -0.3425
vn 0.9024 0.0641 0.4260
vn 0.9051 0.0641 0.4204
vn -0.3367 0.0641 -0.9394
vn 0.4260 0.0642 -0.9024
vn -0.3425 0.0642 -0.9373
vn 0.4260 0.0641 -0.9024
vn 0.4204 0.0641 -0.9051
vn -0.9050 0.0641 -0.4205
vn -0.9024 0.0641 -0.4261
vn -0.9024 0.0642 -0.4260
vn -0.9024 0.0641 -0.4260
vn -0.9051 0.0641 -0.4204
vn -0.0422 -0.3695 0.9283
vn -0.0453 -0.0090 0.9989
vn -0.0454 -0.0090 0.9989
vn 0.0453 -0.0090 -0.9989
vn 0.0422 -0.3695 -0.9283
vn 0.0454 -0.0090 -0.9989
vn 0.9989 -0.0090 0.0454
vn 0.9283 -0.3695 0.0422
vn 0.9989 -0.0090 0.0453
vn -0.9989 -0.0090 -0.0454
vn -0.9283 -0.3695 -0.0422
vn -0.9989 -0.0090 -0.0453
vn -0.9369 0.3469 -0.0425
vn 0.9369 0.3469 0.0425
vn 0.0425 0.3469 -0.9369
vn -0.0425 0.3469 0.9369
vn 0.4242 -0.0000 -0.9056
vn -0.3403 -0.0000 -0.9403
vn -0.9403 -0.0000 0.3403
vn -0.9056 -0.0000 -0.4242
vn 0.3403 -0.0000 0.9403
vn -0.4242 -0.0000 0.9056
vn 0.9403 -0.0000 -0.3403
vn 0.9056 -0.0000 0.4242
vn 0.9403 -0.0000 -0.3404
vn -0.3404 -0.0000 -0.9403
vn -0.9403 -0.0000 0.3404
vn 0.3404 -0.0000 0.9403
vn 0.2839 -0.0000 -0.9588
vn -0.2839 -0.0000 0.9588
vn -0.4256 -0.0000 -0.9049
vn -0.1959 -0.0000 -0.9806
vn 0.1959 -0.0000 0.9806
vn 0.4256 -0.0000 0.9049
vn 0.5059 -0.0000 -0.8626
vn -0.5059 -0.0000 0.8626
vn 0.2839 -0.0000 -0.9589
vn -0.1958 -0.0000 -0.9806
vn 0.1958 -0.0000 0.9806
vn -0.2839 -0.0000 0.9589
vt 0.593750 0.025000
vt 0.593750 0.206751
vt 0.593750 0.225000
vt 0.593750 0.475000
vt 0.593750 0.456751
vt 0.593750 0.463255
vt 0.593750 0.275000
vt 0.593750 0.316584
vt 0.593750 0.433416
s 0
usemtl colormap.029
f 3/1/1 2/1/1 1/1/1
f 2/1/1 3/1/1 4/1/1
f 5/2/2 2/1/2 4/1/2
f 2/1/2 5/2/2 6/2/2
f 7/2/3 3/1/3 1/1/3
f 3/1/3 7/2/3 8/2/3
f 6/2/4 1/1/4 2/1/4
f 1/1/4 6/2/4 7/2/4
f 3/1/5 5/2/5 4/1/5
f 5/2/5 3/1/5 8/2/5
f 11/1/1 10/1/1 9/1/1
f 10/1/1 11/1/1 12/1/1
f 12/1/1 11/1/1 13/1/1
f 12/1/1 13/1/1 14/1/1
f 14/1/1 13/1/1 15/1/1
f 14/1/1 15/1/1 16/1/1
f 19/3/6 18/3/6 17/3/6
f 18/3/6 19/3/6 20/3/6
f 20/3/6 19/3/6 21/3/6
f 20/3/6 21/3/6 22/3/6
f 22/3/6 21/3/6 23/3/6
f 22/3/6 23/3/6 24/3/6
f 20/3/7 9/1/8 18/3/9
f 9/1/8 20/3/7 11/1/10
f 23/3/11 14/1/12 16/1/13
f 14/1/12 23/3/11 21/3/14
f 22/3/15 15/1/16 13/1/17
f 15/1/16 22/3/15 24/3/18
f 15/1/16 23/3/19 16/1/20
f 23/3/19 15/1/16 24/3/18
f 20/3/7 13/1/21 11/1/22
f 13/1/23 20/3/7 22/3/24
f 17/3/25 9/1/26 10/1/27
f 9/1/28 17/3/25 18/3/29
f 19/3/30 10/1/27 12/1/31
f 10/1/27 19/3/30 17/3/25
f 21/3/14 12/1/32 14/1/12
f 12/1/33 21/3/14 19/3/34
f 27/4/6 26/4/6 25/4/6
f 26/4/6 27/4/6 28/4/6
f 5/5/35 30/6/36 29/6/37
f 30/6/37 5/5/35 8/5/35
f 32/6/38 6/5/39 31/6/40
f 6/5/39 32/6/40 7/5/39
f 32/6/41 8/5/42 7/5/42
f 8/5/42 32/6/43 30/6/41
f 29/6/44 6/5/45 5/5/45
f 6/5/45 29/6/46 31/6/44
f 27/4/47 31/6/44 29/6/46
f 31/6/46 27/4/47 25/4/47
f 26/4/48 30/6/41 32/6/43
f 30/6/43 26/4/48 28/4/48
f 25/4/49 32/6/40 31/6/38
f 32/6/38 25/4/49 26/4/49
f 30/6/36 27/4/50 29/6/37
f 27/4/50 30/6/36 28/4/50
f 35/7/1 34/7/1 33/7/1
f 34/7/1 35/7/1 36/7/1
f 36/7/1 35/7/1 37/7/1
f 36/7/1 37/7/1 38/7/1
f 38/7/1 37/7/1 39/7/1
f 38/7/1 39/7/1 40/7/1
f 43/8/6 42/8/6 41/8/6
f 42/8/6 43/8/6 44/8/6
f 44/8/6 43/8/6 45/8/6
f 44/8/6 45/8/6 46/8/6
f 46/8/6 45/8/6 47/8/6
f 46/8/6 47/8/6 48/8/6
f 42/8/51 34/7/52 41/8/52
f 34/7/52 42/8/51 33/7/51
f 45/8/53 36/7/54 38/7/53
f 36/7/54 45/8/53 43/8/54
f 39/7/55 47/8/56 40/7/56
f 47/8/56 39/7/55 48/8/55
f 44/8/57 37/7/58 35/7/57
f 37/7/58 44/8/57 46/8/58
f 44/8/59 33/7/51 42/8/51
f 33/7/51 44/8/59 35/7/59
f 41/8/60 36/7/54 43/8/54
f 36/7/54 41/8/60 34/7/60
f 47/8/56 38/7/61 40/7/56
f 38/7/61 47/8/56 45/8/61
f 46/8/58 39/7/62 37/7/58
f 39/7/62 46/8/58 48/8/62
f 51/4/58 50/9/62 49/9/58
f 50/9/62 51/4/58 52/4/62
f 55/4/51 54/9/52 53/4/52
f 54/9/52 55/4/51 56/9/51
f 57/4/6 55/4/6 53/4/6
f 55/4/6 57/4/6 58/4/6
f 58/4/6 57/4/6 59/4/6
f 58/4/6 59/4/6 51/4/6
f 51/4/6 59/4/6 60/4/6
f 51/4/6 60/4/6 52/4/6
f 58/4/57 49/9/58 61/9/57
f 49/9/58 58/4/57 51/4/58
f 59/4/53 63/9/54 62/9/53
f 63/9/54 59/4/53 57/4/54
f 61/9/1 54/9/1 56/9/1
f 54/9/1 61/9/1 63/9/1
f 63/9/1 61/9/1 49/9/1
f 63/9/1 49/9/1 62/9/1
f 62/9/1 49/9/1 50/9/1
f 62/9/1 50/9/1 64/9/1
f 50/9/55 60/4/56 64/9/56
f 60/4/56 50/9/55 52/4/55
f 58/4/59 56/9/51 55/4/51
f 56/9/51 58/4/59 61/9/59
f 53/4/60 63/9/54 57/4/54
f 63/9/54 53/4/60 54/9/60
f 60/4/56 62/9/61 64/9/56
f 62/9/61 60/4/56 59/4/61
f 67/4/63 66/7/63 65/4/63
f 66/7/63 67/4/63 68/7/63
f 65/4/64 66/7/64 67/4/64
f 68/7/64 67/4/64 66/7/64
f 71/4/65 70/7/66 69/4/66
f 70/7/66 71/4/65 72/7/65
f 69/4/67 70/7/67 71/4/68
f 72/7/68 71/4/68 70/7/67
f 75/4/63 74/7/69 73/4/69
f 74/7/69 75/4/63 76/7/63
f 73/4/70 74/7/70 75/4/64
f 76/7/64 75/4/64 74/7/70
f 65/4/71 78/7/72 77/4/72
f 78/7/72 65/4/71 66/7/71
f 77/4/73 78/7/73 65/4/74
f 66/7/74 65/4/74 78/7/73
f 79/4/72 76/7/71 75/4/71
f 76/7/71 79/4/72 80/7/72
f 75/4/74 76/7/74 79/4/73
f 80/7/73 79/4/73 76/7/74
f 81/4/65 80/7/66 79/4/66
f 80/7/66 81/4/65 82/7/65
f 82/7/65 81/4/65 77/4/66
f 82/7/65 77/4/66 78/7/66
f 79/4/67 80/7/67 81/4/68
f 82/7/68 81/4/68 80/7/67
f 77/4/67 81/4/68 82/7/68
f 78/7/67 77/4/67 82/7/68
f 69/4/72 68/7/71 67/4/71
f 68/7/71 69/4/72 70/7/72
f 67/4/74 68/7/74 69/4/73
f 70/7/73 69/4/73 68/7/74
f 3/1/1 2/1/1 1/1/1
f 2/1/1 3/1/1 4/1/1
f 5/2/2 2/1/2 4/1/2
f 2/1/2 5/2/2 6/2/2
f 7/2/3 3/1/3 1/1/3
f 3/1/3 7/2/3 8/2/3
f 6/2/4 1/1/4 2/1/4
f 1/1/4 6/2/4 7/2/4
f 3/1/5 5/2/5 4/1/5
f 5/2/5 3/1/5 8/2/5
f 11/1/1 10/1/1 9/1/1
f 10/1/1 11/1/1 12/1/1
f 12/1/1 11/1/1 13/1/1
f 12/1/1 13/1/1 14/1/1
f 14/1/1 13/1/1 15/1/1
f 14/1/1 15/1/1 16/1/1
f 19/3/6 18/3/6 17/3/6
f 18/3/6 19/3/6 20/3/6
f 20/3/6 19/3/6 21/3/6
f 20/3/6 21/3/6 22/3/6
f 22/3/6 21/3/6 23/3/6
f 22/3/6 23/3/6 24/3/6
f 20/3/7 9/1/8 18/3/9
f 9/1/8 20/3/7 11/1/10
f 23/3/11 14/1/12 16/1/13
f 14/1/12 23/3/11 21/3/14
f 22/3/15 15/1/16 13/1/17
f 15/1/16 22/3/15 24/3/18
f 15/1/16 23/3/19 16/1/20
f 23/3/19 15/1/16 24/3/18
f 20/3/7 13/1/21 11/1/22
f 13/1/23 20/3/7 22/3/24
f 17/3/25 9/1/26 10/1/27
f 9/1/28 17/3/25 18/3/29
f 19/3/30 10/1/27 12/1/31
f 10/1/27 19/3/30 17/3/25
f 21/3/14 12/1/32 14/1/12
f 12/1/33 21/3/14 19/3/34
f 27/4/6 26/4/6 25/4/6
f 26/4/6 27/4/6 28/4/6
f 5/5/35 30/6/36 29/6/37
f 30/6/37 5/5/35 8/5/35
f 32/6/38 6/5/39 31/6/40
f 6/5/39 32/6/40 7/5/39
f 32/6/41 8/5/42 7/5/42
f 8/5/42 32/6/43 30/6/41
f 29/6/44 6/5/45 5/5/45
f 6/5/45 29/6/46 31/6/44
f 27/4/47 31/6/44 29/6/46
f 31/6/46 27/4/47 25/4/47
f 26/4/48 30/6/41 32/6/43
f 30/6/43 26/4/48 28/4/48
f 25/4/49 32/6/40 31/6/38
f 32/6/38 25/4/49 26/4/49
f 30/6/36 27/4/50 29/6/37
f 27/4/50 30/6/36 28/4/50
f 35/7/1 34/7/1 33/7/1
f 34/7/1 35/7/1 36/7/1
f 36/7/1 35/7/1 37/7/1
f 36/7/1 37/7/1 38/7/1
f 38/7/1 37/7/1 39/7/1
f 38/7/1 39/7/1 40/7/1
f 43/8/6 42/8/6 41/8/6
f 42/8/6 43/8/6 44/8/6
f 44/8/6 43/8/6 45/8/6
f 44/8/6 45/8/6 46/8/6
f 46/8/6 45/8/6 47/8/6
f 46/8/6 47/8/6 48/8/6
f 42/8/51 34/7/52 41/8/52
f 34/7/52 42/8/51 33/7/51
f 45/8/53 36/7/54 38/7/53
f 36/7/54 45/8/53 43/8/54
f 39/7/55 47/8/56 40/7/56
f 47/8/56 39/7/55 48/8/55
f 44/8/57 37/7/58 35/7/57
f 37/7/58 44/8/57 46/8/58
f 44/8/59 33/7/51 42/8/51
f 33/7/51 44/8/59 35/7/59
f 41/8/60 36/7/54 43/8/54
f 36/7/54 41/8/60 34/7/60
f 47/8/56 38/7/61 40/7/56
f 38/7/61 47/8/56 45/8/61
f 46/8/58 39/7/62 37/7/58
f 39/7/62 46/8/58 48/8/62
f 51/4/58 50/9/62 49/9/58
f 50/9/62 51/4/58 52/4/62
f 55/4/51 54/9/52 53/4/52
f 54/9/52 55/4/51 56/9/51
f 57/4/6 55/4/6 53/4/6
f 55/4/6 57/4/6 58/4/6
f 58/4/6 57/4/6 59/4/6
f 58/4/6 59/4/6 51/4/6
f 51/4/6 59/4/6 60/4/6
f 51/4/6 60/4/6 52/4/6
f 58/4/57 49/9/58 61/9/57
f 49/9/58 58/4/57 51/4/58
f 59/4/53 63/9/54 62/9/53
f 63/9/54 59/4/53 57/4/54
f 61/9/1 54/9/1 56/9/1
f 54/9/1 61/9/1 63/9/1
f 63/9/1 61/9/1 49/9/1
f 63/9/1 49/9/1 62/9/1
f 62/9/1 49/9/1 50/9/1
f 62/9/1 50/9/1 64/9/1
f 50/9/55 60/4/56 64/9/56
f 60/4/56 50/9/55 52/4/55
f 58/4/59 56/9/51 55/4/51
f 56/9/51 58/4/59 61/9/59
f 53/4/60 63/9/54 57/4/54
f 63/9/54 53/4/60 54/9/60
f 60/4/56 62/9/61 64/9/56
f 62/9/61 60/4/56 59/4/61
f 67/4/63 66/7/63 65/4/63
f 66/7/63 67/4/63 68/7/63
f 65/4/64 66/7/64 67/4/64
f 68/7/64 67/4/64 66/7/64
f 71/4/65 70/7/66 69/4/66
f 70/7/66 71/4/65 72/7/65
f 69/4/67 70/7/67 71/4/68
f 72/7/68 71/4/68 70/7/67
f 75/4/63 74/7/69 73/4/69
f 74/7/69 75/4/63 76/7/63
f 73/4/70 74/7/70 75/4/64
f 76/7/64 75/4/64 74/7/70
f 65/4/71 78/7/72 77/4/72
f 78/7/72 65/4/71 66/7/71
f 77/4/73 78/7/73 65/4/74
f 66/7/74 65/4/74 78/7/73
f 79/4/72 76/7/71 75/4/71
f 76/7/71 79/4/72 80/7/72
f 75/4/74 76/7/74 79/4/73
f 80/7/73 79/4/73 76/7/74
f 81/4/65 80/7/66 79/4/66
f 80/7/66 81/4/65 82/7/65
f 82/7/65 81/4/65 77/4/66
f 82/7/65 77/4/66 78/7/66
f 79/4/67 80/7/67 81/4/68
f 82/7/68 81/4/68 80/7/67
f 77/4/67 81/4/68 82/7/68
f 78/7/67 77/4/67 82/7/68
f 69/4/72 68/7/71 67/4/71
f 68/7/71 69/4/72 70/7/72
f 67/4/74 68/7/74 69/4/73
f 70/7/73 69/4/73 68/7/74
