# Blender 4.1.1
# www.blender.org
mtllib tree-trunk.mtl
o tree-trunk.202
v -0.079890 0.000000 -0.325116
v -0.059918 0.034594 -0.375116
v -0.039945 0.069187 -0.325116
v -0.039945 -0.069187 -0.325116
v 0.039945 -0.069187 -0.325116
v -0.000000 -0.069187 -0.375116
v 0.059918 0.034594 -0.375116
v 0.079890 -0.000000 -0.325116
v 0.039945 0.069187 -0.325116
v 0.198000 0.000000 0.000000
v 0.099000 -0.171473 0.000000
v 0.099000 0.171473 0.000000
v -0.099000 -0.171473 0.000000
v -0.099000 0.171473 0.000000
v -0.198000 0.000000 0.000000
v 0.111700 0.000000 -0.132000
v 0.055850 0.096735 -0.132000
v -0.055850 0.096735 -0.132000
v -0.055850 -0.096735 -0.132000
v 0.055850 -0.096735 -0.132000
v -0.111700 0.000000 -0.132000
vn -0.8660 0.5000 -0.0000
vn 0.8660 -0.5000 -0.0000
vn -0.0000 -1.0000 -0.0000
vn -0.0000 1.0000 -0.0000
vn 0.8660 0.5000 -0.0000
vn -0.8660 -0.5000 -0.0000
vn -0.0000 -0.0000 1.0000
vn 0.8370 -0.0000 -0.5472
vn 0.4185 0.7248 -0.5472
vn 0.4185 0.7249 -0.5472
vn -0.4185 0.7249 -0.5472
vn -0.4934 -0.8545 -0.1626
vn 0.4934 -0.8545 -0.1625
vn -0.4934 -0.8545 -0.1625
vn 0.4933 -0.8545 -0.1626
vn 0.9867 -0.0000 -0.1625
vn 0.4933 -0.8545 -0.1625
vn 0.4185 -0.7248 -0.5472
vn 0.4185 -0.7249 -0.5472
vn -0.8370 -0.0000 -0.5472
vn 0.4933 0.8545 -0.1625
vn 0.4933 0.8545 -0.1626
vn -0.4185 -0.7249 -0.5472
vn -0.4185 -0.7248 -0.5472
vn 0.4934 0.8545 -0.1626
vn -0.4934 0.8545 -0.1625
vn 0.4934 0.8545 -0.1625
vn -0.4933 0.8545 -0.1625
vn -0.9867 -0.0000 -0.1626
vn -0.9867 -0.0000 -0.1625
vn -0.4933 -0.8545 -0.1626
vn -0.4933 -0.8545 -0.1625
vn -0.0000 -0.0000 -1.0000
vt 0.593750 0.198342
vt 0.593750 0.225000
vt 0.593750 0.025000
vt 0.593750 0.095378
vt 0.843750 0.198342
s 0
usemtl colormap.013
f 3/1/1 2/2/1 1/1/1
f 1/1/2 2/2/2 3/1/2
f 6/2/3 5/1/3 4/1/3
f 4/1/4 5/1/4 6/2/4
f 9/1/5 8/1/5 7/2/5
f 7/2/6 8/1/6 9/1/6
f 12/3/7 11/3/7 10/3/7
f 11/3/7 12/3/7 13/3/7
f 13/3/7 12/3/7 14/3/7
f 13/3/7 14/3/7 15/3/7
f 16/4/8 12/3/9 10/3/8
f 12/3/10 16/4/8 17/4/10
f 17/4/9 14/3/11 12/3/10
f 14/3/11 17/4/10 18/4/11
f 4/1/12 20/4/13 19/4/14
f 20/4/13 4/1/14 5/1/13
f 5/1/15 16/4/16 20/4/17
f 16/4/16 5/1/17 8/1/16
f 20/4/18 10/3/8 11/3/19
f 10/3/8 20/4/19 16/4/8
f 14/3/11 21/4/20 15/3/20
f 21/4/20 14/3/11 18/4/11
f 9/1/21 16/4/16 8/1/16
f 16/4/16 9/1/22 17/4/21
f 15/3/20 19/4/23 13/3/23
f 19/4/24 15/3/20 21/4/20
f 9/1/25 18/4/26 17/4/27
f 18/4/26 9/1/27 3/1/26
f 19/4/24 11/3/19 13/3/23
f 11/3/19 19/4/23 20/4/19
f 18/4/28 1/1/29 21/4/30
f 1/1/30 18/4/28 3/1/28
f 21/4/30 4/1/31 19/4/32
f 4/1/32 21/4/30 1/1/30
f 5/5/33 9/5/33 8/5/33
f 9/5/33 5/5/33 3/5/33
f 3/5/33 5/5/33 4/5/33
f 3/5/33 4/5/33 1/5/33
f 3/1/1 2/2/1 1/1/1
f 1/1/2 2/2/2 3/1/2
f 6/2/3 5/1/3 4/1/3
f 4/1/4 5/1/4 6/2/4
f 9/1/5 8/1/5 7/2/5
f 7/2/6 8/1/6 9/1/6
f 12/3/7 11/3/7 10/3/7
f 11/3/7 12/3/7 13/3/7
f 13/3/7 12/3/7 14/3/7
f 13/3/7 14/3/7 15/3/7
f 16/4/8 12/3/9 10/3/8
f 12/3/10 16/4/8 17/4/10
f 17/4/9 14/3/11 12/3/10
f 14/3/11 17/4/10 18/4/11
f 4/1/12 20/4/13 19/4/14
f 20/4/13 4/1/14 5/1/13
f 5/1/15 16/4/16 20/4/17
f 16/4/16 5/1/17 8/1/16
f 20/4/18 10/3/8 11/3/19
f 10/3/8 20/4/19 16/4/8
f 14/3/11 21/4/20 15/3/20
f 21/4/20 14/3/11 18/4/11
f 9/1/21 16/4/16 8/1/16
f 16/4/16 9/1/22 17/4/21
f 15/3/20 19/4/23 13/3/23
f 19/4/24 15/3/20 21/4/20
f 9/1/25 18/4/26 17/4/27
f 18/4/26 9/1/27 3/1/26
f 19/4/24 11/3/19 13/3/23
f 11/3/19 19/4/23 20/4/19
f 18/4/28 1/1/29 21/4/30
f 1/1/30 18/4/28 3/1/28
f 21/4/30 4/1/31 19/4/32
f 4/1/32 21/4/30 1/1/30
f 5/5/33 9/5/33 8/5/33
f 9/5/33 5/5/33 3/5/33
f 3/5/33 5/5/33 4/5/33
f 3/5/33 4/5/33 1/5/33
