# Blender 4.1.1
# www.blender.org
mtllib tree-log.mtl
o tree-log
v -0.100000 -0.300000 0.000000
v -0.100000 0.300000 -0.000000
v -0.050000 -0.300000 0.086603
v -0.050000 0.300000 0.086603
v 0.050000 -0.300000 -0.086603
v 0.100000 -0.300000 0.000000
v 0.050000 0.300000 -0.086603
v 0.100000 0.300000 -0.000000
v 0.061000 0.500000 -0.105655
v 0.122000 0.500000 -0.000000
v -0.050000 -0.300000 -0.086603
v -0.050000 0.300000 -0.086603
v -0.061000 0.500000 -0.105655
v 0.050000 0.300000 0.086603
v 0.050000 -0.300000 0.086603
v -0.122000 0.500000 -0.000000
v -0.061000 0.500000 0.105655
v 0.061000 0.500000 0.105655
v 0.061000 -0.500000 0.105655
v -0.061000 -0.500000 0.105655
v 0.122000 -0.500000 0.000000
v 0.061000 -0.500000 -0.105655
v -0.061000 -0.500000 -0.105655
v -0.122000 -0.500000 0.000000
v 0.070608 0.220667 -0.028450
v 0.070608 0.287289 -0.028450
v 0.127405 0.232013 -0.149516
v 0.127405 0.275943 -0.149516
v 0.089360 0.232013 -0.171482
v 0.089360 0.275943 -0.171482
v 0.012912 0.220667 -0.061761
v 0.012912 0.287289 -0.061761
v -0.074941 -0.141620 -0.032078
v -0.122082 -0.151037 -0.132563
v -0.027052 -0.141620 -0.059727
v -0.090504 -0.151037 -0.150795
v -0.027052 -0.196916 -0.059727
v -0.090504 -0.187499 -0.150795
v -0.122082 -0.187499 -0.132563
v -0.074941 -0.196916 -0.032078
vn -0.4992 0.0557 0.8647
vn -0.9984 -0.0557 -0.0000
vn -0.9984 0.0558 -0.0000
vn -0.4992 -0.0558 0.8647
vn 0.4992 -0.0558 -0.8647
vn 0.9984 0.0557 -0.0000
vn 0.4992 0.0557 -0.8647
vn 0.9984 0.0558 -0.0000
vn 0.4992 -0.0557 -0.8647
vn 0.9984 -0.0557 -0.0000
vn 0.4970 -0.1093 -0.8608
vn 0.9984 -0.0558 -0.0000
vn 0.4970 -0.1094 -0.8608
vn 0.9940 -0.1093 -0.0000
vn -0.4992 0.0557 -0.8647
vn 0.4992 0.0558 -0.8647
vn -0.4992 -0.0558 -0.8647
vn -0.4970 -0.1094 -0.8608
vn -0.4970 -0.1093 -0.8608
vn -0.4992 -0.0557 0.8647
vn 0.4992 0.0557 0.8647
vn 0.4992 -0.0558 0.8647
vn -0.4992 0.0558 0.8647
vn 0.4992 0.0558 0.8647
vn 0.4992 -0.0557 0.8647
vn -0.9984 -0.0558 -0.0000
vn -0.9940 -0.1093 -0.0000
vn -0.9940 -0.1094 -0.0000
vn -0.4970 -0.1093 0.8608
vn 0.9940 -0.1094 -0.0000
vn 0.4970 -0.1093 0.8608
vn -0.4970 0.1094 0.8608
vn 0.4970 0.1093 0.8608
vn -0.4970 0.1093 0.8608
vn 0.4970 0.1094 0.8608
vn 0.9940 0.1093 -0.0000
vn -0.4970 0.1094 -0.8608
vn 0.4970 0.1093 -0.8608
vn -0.4970 0.1093 -0.8608
vn -0.4992 0.0558 -0.8647
vn -0.9940 0.1093 -0.0000
vn -0.4970 -0.1094 0.8608
vn -0.9984 0.0557 -0.0000
vn -0.4992 -0.0557 -0.8647
vn 0.9940 0.1094 -0.0000
vn -0.9940 0.1094 -0.0000
vn 0.6677 -0.7021 0.2475
vn 0.6677 0.7021 0.2475
vn 0.6678 0.7021 0.2474
vn 0.5000 -0.0000 -0.8660
vn -0.5483 -0.7020 -0.4545
vn 0.6678 -0.7020 0.2475
vn 0.6677 -0.7020 0.2475
vn -0.5482 -0.7020 -0.4546
vn -0.5482 -0.7020 -0.4545
vn 0.6678 0.7020 0.2475
vn -0.5482 0.7020 -0.4545
vn -0.5482 0.7020 -0.4546
vn -0.5482 0.7021 -0.4545
vn -0.5482 -0.7021 -0.4545
vn 0.5483 0.7020 -0.4545
vn -0.6678 0.7020 0.2475
vn -0.6677 0.7020 0.2475
vn 0.5482 0.7020 -0.4546
vn 0.5482 0.7020 -0.4545
vn 0.5482 -0.7021 -0.4545
vn 0.5482 0.7021 -0.4545
vn 0.5482 0.7021 -0.4546
vn -0.5000 -0.0000 -0.8660
vn -0.6678 -0.7020 0.2475
vn 0.5482 -0.7020 -0.4545
vn 0.5482 -0.7020 -0.4546
vn -0.6677 0.7021 0.2475
vn -0.6677 -0.7021 0.2475
vn -0.0000 1.0000 -0.0000
vn -0.0000 -1.0000 -0.0000
vt 0.593750 0.075000
vt 0.593750 0.156967
vt 0.593750 0.175000
vt 0.593750 0.194286
vt 0.593750 0.025000
vt 0.593750 0.225000
vt 0.593750 0.071579
vt 0.968750 0.075000
vt 0.968750 0.175000
s 0
usemtl colormap.017
f 3/1/1 2/1/2 1/1/3
f 2/1/2 3/1/1 4/1/4
f 7/2/5 6/1/6 5/2/7
f 6/1/8 7/2/9 8/1/10
f 9/3/11 8/1/12 7/2/5
f 8/1/12 9/3/13 10/1/14
f 11/2/15 7/2/9 5/2/16
f 7/2/9 11/2/15 12/2/17
f 7/2/5 13/3/18 9/3/11
f 13/3/19 7/2/5 12/2/17
f 4/1/20 15/1/21 14/1/22
f 15/1/21 4/1/20 3/1/23
f 8/1/12 15/1/21 6/1/6
f 15/1/24 8/1/10 14/1/25
f 2/1/26 13/3/19 12/2/17
f 13/3/18 2/1/26 16/1/27
f 4/1/4 16/1/27 2/1/26
f 16/1/28 4/1/4 17/1/29
f 10/1/14 14/1/22 8/1/12
f 14/1/22 10/1/30 18/1/31
f 15/1/24 20/1/32 19/1/33
f 20/1/34 15/1/24 3/1/23
f 6/1/8 19/1/35 21/1/36
f 19/1/33 6/1/8 15/1/24
f 23/3/37 5/2/16 22/3/38
f 5/2/16 23/3/39 11/2/40
f 20/1/32 1/1/3 24/1/41
f 1/1/3 20/1/34 3/1/23
f 17/1/42 14/1/22 18/1/31
f 14/1/22 17/1/29 4/1/4
f 1/1/43 12/2/44 11/2/40
f 12/2/44 1/1/43 2/1/26
f 5/2/16 21/1/45 22/3/38
f 21/1/36 5/2/16 6/1/8
f 24/1/46 11/2/40 23/3/39
f 11/2/40 24/1/41 1/1/3
f 27/4/47 26/5/48 25/5/47
f 26/5/49 27/4/47 28/4/48
f 29/6/50 28/4/50 27/4/50
f 28/4/50 29/6/50 30/6/50
f 31/7/51 27/4/52 25/5/53
f 27/4/52 31/7/54 29/6/55
f 28/4/56 32/7/57 26/5/56
f 32/7/58 28/4/56 30/6/58
f 32/7/59 29/6/60 31/7/60
f 29/6/60 32/7/59 30/6/59
f 35/7/61 34/4/62 33/5/63
f 34/4/62 35/7/64 36/6/65
f 38/6/66 35/7/67 37/7/66
f 35/7/68 38/6/66 36/6/67
f 39/4/69 36/6/69 38/6/69
f 36/6/69 39/4/69 34/4/69
f 39/4/70 37/7/71 40/5/70
f 37/7/72 39/4/70 38/6/72
f 33/5/73 39/4/74 40/5/74
f 39/4/74 33/5/73 34/4/73
f 10/8/75 17/8/75 18/8/75
f 17/8/75 10/8/75 16/8/75
f 16/8/75 10/8/75 9/9/75
f 16/8/75 9/9/75 13/9/75
f 24/8/76 19/8/76 20/8/76
f 19/8/76 24/8/76 21/8/76
f 21/8/76 24/8/76 23/9/76
f 21/8/76 23/9/76 22/9/76
f 3/1/1 2/1/2 1/1/3
f 2/1/2 3/1/1 4/1/4
f 7/2/5 6/1/6 5/2/7
f 6/1/8 7/2/9 8/1/10
f 9/3/11 8/1/12 7/2/5
f 8/1/12 9/3/13 10/1/14
f 11/2/15 7/2/9 5/2/16
f 7/2/9 11/2/15 12/2/17
f 7/2/5 13/3/18 9/3/11
f 13/3/19 7/2/5 12/2/17
f 4/1/20 15/1/21 14/1/22
f 15/1/21 4/1/20 3/1/23
f 8/1/12 15/1/21 6/1/6
f 15/1/24 8/1/10 14/1/25
f 2/1/26 13/3/19 12/2/17
f 13/3/18 2/1/26 16/1/27
f 4/1/4 16/1/27 2/1/26
f 16/1/28 4/1/4 17/1/29
f 10/1/14 14/1/22 8/1/12
f 14/1/22 10/1/30 18/1/31
f 15/1/24 20/1/32 19/1/33
f 20/1/34 15/1/24 3/1/23
f 6/1/8 19/1/35 21/1/36
f 19/1/33 6/1/8 15/1/24
f 23/3/37 5/2/16 22/3/38
f 5/2/16 23/3/39 11/2/40
f 20/1/32 1/1/3 24/1/41
f 1/1/3 20/1/34 3/1/23
f 17/1/42 14/1/22 18/1/31
f 14/1/22 17/1/29 4/1/4
f 1/1/43 12/2/44 11/2/40
f 12/2/44 1/1/43 2/1/26
f 5/2/16 21/1/45 22/3/38
f 21/1/36 5/2/16 6/1/8
f 24/1/46 11/2/40 23/3/39
f 11/2/40 24/1/41 1/1/3
f 27/4/47 26/5/48 25/5/47
f 26/5/49 27/4/47 28/4/48
f 29/6/50 28/4/50 27/4/50
f 28/4/50 29/6/50 30/6/50
f 31/7/51 27/4/52 25/5/53
f 27/4/52 31/7/54 29/6/55
f 28/4/56 32/7/57 26/5/56
f 32/7/58 28/4/56 30/6/58
f 32/7/59 29/6/60 31/7/60
f 29/6/60 32/7/59 30/6/59
f 35/7/61 34/4/62 33/5/63
f 34/4/62 35/7/64 36/6/65
f 38/6/66 35/7/67 37/7/66
f 35/7/68 38/6/66 36/6/67
f 39/4/69 36/6/69 38/6/69
f 36/6/69 39/4/69 34/4/69
f 39/4/70 37/7/71 40/5/70
f 37/7/72 39/4/70 38/6/72
f 33/5/73 39/4/74 40/5/74
f 39/4/74 33/5/73 34/4/73
f 10/8/75 17/8/75 18/8/75
f 17/8/75 10/8/75 16/8/75
f 16/8/75 10/8/75 9/9/75
f 16/8/75 9/9/75 13/9/75
f 24/8/76 19/8/76 20/8/76
f 19/8/76 24/8/76 21/8/76
f 21/8/76 24/8/76 23/9/76
f 21/8/76 23/9/76 22/9/76
