# Blender 4.1.1
# www.blender.org
mtllib ground-hills.mtl
o ground-hills.056
v 0.500000 -0.500000 0.000000
v 0.500000 0.500000 0.000000
v -0.500000 -0.500000 0.000000
v -0.500000 0.500000 0.000000
v -0.257624 -0.389963 -0.083808
v -0.070467 -0.389963 -0.083808
v -0.229314 -0.321617 -0.183187
v -0.098778 -0.321617 -0.183187
v -0.024889 0.171909 -0.000000
v -0.303202 0.171909 -0.000000
v -0.070467 0.061872 -0.083808
v -0.257624 0.061872 -0.083808
v -0.389963 -0.257624 -0.083808
v -0.321617 -0.229314 -0.183187
v -0.389963 -0.070467 -0.083808
v -0.321617 -0.098778 -0.183187
v -0.024889 -0.500000 -0.000000
v -0.303202 -0.500000 -0.000000
v -0.500000 -0.024889 -0.000000
v -0.500000 -0.303202 -0.000000
v 0.171909 -0.303202 -0.000000
v 0.171909 -0.024889 -0.000000
v 0.061872 -0.257624 -0.083808
v 0.061872 -0.070467 -0.083808
v -0.006475 -0.229314 -0.183187
v -0.006475 -0.098778 -0.183187
v -0.098778 -0.006475 -0.183187
v -0.229314 -0.006475 -0.183187
v 0.070467 -0.061872 -0.050285
v 0.257624 -0.061872 -0.050285
v 0.098778 0.006475 -0.109912
v 0.229314 0.006475 -0.109912
v 0.303202 0.500000 -0.000000
v 0.024889 0.500000 -0.000000
v 0.257624 0.389963 -0.050285
v 0.070467 0.389963 -0.050285
v -0.061872 0.070467 -0.050285
v 0.006475 0.098778 -0.109912
v -0.061872 0.257624 -0.050285
v 0.006475 0.229314 -0.109912
v 0.303202 -0.171909 -0.000000
v 0.024889 -0.171909 -0.000000
v -0.171909 0.303202 -0.000000
v -0.171909 0.024889 -0.000000
v 0.500000 0.024889 -0.000000
v 0.500000 0.303202 -0.000000
v 0.389963 0.070467 -0.050285
v 0.389963 0.257624 -0.050285
v 0.321617 0.098778 -0.109912
v 0.321617 0.229314 -0.109912
v 0.229314 0.321617 -0.109912
v 0.098778 0.321617 -0.109912
v 0.044893 -0.341665 -0.131897
v 0.203594 -0.368507 -0.131897
v 0.078701 -0.287771 -0.288300
v 0.189390 -0.306492 -0.288300
v 0.322827 0.101399 0.000000
v 0.086829 0.141315 0.000000
v 0.268396 0.014629 -0.131897
v 0.109696 0.041471 -0.131897
v -0.048344 -0.210467 -0.131897
v 0.013671 -0.196264 -0.288300
v -0.021502 -0.051767 -0.131897
v 0.032392 -0.085575 -0.288300
v 0.226461 -0.468351 0.000000
v -0.009537 -0.428435 0.000000
v -0.148188 -0.233334 0.000000
v -0.108272 0.002664 0.000000
v 0.421562 -0.329700 0.000000
v 0.461478 -0.093702 0.000000
v 0.334792 -0.275269 -0.131897
v 0.361634 -0.116569 -0.131897
v 0.280897 -0.241462 -0.288300
v 0.299619 -0.130773 -0.288300
v 0.234588 -0.039265 -0.288300
v 0.123899 -0.020544 -0.288300
vn -0.0000 -0.0000 -1.0000
vn -0.3069 -0.7411 -0.5971
vn 0.2588 -0.6249 -0.7365
vn -0.2588 -0.6250 -0.7365
vn -0.3070 -0.7411 -0.5971
vn 0.3069 -0.7411 -0.5971
vn 0.2588 0.6250 -0.7365
vn -0.2202 0.5317 -0.8178
vn 0.2202 0.5317 -0.8178
vn 0.2588 0.6249 -0.7365
vn -0.2588 0.6249 -0.7365
vn -0.6249 0.2588 -0.7365
vn -0.7411 -0.3069 -0.5971
vn -0.6250 -0.2588 -0.7365
vn -0.6250 0.2588 -0.7365
vn -0.7411 0.3069 -0.5971
vn -0.2202 -0.5317 -0.8178
vn 0.2202 -0.5317 -0.8178
vn -0.2588 -0.6249 -0.7365
vn -0.6249 -0.2588 -0.7365
vn -0.5317 0.2202 -0.8178
vn -0.5317 -0.2202 -0.8178
vn 0.6250 -0.2588 -0.7365
vn 0.5317 0.2202 -0.8178
vn 0.5317 -0.2202 -0.8178
vn 0.6249 -0.2588 -0.7365
vn 0.6249 0.2588 -0.7365
vn 0.6249 0.2589 -0.7365
vn 0.2203 0.5316 -0.8178
vn 0.5316 0.2203 -0.8178
vn 0.2589 0.6249 -0.7365
vn -0.6249 -0.2589 -0.7365
vn -0.2589 -0.6249 -0.7365
vn -0.7411 -0.3070 -0.5971
vn 0.3070 -0.7411 -0.5971
vn 0.6249 -0.2589 -0.7365
vn 0.2589 -0.6249 -0.7365
vn 0.7411 -0.3070 -0.5971
vn 0.7411 -0.3069 -0.5971
vn 0.7411 0.3069 -0.5971
vn -0.6249 0.2589 -0.7365
vn -0.2203 0.5316 -0.8178
vn -0.2589 0.6249 -0.7365
vn -0.5317 0.2203 -0.8178
vn -0.3070 0.7411 -0.5971
vn -0.7411 0.3070 -0.5971
vn 0.7411 0.3070 -0.5971
vn 0.3070 0.7411 -0.5971
vn -0.2203 -0.5316 -0.8178
vn -0.5316 -0.2203 -0.8178
vn 0.3069 0.7411 -0.5971
vn -0.3069 0.7411 -0.5971
vn 0.2203 -0.5316 -0.8178
vn 0.5317 -0.2203 -0.8178
vn -0.2401 -0.5798 -0.7786
vn 0.1847 -0.4459 -0.8758
vn -0.1847 -0.4459 -0.8758
vn 0.1846 -0.4459 -0.8758
vn 0.2401 -0.5798 -0.7786
vn 0.1846 0.4459 -0.8758
vn -0.1488 0.3594 -0.9213
vn 0.1488 0.3594 -0.9213
vn 0.1847 0.4459 -0.8758
vn -0.1847 0.4459 -0.8758
vn -0.4459 0.1846 -0.8758
vn -0.5798 -0.2401 -0.7786
vn -0.4459 -0.1846 -0.8758
vn -0.4459 0.1847 -0.8758
vn -0.5798 0.2401 -0.7786
vn -0.1488 -0.3594 -0.9213
vn 0.1488 -0.3594 -0.9213
vn -0.4459 -0.1847 -0.8758
vn -0.3594 0.1488 -0.9213
vn -0.3594 -0.1488 -0.9213
vn 0.4459 -0.1846 -0.8758
vn 0.3594 0.1488 -0.9213
vn 0.3594 -0.1488 -0.9213
vn 0.4459 -0.1847 -0.8758
vn 0.4459 0.1847 -0.8758
vn 0.1489 0.3593 -0.9213
vn 0.3593 0.1489 -0.9213
vn -0.2402 -0.5798 -0.7786
vn -0.1848 -0.4459 -0.8758
vn -0.5798 -0.2402 -0.7786
vn 0.2402 -0.5798 -0.7786
vn 0.1848 -0.4459 -0.8758
vn 0.4459 -0.1848 -0.8758
vn 0.5798 -0.2402 -0.7786
vn 0.5798 -0.2401 -0.7786
vn 0.4459 0.1846 -0.8758
vn 0.5798 0.2401 -0.7786
vn -0.1489 0.3593 -0.9213
vn -0.3593 0.1489 -0.9213
vn -0.4459 0.1848 -0.8758
vn -0.2402 0.5798 -0.7786
vn -0.5798 0.2402 -0.7786
vn -0.1848 0.4459 -0.8758
vn 0.5798 0.2402 -0.7786
vn 0.4459 0.1848 -0.8758
vn 0.1848 0.4459 -0.8758
vn 0.2402 0.5798 -0.7786
vn -0.1489 -0.3593 -0.9213
vn -0.3593 -0.1489 -0.9213
vn 0.2401 0.5798 -0.7786
vn -0.1846 0.4459 -0.8758
vn -0.2401 0.5798 -0.7786
vn 0.1489 -0.3593 -0.9213
vn 0.3593 -0.1489 -0.9213
vn -0.4922 -0.7847 -0.3768
vn 0.1918 -0.8377 -0.5113
vn -0.4567 -0.7280 -0.5113
vn 0.2068 -0.9029 -0.3768
vn 0.4567 0.7280 -0.5113
vn -0.1763 0.7699 -0.6133
vn 0.4197 0.6691 -0.6134
vn 0.4567 0.7280 -0.5114
vn -0.1918 0.8377 -0.5113
vn -0.7280 0.4567 -0.5113
vn -0.9029 -0.2068 -0.3768
vn -0.8377 -0.1918 -0.5113
vn -0.7280 0.4566 -0.5113
vn -0.7847 0.4922 -0.3768
vn -0.4197 -0.6691 -0.6133
vn 0.1763 -0.7699 -0.6133
vn -0.7699 -0.1763 -0.6133
vn -0.7280 0.4567 -0.5114
vn -0.6691 0.4197 -0.6134
vn 0.7280 -0.4567 -0.5113
vn 0.7699 0.1763 -0.6133
vn 0.6691 -0.4197 -0.6134
vn 0.7280 -0.4567 -0.5114
vn 0.8377 0.1918 -0.5113
vn 0.8377 0.1919 -0.5113
vn 0.4197 0.6691 -0.6133
vn 0.7699 0.1763 -0.6134
vn 0.8377 0.1919 -0.5114
vn -0.8377 -0.1919 -0.5113
vn -0.4923 -0.7847 -0.3768
vn 0.1919 -0.8377 -0.5113
vn 0.7847 -0.4923 -0.3768
vn 0.7847 -0.4922 -0.3768
vn 0.9029 0.2068 -0.3768
vn -0.1919 0.8377 -0.5113
vn -0.6691 0.4197 -0.6133
vn -0.2068 0.9029 -0.3768
vn -0.7847 0.4923 -0.3768
vn 0.4923 0.7847 -0.3768
vn -0.8377 -0.1919 -0.5114
vn -0.7699 -0.1763 -0.6134
vn 0.4922 0.7847 -0.3768
vn 0.6691 -0.4197 -0.6133
vt 0.031250 0.375000
vt 0.093750 0.475000
vt 0.093750 0.420750
vt 0.093750 0.375000
s 0
usemtl colormap.025
f 3/1/1 2/1/1 1/1/1
f 2/1/1 3/1/1 4/1/1
f 7/2/2 6/3/3 5/3/4
f 6/3/3 7/2/5 8/2/6
f 11/3/7 10/4/8 9/4/9
f 10/4/8 11/3/10 12/3/11
f 15/3/12 14/2/13 13/3/14
f 14/2/13 15/3/15 16/2/16
f 18/4/17 6/3/3 17/4/18
f 6/3/3 18/4/17 5/3/19
f 13/3/20 19/4/21 15/3/12
f 19/4/21 13/3/20 20/4/22
f 23/3/23 22/4/24 21/4/25
f 22/4/24 23/3/26 24/3/27
f 24/3/28 9/4/29 22/4/30
f 9/4/29 24/3/28 11/3/31
f 8/2/1 26/2/1 25/2/1
f 26/2/1 8/2/1 27/2/1
f 27/2/1 8/2/1 28/2/1
f 28/2/1 8/2/1 7/2/1
f 28/2/1 7/2/1 16/2/1
f 16/2/1 7/2/1 14/2/1
f 13/3/32 7/2/5 5/3/33
f 7/2/5 13/3/32 14/2/34
f 8/2/35 23/3/36 6/3/37
f 23/3/36 8/2/35 25/2/38
f 25/2/39 24/3/27 23/3/23
f 24/3/27 25/2/38 26/2/40
f 15/3/41 10/4/42 12/3/43
f 10/4/42 15/3/41 19/4/44
f 15/3/41 28/2/45 16/2/46
f 28/2/45 15/3/41 12/3/43
f 26/2/47 11/3/31 24/3/28
f 11/3/31 26/2/47 27/2/48
f 18/4/49 13/3/32 5/3/33
f 13/3/32 18/4/49 20/4/50
f 27/2/51 12/3/11 11/3/7
f 12/3/11 27/2/48 28/2/52
f 17/4/53 23/3/36 21/4/54
f 23/3/36 17/4/53 6/3/37
f 31/2/55 30/3/56 29/3/57
f 30/3/58 31/2/55 32/2/59
f 35/3/60 34/4/61 33/4/62
f 34/4/61 35/3/63 36/3/64
f 39/3/65 38/2/66 37/3/67
f 38/2/66 39/3/68 40/2/69
f 42/4/70 30/3/56 41/4/71
f 30/3/56 42/4/70 29/3/57
f 37/3/72 43/4/73 39/3/68
f 43/4/73 37/3/72 44/4/74
f 47/3/75 46/4/76 45/4/77
f 46/4/76 47/3/78 48/3/79
f 48/3/79 33/4/80 46/4/81
f 33/4/80 48/3/79 35/3/63
f 32/2/1 50/2/1 49/2/1
f 50/2/1 32/2/1 51/2/1
f 51/2/1 32/2/1 52/2/1
f 52/2/1 32/2/1 31/2/1
f 52/2/1 31/2/1 40/2/1
f 40/2/1 31/2/1 38/2/1
f 37/3/72 31/2/82 29/3/83
f 31/2/82 37/3/72 38/2/84
f 32/2/85 47/3/78 30/3/86
f 47/3/87 32/2/85 49/2/88
f 49/2/89 48/3/79 47/3/78
f 48/3/90 49/2/89 50/2/91
f 39/3/68 34/4/92 36/3/64
f 34/4/92 39/3/68 43/4/93
f 39/3/94 52/2/95 40/2/96
f 52/2/95 39/3/68 36/3/97
f 50/2/98 35/3/63 48/3/99
f 35/3/100 50/2/98 51/2/101
f 42/4/102 37/3/72 29/3/57
f 37/3/72 42/4/102 44/4/103
f 51/2/104 36/3/64 35/3/63
f 36/3/105 51/2/104 52/2/106
f 41/4/107 47/3/78 45/4/108
f 47/3/78 41/4/107 30/3/56
f 55/2/109 54/3/110 53/3/111
f 54/3/110 55/2/109 56/2/112
f 59/3/113 58/4/114 57/4/115
f 58/4/114 59/3/116 60/3/117
f 63/3/118 62/2/119 61/3/120
f 62/2/119 63/3/121 64/2/122
f 66/4/123 54/3/110 65/4/124
f 54/3/110 66/4/123 53/3/111
f 67/4/125 63/3/126 61/3/120
f 63/3/118 67/4/125 68/4/127
f 71/3/128 70/4/129 69/4/130
f 70/4/129 71/3/131 72/3/132
f 72/3/133 57/4/134 70/4/135
f 57/4/134 72/3/136 59/3/113
f 56/2/1 74/2/1 73/2/1
f 74/2/1 56/2/1 75/2/1
f 75/2/1 56/2/1 76/2/1
f 76/2/1 56/2/1 55/2/1
f 76/2/1 55/2/1 64/2/1
f 64/2/1 55/2/1 62/2/1
f 61/3/137 55/2/109 53/3/111
f 55/2/138 61/3/137 62/2/119
f 56/2/112 71/3/128 54/3/139
f 71/3/128 56/2/112 73/2/140
f 73/2/141 72/3/132 71/3/128
f 72/3/132 73/2/141 74/2/142
f 63/3/118 58/4/114 60/3/143
f 58/4/114 63/3/118 68/4/144
f 63/3/118 76/2/145 64/2/146
f 76/2/145 63/3/118 60/3/143
f 74/2/142 59/3/113 72/3/133
f 59/3/113 74/2/142 75/2/147
f 66/4/123 61/3/148 53/3/111
f 61/3/137 66/4/123 67/4/149
f 75/2/150 60/3/117 59/3/113
f 60/3/117 75/2/150 76/2/145
f 65/4/124 71/3/128 69/4/151
f 71/3/128 65/4/124 54/3/139
f 3/1/1 2/1/1 1/1/1
f 2/1/1 3/1/1 4/1/1
f 7/2/2 6/3/3 5/3/4
f 6/3/3 7/2/5 8/2/6
f 11/3/7 10/4/8 9/4/9
f 10/4/8 11/3/10 12/3/11
f 15/3/12 14/2/13 13/3/14
f 14/2/13 15/3/15 16/2/16
f 18/4/17 6/3/3 17/4/18
f 6/3/3 18/4/17 5/3/19
f 13/3/20 19/4/21 15/3/12
f 19/4/21 13/3/20 20/4/22
f 23/3/23 22/4/24 21/4/25
f 22/4/24 23/3/26 24/3/27
f 24/3/28 9/4/29 22/4/30
f 9/4/29 24/3/28 11/3/31
f 8/2/1 26/2/1 25/2/1
f 26/2/1 8/2/1 27/2/1
f 27/2/1 8/2/1 28/2/1
f 28/2/1 8/2/1 7/2/1
f 28/2/1 7/2/1 16/2/1
f 16/2/1 7/2/1 14/2/1
f 13/3/32 7/2/5 5/3/33
f 7/2/5 13/3/32 14/2/34
f 8/2/35 23/3/36 6/3/37
f 23/3/36 8/2/35 25/2/38
f 25/2/39 24/3/27 23/3/23
f 24/3/27 25/2/38 26/2/40
f 15/3/41 10/4/42 12/3/43
f 10/4/42 15/3/41 19/4/44
f 15/3/41 28/2/45 16/2/46
f 28/2/45 15/3/41 12/3/43
f 26/2/47 11/3/31 24/3/28
f 11/3/31 26/2/47 27/2/48
f 18/4/49 13/3/32 5/3/33
f 13/3/32 18/4/49 20/4/50
f 27/2/51 12/3/11 11/3/7
f 12/3/11 27/2/48 28/2/52
f 17/4/53 23/3/36 21/4/54
f 23/3/36 17/4/53 6/3/37
f 31/2/55 30/3/56 29/3/57
f 30/3/58 31/2/55 32/2/59
f 35/3/60 34/4/61 33/4/62
f 34/4/61 35/3/63 36/3/64
f 39/3/65 38/2/66 37/3/67
f 38/2/66 39/3/68 40/2/69
f 42/4/70 30/3/56 41/4/71
f 30/3/56 42/4/70 29/3/57
f 37/3/72 43/4/73 39/3/68
f 43/4/73 37/3/72 44/4/74
f 47/3/75 46/4/76 45/4/77
f 46/4/76 47/3/78 48/3/79
f 48/3/79 33/4/80 46/4/81
f 33/4/80 48/3/79 35/3/63
f 32/2/1 50/2/1 49/2/1
f 50/2/1 32/2/1 51/2/1
f 51/2/1 32/2/1 52/2/1
f 52/2/1 32/2/1 31/2/1
f 52/2/1 31/2/1 40/2/1
f 40/2/1 31/2/1 38/2/1
f 37/3/72 31/2/82 29/3/83
f 31/2/82 37/3/72 38/2/84
f 32/2/85 47/3/78 30/3/86
f 47/3/87 32/2/85 49/2/88
f 49/2/89 48/3/79 47/3/78
f 48/3/90 49/2/89 50/2/91
f 39/3/68 34/4/92 36/3/64
f 34/4/92 39/3/68 43/4/93
f 39/3/94 52/2/95 40/2/96
f 52/2/95 39/3/68 36/3/97
f 50/2/98 35/3/63 48/3/99
f 35/3/100 50/2/98 51/2/101
f 42/4/102 37/3/72 29/3/57
f 37/3/72 42/4/102 44/4/103
f 51/2/104 36/3/64 35/3/63
f 36/3/105 51/2/104 52/2/106
f 41/4/107 47/3/78 45/4/108
f 47/3/78 41/4/107 30/3/56
f 55/2/109 54/3/110 53/3/111
f 54/3/110 55/2/109 56/2/112
f 59/3/113 58/4/114 57/4/115
f 58/4/114 59/3/116 60/3/117
f 63/3/118 62/2/119 61/3/120
f 62/2/119 63/3/121 64/2/122
f 66/4/123 54/3/110 65/4/124
f 54/3/110 66/4/123 53/3/111
f 67/4/125 63/3/126 61/3/120
f 63/3/118 67/4/125 68/4/127
f 71/3/128 70/4/129 69/4/130
f 70/4/129 71/3/131 72/3/132
f 72/3/133 57/4/134 70/4/135
f 57/4/134 72/3/136 59/3/113
f 56/2/1 74/2/1 73/2/1
f 74/2/1 56/2/1 75/2/1
f 75/2/1 56/2/1 76/2/1
f 76/2/1 56/2/1 55/2/1
f 76/2/1 55/2/1 64/2/1
f 64/2/1 55/2/1 62/2/1
f 61/3/137 55/2/109 53/3/111
f 55/2/138 61/3/137 62/2/119
f 56/2/112 71/3/128 54/3/139
f 71/3/128 56/2/112 73/2/140
f 73/2/141 72/3/132 71/3/128
f 72/3/132 73/2/141 74/2/142
f 63/3/118 58/4/114 60/3/143
f 58/4/114 63/3/118 68/4/144
f 63/3/118 76/2/145 64/2/146
f 76/2/145 63/3/118 60/3/143
f 74/2/142 59/3/113 72/3/133
f 59/3/113 74/2/142 75/2/147
f 66/4/123 61/3/148 53/3/111
f 61/3/137 66/4/123 67/4/149
f 75/2/150 60/3/117 59/3/113
f 60/3/117 75/2/150 76/2/145
f 65/4/124 71/3/128 69/4/151
f 71/3/128 65/4/124 54/3/139
